<svg width="60" height="60" viewBox="0 0 60 60" fill="none" xmlns="http://www.w3.org/2000/svg">
<path fill-rule="evenodd" clip-rule="evenodd" d="M30 5.25C16.3309 5.25 5.25 16.3309 5.25 30C5.25 43.6689 16.3309 54.75 30 54.75C43.6689 54.75 54.75 43.6689 54.75 30C54.75 16.3309 43.6689 5.25 30 5.25ZM0.75 30C0.75 13.8457 13.8457 0.75 30 0.75C46.1544 0.75 59.25 13.8457 59.25 30C59.25 46.1544 46.1544 59.25 30 59.25C13.8457 59.25 0.75 46.1544 0.75 30ZM30 15.75C31.2426 15.75 32.25 16.7574 32.25 18V33C32.25 34.2426 31.2426 35.25 30 35.25C28.7574 35.25 27.75 34.2426 27.75 33V18C27.75 16.7574 28.7574 15.75 30 15.75ZM30 45C31.6569 45 33 43.6569 33 42C33 40.3431 31.6569 39 30 39C28.3431 39 27 40.3431 27 42C27 43.6569 28.3431 45 30 45Z" fill="#F44336"/>
</svg>

