<svg width="16" height="16" viewBox="0 0 16 16" fill="none" xmlns="http://www.w3.org/2000/svg">
<path fill-rule="evenodd" clip-rule="evenodd" d="M6.91166 0.833344H9.08899C9.81699 0.833344 10.3943 0.833344 10.859 0.871344C11.335 0.91001 11.737 0.991343 12.105 1.17801C12.7008 1.48191 13.185 1.96662 13.4883 2.56268C13.6757 2.92934 13.757 3.33201 13.7957 3.80801C13.8337 4.27268 13.8337 4.85001 13.8337 5.57801V11.6847C13.8317 12.0847 13.8223 12.3673 13.773 12.618C13.6508 13.2323 13.3492 13.7965 12.9063 14.2394C12.4635 14.6822 11.8993 14.9838 11.285 15.106C10.9783 15.1667 10.6223 15.1667 10.0637 15.1667H4.33366C3.75902 15.1667 3.20792 14.9384 2.80159 14.5321C2.39527 14.1257 2.16699 13.5746 2.16699 13V5.57801C2.16699 4.85001 2.16699 4.27268 2.20499 3.80801C2.24366 3.33201 2.32499 2.93001 2.51166 2.56268C2.81544 1.96667 3.30017 1.48217 3.89633 1.17868C4.26299 0.991344 4.66566 0.91001 5.14166 0.871344C5.60633 0.833344 6.18366 0.833344 6.91166 0.833344ZM3.16699 13C3.16699 13.644 3.68966 14.1667 4.33366 14.1667H10.0003C10.6437 14.1667 10.8923 14.164 11.0897 14.1253C11.5101 14.0418 11.8962 13.8354 12.1993 13.5323C12.5024 13.2292 12.7088 12.8431 12.7923 12.4227C12.819 12.2873 12.8283 12.128 12.8323 11.8333H4.33366C4.02424 11.8333 3.72749 11.9563 3.5087 12.1751C3.28991 12.3938 3.16699 12.6906 3.16699 13ZM3.16699 11.1733V5.60001C3.16699 4.84534 3.16699 4.30868 3.20166 3.88934C3.23499 3.47601 3.29966 3.21934 3.40299 3.01601C3.6107 2.60843 3.94208 2.27705 4.34966 2.06934C4.55299 1.96601 4.80966 1.90201 5.22299 1.86801C5.64299 1.83401 6.17899 1.83334 6.93366 1.83334H9.06699C9.82233 1.83334 10.3583 1.83334 10.7777 1.86801C11.191 1.90134 11.4477 1.96601 11.651 2.06934C12.0586 2.27705 12.39 2.60843 12.5977 3.01601C12.701 3.21934 12.765 3.47601 12.799 3.88934C12.833 4.30934 12.8337 4.84534 12.8337 5.60001V10.8333H4.33366C3.90433 10.8333 3.50366 10.9587 3.16699 11.1733ZM5.50033 4.66668C5.50033 4.53407 5.553 4.40689 5.64677 4.31312C5.74054 4.21936 5.86772 4.16668 6.00033 4.16668H10.0003C10.1329 4.16668 10.2601 4.21936 10.3539 4.31312C10.4476 4.40689 10.5003 4.53407 10.5003 4.66668C10.5003 4.79929 10.4476 4.92646 10.3539 5.02023C10.2601 5.114 10.1329 5.16668 10.0003 5.16668H6.00033C5.86772 5.16668 5.74054 5.114 5.64677 5.02023C5.553 4.92646 5.50033 4.79929 5.50033 4.66668Z" fill="#636373"/>
</svg>

