<svg width="600" height="350" viewBox="0 0 600 350" fill="none" xmlns="http://www.w3.org/2000/svg">
<g clip-path="url(#clip0_93_8124)">
<rect width="600" height="350" fill="#FBFBFE"/>
<path opacity="0.2" fill-rule="evenodd" clip-rule="evenodd" d="M587.616 -181.936C577.58 -181.984 567.679 -179.331 559.012 -174.271C546.129 -166.713 539.404 -153.225 534.505 -138.268C529.617 -123.271 525.488 -103.004 520.322 -77.8047L520.127 -76.8048L535.053 -73.7504L520.127 -76.8048L519.684 -74.6858C516.606 -59.6901 515.607 -55.7166 513.77 -52.5923C512.326 -50.1209 510.454 -47.9137 508.255 -46.0612C505.493 -43.7206 501.751 -42.0443 487.493 -36.4762L486.675 -36.1516C464.182 -27.3663 446.189 -20.3342 433.05 -13.6551C420.082 -7.043 408.516 0.793721 402.745 12.8893C396.443 26.1083 395.577 41.2715 400.333 55.1221C404.7 67.807 415.283 76.8893 427.416 84.9243C439.71 93.0849 456.765 102.118 478.13 113.406L478.916 113.827L482.351 115.644C497.314 123.553 501.221 125.875 503.831 128.776C506.39 131.649 508.248 135.047 509.322 138.739C510.386 142.475 510.28 147.031 508.985 163.886L508.935 164.721C507.044 189.569 505.565 209.274 505.767 224.254C505.954 238.859 507.708 252.791 515.564 263.173C520.786 270.048 527.527 275.62 535.262 279.455C542.996 283.289 551.513 285.281 560.146 285.275C573.181 285.278 585.317 278.236 597.076 269.547C609.132 260.632 623.919 247.531 642.547 231.001L643.184 230.472L654.156 220.731C666.289 209.984 669.633 207.298 673.25 205.866C675.022 205.169 676.868 204.674 678.751 204.392C682.599 203.824 686.839 204.478 702.72 207.718L717.092 210.669L717.894 210.833C742.305 215.81 761.667 219.781 776.561 221.455C791.088 223.1 805.12 223.13 816.407 216.61C823.882 212.298 830.257 206.314 835.035 199.127C839.812 191.94 842.862 183.745 843.945 175.183C845.217 165.157 842.205 155.33 837.839 145.951C833.407 136.484 826.707 125.624 818.329 112.982C817.248 111.259 815.833 109.769 814.167 108.601C812.501 107.433 810.618 106.61 808.63 106.18C806.641 105.75 804.587 105.723 802.587 106.099C800.588 106.475 798.684 107.248 796.987 108.371C795.291 109.494 793.836 110.945 792.709 112.639C791.582 114.333 790.805 116.235 790.424 118.234C790.043 120.232 790.066 122.287 790.491 124.276C790.916 126.266 791.734 128.151 792.898 129.819C801.186 142.359 806.803 151.614 810.201 158.873C813.645 166.226 813.892 169.739 813.692 171.351C812.69 179.242 808.051 186.212 801.157 190.186C799.094 191.37 793.897 192.721 779.978 191.144C766.622 189.627 748.607 185.969 723.21 180.772L708.838 177.821L706.63 177.36C694.04 174.775 684.104 172.741 674.208 174.235C670.079 174.857 665.993 175.952 662.086 177.483C652.789 181.132 645.201 187.861 635.576 196.42L633.914 197.918L622.937 207.64C603.542 224.839 589.77 237.015 578.961 245.006C567.695 253.331 562.524 254.78 560.141 254.766C556.216 254.77 552.343 253.866 548.825 252.123C545.308 250.381 542.242 247.847 539.868 244.722C538.429 242.812 536.466 237.842 536.27 223.829C536.078 210.383 537.442 192.057 539.42 166.196L539.607 163.83C540.626 150.502 541.441 140.029 538.634 130.337C536.318 122.225 532.196 114.741 526.578 108.447C519.845 100.923 510.552 96.0226 498.735 89.7979L496.624 88.6789L493.184 86.8423C470.863 75.0515 455.153 66.7116 444.276 59.5188C433.085 52.0945 430.067 47.7445 429.201 45.2183C427.035 38.9226 427.426 32.0288 430.289 26.0181C431.452 23.6008 434.937 19.6347 446.907 13.5426C458.539 7.60423 475.081 1.12936 498.603 -8.05802L500.583 -8.84124C511.891 -13.2398 520.792 -16.7197 527.938 -22.7406C532.771 -26.8237 536.876 -31.6971 540.079 -37.1536C544.803 -45.2206 546.718 -54.5773 549.152 -66.4737C549.284 -67.1617 549.41 -67.8693 549.581 -68.5678L535.768 -71.3943L549.581 -68.5678L550.004 -70.6816C555.425 -97.1281 559.223 -115.644 563.531 -128.8C567.884 -142.179 571.643 -146.303 574.409 -147.928C578.357 -150.243 582.857 -151.448 587.434 -151.418C590.661 -151.399 595.978 -149.707 606.438 -140.297C616.746 -131.057 629.288 -116.941 647.212 -96.7283L648.635 -95.1094L650.053 -93.5101C658.11 -84.4247 664.446 -77.2789 672.571 -72.6547C678.073 -69.5306 684.065 -67.3626 690.292 -66.2431C699.491 -64.602 708.939 -66.0387 720.931 -67.8834L723.038 -68.1951C748.002 -71.9995 765.565 -74.6631 778.608 -75.3364C792.021 -76.0455 797.017 -74.3732 799.233 -72.8613C804.723 -69.0835 808.511 -63.3007 809.78 -56.7579C810.293 -54.1369 809.854 -48.8604 803.869 -36.8549C798.052 -25.168 788.616 -10.09 775.201 11.2761L773.115 14.5723L786.03 22.6929L773.115 14.5723C767.037 24.2655 762.341 34.0094 759.911 39.3984C759.051 41.227 758.563 43.2083 758.476 45.227C758.388 47.2457 758.703 49.2618 759.401 51.158C760.099 53.0542 761.167 54.7928 762.542 56.2729C763.918 57.753 765.574 58.945 767.414 59.7797C769.254 60.6144 771.242 61.0752 773.262 61.1353C775.282 61.1955 777.293 60.8537 779.18 60.1299C781.066 59.4061 782.79 58.3147 784.252 56.9191C785.713 55.5235 786.882 53.8515 787.692 52.0001C790.984 44.7035 794.742 37.6266 798.944 30.8134L801.03 27.5172L788.115 19.3967L801.03 27.5172L801.501 26.7594C814.334 6.28612 824.612 -10.0493 831.184 -23.2437C837.669 -36.2888 842.293 -49.4455 839.738 -62.595C836.928 -76.9771 828.587 -89.6821 816.507 -97.9778C805.461 -105.567 791.527 -106.571 776.99 -105.814C762.252 -105.023 743.193 -102.127 719.302 -98.4838L718.431 -98.3557C703.298 -96.0487 699.22 -95.6298 695.663 -96.2557C692.835 -96.7669 690.114 -97.7537 687.616 -99.1743C684.463 -100.961 681.617 -103.884 671.448 -115.351L670.005 -116.965L669.336 -117.733C652.257 -136.993 638.558 -152.441 626.826 -162.984C615.095 -173.527 602.532 -181.826 587.596 -181.93L587.616 -181.936Z" fill="#CCCCE1"/>
<path opacity="0.2" fill-rule="evenodd" clip-rule="evenodd" d="M105.741 107.631C98.3552 100.174 89.0712 94.814 78.9203 92.1464C63.8045 88.2087 48.8573 93.2103 34.1737 100.648C19.4688 108.123 1.42767 120.058 -21.027 134.872L-21.9108 135.467L-13.1317 148.763L-21.9108 135.467L-23.8054 136.706C-37.1707 145.52 -40.8477 147.719 -44.5166 148.671C-47.4115 149.431 -50.4283 149.679 -53.4242 149.423C-57.1982 149.111 -61.2043 147.584 -75.8658 141.158L-76.711 140.792C-99.8408 130.656 -118.347 122.55 -133.002 117.773C-147.482 113.073 -161.83 110.316 -175.042 114.992C-189.477 120.108 -201.331 130.68 -208.057 144.439C-214.208 157.049 -213.098 171.591 -210.067 186.506C-207.011 201.632 -201.079 220.923 -193.628 245.071L-193.357 245.964L-192.161 249.847C-186.944 266.761 -185.772 271.367 -185.988 275.443C-186.219 279.46 -187.358 283.346 -189.294 286.87C-191.27 290.42 -194.717 293.711 -208.14 305.217L-208.794 305.798C-228.567 322.774 -244.233 336.252 -255.16 347.48C-265.823 358.418 -274.829 370.018 -276.696 383.505C-277.919 392.45 -277.054 401.556 -274.17 410.111C-271.287 418.667 -266.461 426.438 -260.073 432.817C-250.436 442.458 -236.253 446.226 -221.133 448.496C-205.625 450.818 -185.001 452.066 -159.002 453.617L-158.14 453.697L-142.823 454.607C-125.903 455.632 -121.444 456.119 -117.71 457.734C-115.884 458.529 -114.154 459.528 -112.552 460.712C-109.286 463.138 -106.635 466.756 -97.2872 480.897L-88.841 493.707L-88.3693 494.421C-73.9975 516.154 -62.6162 533.409 -52.8404 545.66C-43.314 557.619 -32.9601 568.018 -19.7922 571.544C-11.0752 573.882 -1.93538 574.172 6.91216 572.39C15.7597 570.608 24.0749 566.803 31.2072 561.273C39.5625 554.799 44.6017 545.305 48.309 535.14C52.0325 524.862 55.1086 511.877 58.262 496.333C58.7367 494.259 58.7916 492.11 58.4237 490.015C58.0557 487.919 57.2722 485.918 56.1194 484.13C54.9665 482.342 53.4675 480.802 51.7107 479.602C49.9539 478.401 47.9747 477.565 45.8896 477.141C43.8046 476.717 41.6557 476.714 39.5697 477.133C37.4836 477.552 35.5025 478.384 33.7428 479.58C31.9831 480.777 30.4805 482.313 29.3234 484.098C28.1663 485.884 27.3781 487.883 27.0052 489.978C23.8604 505.379 21.1705 516.377 18.315 524.258C15.4248 532.242 13.0089 535.022 11.6693 536.067C5.09308 541.161 -3.49173 542.885 -11.5289 540.725C-13.9295 540.076 -18.7714 537.232 -27.899 525.772C-36.6541 514.774 -47.2705 498.746 -62.2081 476.122L-70.6543 463.313L-71.9462 461.339C-79.3442 450.117 -85.1882 441.266 -93.611 435.052C-97.1243 432.459 -100.956 430.246 -104.977 428.49C-114.551 424.313 -125.138 423.678 -138.585 422.89L-140.922 422.768L-156.228 421.84C-183.29 420.216 -202.478 419.035 -216.381 416.953C-230.868 414.777 -235.763 412.025 -237.515 410.252C-240.421 407.353 -242.616 403.82 -243.929 399.93C-245.241 396.04 -245.635 391.9 -245.08 387.832C-244.731 385.357 -242.508 380.23 -232.29 369.722C-222.489 359.637 -207.928 347.094 -187.341 329.432L-185.453 327.821C-174.844 318.718 -166.496 311.576 -161.405 302.333C-157.119 294.621 -154.633 286.04 -154.133 277.231C-153.548 266.688 -156.796 256.191 -160.932 242.85L-161.665 240.461L-162.851 236.559C-170.638 211.334 -176.088 193.549 -178.812 180.187C-181.598 166.421 -180.613 160.972 -179.386 158.463C-176.331 152.206 -170.944 147.397 -164.383 145.069C-161.735 144.142 -156.224 143.786 -142.868 148.133C-129.874 152.344 -112.853 159.788 -88.6651 170.388L-86.6217 171.273C-75.0068 176.383 -65.8513 180.392 -56.1144 181.224C-49.521 181.778 -42.8813 181.21 -36.4779 179.544C-27.0192 177.071 -18.684 171.568 -8.08641 164.571C-7.4804 164.159 -6.86375 163.729 -6.2209 163.339L-14.3449 151.035L-6.2209 163.339L-4.3448 162.089C19.2212 146.541 35.7221 135.658 48.6368 129.114C61.7498 122.439 67.5791 122.17 70.8257 123.013C75.4572 124.221 79.6766 126.657 83.0387 130.064C85.4104 132.465 88.0916 137.648 88.8678 152.341C89.6582 166.798 88.494 186.511 86.8013 214.712L86.6567 216.962L86.5228 219.194C85.7619 231.87 85.1635 241.84 87.7519 251.268C89.5102 257.646 92.338 263.681 96.115 269.113C101.704 277.13 109.754 283.054 119.986 290.558L121.774 291.886C143.048 307.533 158.006 318.551 168.149 327.699C178.592 337.093 181.05 342.024 181.571 344.781C182.837 351.635 181.362 358.712 177.462 364.489C175.903 366.806 171.676 370.384 158.373 374.836C145.428 379.176 127.3 383.349 101.58 389.228L97.5998 390.123L101.145 405.679L97.5998 390.123C85.9371 392.797 75.2591 396.53 69.4767 398.718C67.4887 399.434 65.6629 400.539 64.1054 401.967C62.5478 403.395 61.2894 405.118 60.4034 407.037C59.5174 408.955 59.0214 411.031 58.9442 413.142C58.867 415.254 59.2101 417.36 59.9536 419.338C60.6971 421.316 61.8262 423.127 63.2754 424.665C64.7245 426.203 66.4648 427.438 68.3951 428.298C70.3255 429.158 72.4074 429.626 74.52 429.674C76.6327 429.723 78.7339 429.351 80.7017 428.581C88.5318 425.619 96.5445 423.165 104.69 421.234L108.67 420.339L105.125 404.784L108.67 420.339L109.579 420.127C134.209 414.477 153.889 409.998 168.506 405.1C182.949 400.249 196.097 393.939 203.932 382.326C212.49 369.613 215.716 354.049 212.918 338.981C210.363 325.201 200.8 314.154 189.49 303.964C178.007 293.65 161.771 281.698 141.41 266.724L140.671 266.175C127.775 256.691 124.449 253.985 122.281 250.891C120.568 248.422 119.286 245.68 118.489 242.783C117.479 239.129 117.535 234.863 118.495 218.864L118.621 216.603L118.695 215.54C120.308 188.668 121.601 167.114 120.722 150.642C119.843 134.169 116.691 118.742 105.723 107.621L105.741 107.631Z" fill="#CCCCE1"/>
<path fill-rule="evenodd" clip-rule="evenodd" d="M295.189 127.775C293.03 127.562 290.845 127.94 288.878 128.865C285.953 130.247 284.237 133.043 282.883 136.194C281.532 139.355 280.239 143.676 278.624 149.047L278.562 149.261L281.714 150.225L278.562 149.261L278.424 149.712C277.462 152.909 277.168 153.752 276.71 154.394C276.35 154.902 275.903 155.344 275.393 155.702C274.751 156.155 273.912 156.444 270.731 157.367L270.549 157.421C265.531 158.877 261.516 160.043 258.554 161.229C255.63 162.405 252.984 163.875 251.5 166.387C249.88 169.133 249.391 172.41 250.138 175.516C250.826 178.36 252.923 180.547 255.375 182.537C257.859 184.558 261.351 186.864 265.725 189.747L265.886 189.854L266.59 190.318C269.653 192.338 270.448 192.921 270.952 193.604C271.446 194.28 271.778 195.055 271.936 195.879C272.09 196.713 271.977 197.7 271.362 201.337L271.334 201.517C270.431 206.878 269.72 211.13 269.465 214.39C269.213 217.567 269.313 220.63 270.797 223.044C271.785 224.643 273.125 225.989 274.714 226.978C276.302 227.967 278.096 228.572 279.955 228.744C282.761 229.007 285.515 227.721 288.22 226.07C290.993 224.375 294.438 221.826 298.779 218.609L298.926 218.507L301.483 216.612C304.31 214.521 305.083 214.004 305.89 213.766C306.286 213.65 306.693 213.58 307.104 213.556C307.944 213.51 308.844 213.738 312.198 214.762L315.234 215.692L315.403 215.744C320.56 217.317 324.649 218.57 327.822 219.233C330.917 219.883 333.938 220.172 336.498 218.983C338.193 218.196 339.685 217.024 340.857 215.559C342.029 214.093 342.849 212.374 343.253 210.535C343.727 208.382 343.275 206.186 342.522 204.06C341.756 201.914 340.53 199.419 338.979 196.504C338.78 196.107 338.505 195.755 338.17 195.468C337.835 195.181 337.446 194.964 337.026 194.83C336.607 194.697 336.165 194.65 335.727 194.691C335.289 194.733 334.864 194.862 334.476 195.072C334.088 195.282 333.746 195.568 333.47 195.913C333.193 196.259 332.988 196.656 332.866 197.083C332.744 197.51 332.708 197.957 332.76 198.397C332.812 198.838 332.95 199.264 333.168 199.65C334.702 202.542 335.727 204.666 336.313 206.312C336.908 207.979 336.891 208.747 336.816 209.093C336.443 210.788 335.305 212.209 333.742 212.934C333.274 213.15 332.128 213.339 329.163 212.716C326.317 212.117 322.512 210.96 317.147 209.319L314.112 208.388L313.646 208.244C310.987 207.429 308.888 206.787 306.728 206.912C305.826 206.964 304.925 207.12 304.053 207.374C301.979 207.98 300.211 209.289 297.968 210.955L297.58 211.247L295.023 213.138C290.504 216.485 287.296 218.854 284.809 220.373C282.218 221.955 281.075 222.165 280.563 222.114C279.717 222.036 278.902 221.762 278.179 221.312C277.457 220.863 276.847 220.251 276.398 219.524C276.127 219.08 275.803 217.96 276.04 214.911C276.267 211.986 276.926 208.031 277.868 202.452L277.956 201.941C278.441 199.066 278.825 196.806 278.414 194.644C278.077 192.834 277.339 191.125 276.255 189.645C274.956 187.874 273.053 186.622 270.633 185.032L270.201 184.746L269.497 184.278C264.926 181.266 261.71 179.138 259.512 177.356C257.25 175.517 256.687 174.511 256.551 173.945C256.211 172.533 256.432 171.043 257.168 169.795C257.467 169.293 258.297 168.501 260.995 167.418C263.618 166.362 267.309 165.288 272.556 163.765L272.998 163.635C275.521 162.907 277.506 162.33 279.165 161.166C280.287 160.376 281.268 159.399 282.066 158.278C283.244 156.62 283.843 154.626 284.605 152.09C284.647 151.943 284.688 151.792 284.739 151.643L281.821 150.751L284.739 151.643L284.872 151.193C286.567 145.555 287.754 141.608 288.944 138.836C290.148 136.017 291.04 135.196 291.667 134.899C292.564 134.475 293.557 134.304 294.541 134.403C295.236 134.472 296.347 134.946 298.411 137.202C300.446 139.417 302.865 142.737 306.321 147.49L306.595 147.87L306.868 148.246C308.421 150.383 309.643 152.063 311.3 153.231C312.422 154.021 313.669 154.613 314.988 154.981C316.935 155.523 318.998 155.401 321.617 155.242L322.077 155.217C327.527 154.892 331.362 154.667 334.184 154.784C337.085 154.9 338.128 155.363 338.575 155.737C339.681 156.668 340.382 158.001 340.524 159.448C340.582 160.028 340.383 161.166 338.855 163.654C337.369 166.076 335.037 169.163 331.722 173.535L331.207 174.21L333.826 176.234L331.207 174.21C329.705 176.193 328.5 178.216 327.869 179.338C327.648 179.718 327.503 180.139 327.444 180.576C327.385 181.013 327.412 181.457 327.525 181.883C327.637 182.309 327.833 182.709 328.099 183.058C328.366 183.407 328.699 183.7 329.078 183.918C329.458 184.137 329.876 184.277 330.31 184.33C330.744 184.384 331.184 184.35 331.604 184.231C332.025 184.112 332.418 183.909 332.76 183.635C333.103 183.362 333.388 183.022 333.599 182.636C334.453 181.117 335.404 179.655 336.444 178.259L336.959 177.584L334.341 175.56L336.959 177.584L337.076 177.429C340.247 173.239 342.786 169.896 344.464 167.161C346.12 164.457 347.378 161.692 347.091 158.783C346.773 155.601 345.23 152.673 342.795 150.627C340.568 148.755 337.588 148.256 334.443 148.128C331.254 148.004 327.093 148.249 321.877 148.56L321.686 148.57C318.383 148.767 317.496 148.776 316.743 148.568C316.144 148.4 315.578 148.131 315.068 147.772C314.425 147.32 313.871 146.628 311.91 143.931L311.632 143.552L311.503 143.371C308.21 138.842 305.569 135.21 303.253 132.682C300.938 130.155 298.399 128.099 295.185 127.776L295.189 127.775Z" fill="#6E3EF7"/>
<path opacity="0.2" fill-rule="evenodd" clip-rule="evenodd" d="M302.629 125.245C300.504 124.799 298.292 124.936 296.237 125.641C293.182 126.697 291.176 129.289 289.494 132.275C287.812 135.269 286.064 139.424 283.884 144.588L283.8 144.794L286.831 146.096L283.8 144.794L283.615 145.227C282.317 148.3 281.934 149.107 281.41 149.695C280.998 150.161 280.506 150.551 279.96 150.852C279.274 151.232 278.409 151.428 275.148 151.999L274.961 152.033C269.816 152.934 265.701 153.656 262.629 154.513C259.597 155.363 256.808 156.536 255.065 158.872C253.16 161.425 252.323 164.63 252.734 167.798C253.113 170.701 254.964 173.103 257.189 175.349C259.443 177.629 262.667 180.302 266.708 183.645L266.857 183.769L267.506 184.307C270.336 186.648 271.064 187.315 271.492 188.049C271.91 188.774 272.158 189.582 272.226 190.418C272.291 191.263 272.072 192.233 271.072 195.781L271.025 195.957C269.554 201.189 268.392 205.339 267.789 208.551C267.2 211.682 266.971 214.738 268.189 217.3C268.999 218.997 270.188 220.482 271.661 221.638C273.135 222.794 274.854 223.59 276.683 223.964C279.445 224.532 282.32 223.553 285.186 222.206C288.124 220.824 291.822 218.665 296.481 215.94L296.639 215.855L299.383 214.248C302.417 212.478 303.241 212.049 304.069 211.9C304.475 211.827 304.887 211.802 305.298 211.823C306.138 211.869 307.008 212.193 310.234 213.577L313.152 214.833L313.315 214.903C318.273 217.028 322.204 218.719 325.288 219.724C328.295 220.708 331.267 221.324 333.94 220.421C335.709 219.823 337.318 218.821 338.64 217.492C339.962 216.162 340.961 214.543 341.559 212.759C342.26 210.67 342.046 208.438 341.524 206.242C340.993 204.025 340.041 201.411 338.811 198.343C338.656 197.928 338.42 197.548 338.117 197.226C337.815 196.903 337.451 196.645 337.048 196.467C336.646 196.289 336.211 196.194 335.772 196.187C335.332 196.181 334.895 196.263 334.487 196.43C334.079 196.596 333.709 196.843 333.397 197.156C333.085 197.469 332.838 197.842 332.672 198.253C332.505 198.664 332.421 199.104 332.425 199.548C332.43 199.992 332.522 200.431 332.697 200.838C333.913 203.88 334.704 206.104 335.112 207.804C335.525 209.526 335.426 210.288 335.314 210.624C334.762 212.268 333.478 213.557 331.846 214.107C331.359 214.271 330.199 214.333 327.318 213.391C324.553 212.486 320.893 210.921 315.736 208.705L312.818 207.449L312.37 207.255C309.814 206.155 307.796 205.288 305.635 205.177C304.733 205.13 303.82 205.187 302.926 205.345C300.799 205.721 298.901 206.83 296.493 208.242L296.077 208.49L293.332 210.092C288.481 212.926 285.039 214.932 282.404 216.171C279.659 217.461 278.501 217.546 277.996 217.44C277.164 217.27 276.383 216.908 275.712 216.383C275.042 215.857 274.502 215.182 274.133 214.41C273.911 213.939 273.709 212.791 274.271 209.786C274.809 206.902 275.888 203.043 277.421 197.598L277.562 197.1C278.352 194.294 278.976 192.09 278.799 189.896C278.658 188.06 278.107 186.28 277.187 184.69C276.085 182.789 274.327 181.337 272.091 179.492L271.692 179.161L271.042 178.618C266.82 175.126 263.851 172.66 261.856 170.649C259.805 168.575 259.352 167.513 259.278 166.935C259.09 165.495 259.47 164.038 260.335 162.877C260.686 162.41 261.595 161.714 264.394 160.931C267.114 160.167 270.898 159.502 276.278 158.559L276.731 158.478C279.317 158.029 281.353 157.672 283.126 156.695C284.326 156.032 285.406 155.168 286.32 154.14C287.668 152.621 288.477 150.703 289.505 148.265C289.563 148.123 289.62 147.977 289.686 147.836L286.881 146.631L289.686 147.836L289.867 147.402C292.155 141.982 293.757 138.187 295.236 135.561C296.735 132.889 297.709 132.171 298.365 131.944C299.302 131.62 300.307 131.558 301.275 131.763C301.958 131.908 303.012 132.501 304.823 134.968C306.609 137.392 308.659 140.956 311.586 146.058L311.818 146.466L312.049 146.869C313.365 149.163 314.4 150.966 315.922 152.308C316.953 153.216 318.13 153.94 319.401 154.45C321.279 155.201 323.343 155.304 325.964 155.431L326.424 155.456C331.877 155.728 335.713 155.922 338.506 156.345C341.378 156.776 342.365 157.351 342.769 157.771C343.77 158.817 344.324 160.218 344.311 161.673C344.306 162.256 343.986 163.365 342.201 165.672C340.465 167.918 337.816 170.733 334.053 174.719L333.469 175.333L335.856 177.631L333.469 175.333C331.764 177.141 330.349 179.021 329.602 180.068C329.341 180.422 329.152 180.824 329.047 181.252C328.941 181.68 328.921 182.125 328.987 182.56C329.054 182.996 329.205 183.415 329.433 183.791C329.661 184.167 329.96 184.494 330.314 184.753C330.668 185.011 331.069 185.196 331.495 185.297C331.92 185.397 332.361 185.412 332.792 185.339C333.223 185.266 333.635 185.108 334.005 184.873C334.375 184.638 334.694 184.331 334.946 183.97C335.957 182.553 337.059 181.203 338.243 179.929L338.826 179.315L336.44 177.017L338.826 179.315L338.959 179.173C342.56 175.353 345.441 172.306 347.402 169.77C349.338 167.263 350.885 164.65 350.91 161.727C350.934 158.529 349.714 155.449 347.512 153.15C345.498 151.047 342.589 150.227 339.476 149.757C336.319 149.285 332.156 149.076 326.937 148.816L326.746 148.806C323.441 148.641 322.559 148.554 321.832 148.265C321.255 148.033 320.721 147.704 320.253 147.291C319.661 146.772 319.184 146.023 317.524 143.129L317.287 142.721L317.179 142.528C314.389 137.667 312.152 133.767 310.12 131.003C308.089 128.238 305.784 125.917 302.624 125.246L302.629 125.245Z" fill="#6E3EF7"/>
<path fill-rule="evenodd" clip-rule="evenodd" d="M290.687 187.72C290.145 187.197 289.421 186.914 288.676 186.933C287.931 186.953 287.225 187.273 286.714 187.824C286.202 188.376 285.927 189.112 285.949 189.872C285.971 190.632 286.288 191.352 286.83 191.876C289.263 194.227 292.197 195.969 295.401 196.964C298.605 197.959 301.989 198.18 305.286 197.608C308.583 197.041 311.702 195.698 314.396 193.685C317.09 191.672 319.284 189.044 320.804 186.011C320.972 185.676 321.073 185.311 321.103 184.936C321.132 184.561 321.088 184.184 320.975 183.825C320.861 183.467 320.679 183.134 320.44 182.847C320.201 182.56 319.908 182.323 319.579 182.151C319.251 181.978 318.892 181.874 318.524 181.842C318.156 181.811 317.786 181.854 317.435 181.969C317.084 182.083 316.759 182.267 316.478 182.51C316.197 182.753 315.966 183.051 315.798 183.385C314.675 185.627 313.053 187.57 311.062 189.058C309.071 190.546 306.765 191.539 304.328 191.957C301.891 192.38 299.39 192.217 297.022 191.482C294.654 190.746 292.485 189.458 290.687 187.72ZM292.952 169.686C293.121 170.685 292.894 171.711 292.322 172.537C291.749 173.363 290.877 173.922 289.897 174.091C288.918 174.26 287.911 174.025 287.099 173.438C286.287 172.851 285.735 171.96 285.566 170.961C285.397 169.962 285.623 168.937 286.196 168.111C286.769 167.285 287.641 166.725 288.62 166.556C289.6 166.387 290.606 166.622 291.419 167.209C292.231 167.796 292.782 168.687 292.952 169.686ZM312.054 170.266C313.033 170.097 313.905 169.538 314.478 168.712C315.051 167.886 315.278 166.86 315.108 165.861C314.939 164.862 314.387 163.971 313.575 163.384C312.763 162.797 311.756 162.562 310.777 162.731C309.798 162.9 308.926 163.46 308.353 164.286C307.78 165.112 307.553 166.137 307.723 167.136C307.892 168.135 308.444 169.026 309.256 169.613C310.068 170.2 311.075 170.435 312.054 170.266Z" fill="#6E3EF7"/>
</g>
<defs>
<clipPath id="clip0_93_8124">
<rect width="600" height="350" fill="white"/>
</clipPath>
</defs>
</svg>
