<svg width="16" height="16" viewBox="0 0 16 16" fill="none" xmlns="http://www.w3.org/2000/svg">
<path fill-rule="evenodd" clip-rule="evenodd" d="M7.99967 14.6667C11.6815 14.6667 14.6663 11.6819 14.6663 8.00001C14.6663 4.31811 11.6815 1.33334 7.99967 1.33334C4.31777 1.33334 1.33301 4.31811 1.33301 8.00001C1.33301 11.6819 4.31777 14.6667 7.99967 14.6667ZM11.0199 6.35356C11.2151 6.1583 11.2151 5.84172 11.0199 5.64646C10.8246 5.4512 10.5081 5.4512 10.3128 5.64646L7.33301 8.62621L6.35323 7.64648C6.15797 7.45121 5.84138 7.45121 5.64612 7.64648C5.45086 7.84174 5.45086 8.15828 5.64612 8.35354L6.97947 9.68688C7.07321 9.78068 7.20041 9.83334 7.33301 9.83334C7.46561 9.83334 7.59281 9.78068 7.68654 9.68688L11.0199 6.35356Z" fill="white"/>
</svg>

