<svg width="16" height="16" viewBox="0 0 16 16" fill="none" xmlns="http://www.w3.org/2000/svg">
  <path fill-rule="evenodd" clip-rule="evenodd"
        d="M12.9803 1.64665C13.074 1.55302 13.2011 1.50043 13.3336 1.50043C13.4661 1.50043 13.5932 1.55302 13.687 1.64665L14.179 2.13799L14.193 2.15199C14.445 2.40399 14.655 2.61399 14.813 2.79999C14.977 2.99332 15.1136 3.19332 15.1916 3.43332C15.3113 3.80162 15.3113 4.19836 15.1916 4.56665C15.1136 4.80665 14.977 5.00665 14.813 5.19999C14.655 5.38599 14.445 5.59599 14.193 5.84799L14.179 5.86199L11.0203 9.01999C10.9265 9.11362 10.7995 9.16621 10.667 9.16621C10.5345 9.16621 10.4074 9.11362 10.3136 9.01999L8.31362 7.01999C8.21999 6.92624 8.16739 6.79915 8.16739 6.66665C8.16739 6.53415 8.21999 6.40707 8.31362 6.31332L12.9803 1.64665ZM7.68695 7.64665L6.86429 6.82332L7.01095 5.79332L7.01962 5.73532C7.06629 5.40465 7.10429 5.14465 7.06895 4.88865C7.03817 4.66351 6.96584 4.44604 6.85562 4.24732C6.72962 4.02199 6.54362 3.83599 6.30762 3.60065L6.26629 3.55865L4.35362 1.64665C4.25884 1.55833 4.13347 1.51025 4.00394 1.51254C3.8744 1.51482 3.75081 1.5673 3.65921 1.65891C3.5676 1.75051 3.51512 1.8741 3.51284 2.00364C3.51055 2.13317 3.55863 2.25854 3.64695 2.35332L5.55895 4.26665C5.85629 4.56399 5.93229 4.64665 5.98095 4.73332C6.03162 4.82399 6.06429 4.92332 6.07829 5.02532C6.09162 5.12532 6.08029 5.23665 6.02095 5.65199L5.98029 5.93999L2.68695 2.64665C2.59217 2.55833 2.46681 2.51025 2.33727 2.51254C2.20774 2.51482 2.08415 2.5673 1.99254 2.65891C1.90093 2.75051 1.84846 2.8741 1.84617 3.00364C1.84389 3.13317 1.89197 3.25854 1.98029 3.35332L5.27295 6.64665L4.98562 6.68732C4.56962 6.74732 4.45762 6.75799 4.35895 6.74465C4.25642 6.73062 4.1574 6.69761 4.06695 6.64732C3.97962 6.59865 3.89695 6.52265 3.59962 6.22532L1.68695 4.31332C1.59217 4.225 1.46681 4.17692 1.33727 4.1792C1.20774 4.18149 1.08415 4.23396 0.99254 4.32557C0.900931 4.41718 0.848456 4.54077 0.846171 4.67031C0.843885 4.79984 0.891967 4.9252 0.980287 5.01999L2.89229 6.93332L2.93362 6.97465C3.16962 7.21065 3.35562 7.39665 3.58095 7.52265C3.77962 7.63265 3.99762 7.70532 4.22229 7.73599C4.47829 7.77132 4.73829 7.73399 5.06895 7.68665L5.12695 7.67799L6.15695 7.53132L6.62629 8.00065L4.97962 9.64732L0.979621 13.6473C0.931888 13.6935 0.893823 13.7487 0.867648 13.8097C0.841473 13.8707 0.827711 13.9363 0.827165 14.0027C0.82662 14.0691 0.839302 14.1349 0.864471 14.1964C0.889641 14.2578 0.926794 14.3136 0.973762 14.3605C1.02073 14.4074 1.07657 14.4445 1.13803 14.4697C1.19949 14.4948 1.26534 14.5074 1.33173 14.5068C1.39812 14.5062 1.46372 14.4923 1.52471 14.4661C1.5857 14.4399 1.64085 14.4018 1.68695 14.354L5.68695 10.354L7.33362 8.70665L12.9803 14.3533C13.0261 14.4024 13.0813 14.4418 13.1426 14.4692C13.2039 14.4965 13.2701 14.5112 13.3373 14.5124C13.4044 14.5136 13.4711 14.5012 13.5334 14.4761C13.5956 14.4509 13.6522 14.4135 13.6996 14.366C13.7471 14.3185 13.7846 14.262 13.8097 14.1997C13.8349 14.1375 13.8472 14.0708 13.846 14.0036C13.8448 13.9365 13.8301 13.8703 13.8028 13.809C13.7755 13.7476 13.7361 13.6924 13.687 13.6467L7.68695 7.64665Z"
        fill="gray"/>
</svg>

