<svg xmlns="http://www.w3.org/2000/svg" xmlns:xlink="http://www.w3.org/1999/xlink" version="1.1" width="256" height="256" viewBox="0 0 256 256" xml:space="preserve">

<defs>
</defs>
<g style="stroke: none; stroke-width: 0; stroke-dasharray: none; stroke-linecap: butt; stroke-linejoin: miter; stroke-miterlimit: 10; fill: rgb(155,127,233); fill-rule: nonzero; opacity: 1;" transform="translate(1.4065934065934016 1.4065934065934016) scale(2.81 2.81)" >
	<path d="M 71.854 90 H 18.147 c -3.398 0 -6.163 -2.765 -6.163 -6.163 V 11.653 c 0 -1.104 0.896 -2 2 -2 h 62.032 c 1.104 0 2 0.896 2 2 v 72.184 C 78.016 87.235 75.251 90 71.854 90 z M 15.984 13.653 v 70.184 c 0 1.192 0.97 2.163 2.163 2.163 h 53.707 c 1.192 0 2.162 -0.971 2.162 -2.163 V 13.653 H 15.984 z" style="stroke: none; stroke-width: 1; stroke-dasharray: none; stroke-linecap: butt; stroke-linejoin: miter; stroke-miterlimit: 10; fill: rgb(155,127,233); fill-rule: nonzero; opacity: 1;" transform=" matrix(1 0 0 1 0 0) " stroke-linecap="round" />
	<path d="M 82.529 13.653 H 7.471 c -1.104 0 -2 -0.896 -2 -2 s 0.896 -2 2 -2 h 75.059 c 1.104 0 2 0.896 2 2 S 83.634 13.653 82.529 13.653 z" style="stroke: none; stroke-width: 1; stroke-dasharray: none; stroke-linecap: butt; stroke-linejoin: miter; stroke-miterlimit: 10; fill: rgb(155,127,233); fill-rule: nonzero; opacity: 1;" transform=" matrix(1 0 0 1 0 0) " stroke-linecap="round" />
	<path d="M 59.434 13.653 H 30.566 c -1.104 0 -2 -0.896 -2 -2 v -5.49 C 28.566 2.765 31.331 0 34.729 0 h 20.541 c 3.398 0 6.163 2.765 6.163 6.163 v 5.49 C 61.434 12.757 60.538 13.653 59.434 13.653 z M 32.566 9.653 h 24.867 v -3.49 C 57.434 4.97 56.463 4 55.271 4 H 34.729 c -1.193 0 -2.163 0.97 -2.163 2.163 V 9.653 z" style="stroke: none; stroke-width: 1; stroke-dasharray: none; stroke-linecap: butt; stroke-linejoin: miter; stroke-miterlimit: 10; fill: rgb(155,127,233); fill-rule: nonzero; opacity: 1;" transform=" matrix(1 0 0 1 0 0) " stroke-linecap="round" />
	<path d="M 56.02 76.538 c -1.104 0 -2 -0.896 -2 -2 V 25.112 c 0 -1.104 0.896 -2 2 -2 s 2 0.896 2 2 v 49.426 C 58.02 75.643 57.124 76.538 56.02 76.538 z" style="stroke: none; stroke-width: 1; stroke-dasharray: none; stroke-linecap: butt; stroke-linejoin: miter; stroke-miterlimit: 10; fill: rgb(155,127,233); fill-rule: nonzero; opacity: 1;" transform=" matrix(1 0 0 1 0 0) " stroke-linecap="round" />
	<path d="M 33.98 76.538 c -1.104 0 -2 -0.896 -2 -2 V 25.112 c 0 -1.104 0.896 -2 2 -2 s 2 0.896 2 2 v 49.426 C 35.98 75.643 35.085 76.538 33.98 76.538 z" style="stroke: none; stroke-width: 1; stroke-dasharray: none; stroke-linecap: butt; stroke-linejoin: miter; stroke-miterlimit: 10; fill: rgb(155,127,233); fill-rule: nonzero; opacity: 1;" transform=" matrix(1 0 0 1 0 0) " stroke-linecap="round" />
</g>
</svg>