<svg width="16" height="16" viewBox="0 0 16 16" fill="none" xmlns="http://www.w3.org/2000/svg">
<path fill-rule="evenodd" clip-rule="evenodd" d="M8.00001 1.83333C6.36451 1.83333 4.79599 2.48303 3.63952 3.63951C2.48304 4.79598 1.83334 6.3645 1.83334 8C1.83334 9.6355 2.48304 11.204 3.63952 12.3605C4.79599 13.517 6.36451 14.1667 8.00001 14.1667C9.63551 14.1667 11.204 13.517 12.3605 12.3605C13.517 11.204 14.1667 9.6355 14.1667 8C14.1667 6.3645 13.517 4.79598 12.3605 3.63951C11.204 2.48303 9.63551 1.83333 8.00001 1.83333ZM0.833344 8C0.833344 4.042 4.04201 0.833334 8.00001 0.833334C11.958 0.833334 15.1667 4.042 15.1667 8C15.1667 11.958 11.958 15.1667 8.00001 15.1667C4.04201 15.1667 0.833344 11.958 0.833344 8ZM5.50001 6.49533C5.50001 6.27708 5.543 6.06096 5.62652 5.85931C5.71005 5.65767 5.83247 5.47445 5.9868 5.32012C6.29848 5.00844 6.72122 4.83333 7.16201 4.83333H7.50001V4.33333C7.50001 4.20073 7.55269 4.07355 7.64646 3.97978C7.74023 3.88601 7.8674 3.83333 8.00001 3.83333C8.13262 3.83333 8.2598 3.88601 8.35356 3.97978C8.44733 4.07355 8.50001 4.20073 8.50001 4.33333V4.83333H8.66668C9.15291 4.83333 9.61922 5.02649 9.96304 5.37031C10.3069 5.71412 10.5 6.18044 10.5 6.66667C10.5 6.79928 10.4473 6.92645 10.3536 7.02022C10.2598 7.11399 10.1326 7.16667 10 7.16667C9.8674 7.16667 9.74023 7.11399 9.64646 7.02022C9.55269 6.92645 9.50001 6.79928 9.50001 6.66667C9.50001 6.20667 9.12668 5.83333 8.66668 5.83333H8.50001V7.64L9.36334 7.92733C9.73818 8.05178 10.0564 8.30565 10.2611 8.64344C10.4658 8.98123 10.5434 9.38087 10.4802 9.77072C10.417 10.1606 10.217 10.5152 9.91607 10.771C9.61515 11.0268 9.23296 11.1671 8.83801 11.1667H8.50001V11.6667C8.50001 11.7993 8.44733 11.9265 8.35356 12.0202C8.2598 12.114 8.13262 12.1667 8.00001 12.1667C7.8674 12.1667 7.74023 12.114 7.64646 12.0202C7.55269 11.9265 7.50001 11.7993 7.50001 11.6667V11.1667H7.33334C6.84711 11.1667 6.3808 10.9735 6.03698 10.6297C5.69316 10.2859 5.50001 9.81956 5.50001 9.33333C5.50001 9.20073 5.55269 9.07355 5.64646 8.97978C5.74023 8.88601 5.8674 8.83333 6.00001 8.83333C6.13262 8.83333 6.2598 8.88601 6.35356 8.97978C6.44733 9.07355 6.50001 9.20073 6.50001 9.33333C6.50001 9.79333 6.87334 10.1667 7.33334 10.1667H7.50001V8.36L6.63668 8.07267C6.30561 7.96237 6.01766 7.75066 5.81364 7.46755C5.60962 7.18444 5.4999 6.84429 5.50001 6.49533ZM7.50001 7.306V5.83333H7.16201C7.00448 5.83288 6.85195 5.88861 6.73182 5.99052C6.61169 6.09244 6.53185 6.23385 6.50663 6.38935C6.4814 6.54485 6.51246 6.70425 6.59422 6.8389C6.67598 6.97356 6.80308 7.07464 6.95268 7.124L7.49934 7.306H7.50001ZM8.50001 8.694V10.1667H8.83801C8.99554 10.1671 9.14808 10.1114 9.2682 10.0095C9.38833 9.90757 9.46817 9.76616 9.49339 9.61065C9.51862 9.45515 9.48756 9.29576 9.4058 9.1611C9.32404 9.02644 9.19695 8.92536 9.04734 8.876L8.50001 8.694Z" fill="#CCCCE1"/>
</svg>
