<svg width="18" height="18" viewBox="0 0 18 18" fill="none" xmlns="http://www.w3.org/2000/svg">
  <path fill-rule="evenodd" clip-rule="evenodd"
        d="M7.67184 0.875002L7.70127 0.875005H10.2987L10.3282 0.875002C10.5927 0.87497 10.841 0.87494 11.0491 0.898701C11.2809 0.925164 11.5246 0.986346 11.7521 1.15028C11.9795 1.31421 12.1146 1.52604 12.213 1.73757C12.3014 1.9275 12.3799 2.16312 12.4635 2.41405L12.4728 2.44198L12.7838 3.375H14.8333H16.5C16.8452 3.375 17.125 3.65483 17.125 4C17.125 4.34518 16.8452 4.625 16.5 4.625H15.4181L14.9348 11.8742L14.9319 11.918C14.8606 12.987 14.8031 13.8504 14.6681 14.528C14.5277 15.2324 14.2891 15.8208 13.7961 16.282C13.3031 16.7432 12.7001 16.9423 11.9879 17.0354C11.3029 17.125 10.4375 17.125 9.36618 17.125H9.32223H8.67777H8.63382C7.56249 17.125 6.69713 17.125 6.01209 17.0354C5.29988 16.9423 4.69693 16.7432 4.20393 16.282C3.71094 15.8208 3.47225 15.2324 3.33192 14.528C3.19694 13.8504 3.13939 12.987 3.06815 11.918L3.06522 11.8742L2.58195 4.625H1.5C1.15482 4.625 0.875 4.34518 0.875 4C0.875 3.65483 1.15482 3.375 1.5 3.375H3.16667H5.21619L5.5272 2.44198L5.5365 2.41407C5.62011 2.16314 5.69863 1.9275 5.78698 1.73757C5.88539 1.52604 6.02049 1.31421 6.24793 1.15028C6.47537 0.986346 6.71906 0.925164 6.95085 0.898701C7.15898 0.87494 7.40735 0.87497 7.67184 0.875002ZM6.53381 3.375H11.4662L11.2869 2.83727C11.1907 2.5486 11.1343 2.38219 11.0797 2.26482C11.055 2.21186 11.0381 2.18568 11.029 2.17354C11.0248 2.16791 11.0225 2.16552 11.022 2.16502L11.0212 2.16433L11.0203 2.16379C11.0196 2.16347 11.0166 2.16199 11.01 2.15979C10.9956 2.15504 10.9654 2.14726 10.9074 2.14063C10.7787 2.12595 10.603 2.125 10.2987 2.125H7.70127C7.39699 2.125 7.22126 2.12595 7.09264 2.14063C7.03461 2.14726 7.00443 2.15504 6.99004 2.15979C6.98337 2.16199 6.98036 2.16347 6.97972 2.16379L6.97882 2.16433L6.97802 2.16502C6.97751 2.16552 6.97516 2.16791 6.97097 2.17354C6.9619 2.18568 6.94498 2.21186 6.92034 2.26482C6.86574 2.38219 6.80927 2.5486 6.71305 2.83727L6.53381 3.375ZM3.83472 4.625L4.31246 11.791C4.38734 12.9142 4.44069 13.6958 4.55783 14.2838C4.67146 14.8541 4.83007 15.1561 5.05791 15.3692C5.28576 15.5824 5.59756 15.7206 6.17422 15.796C6.76873 15.8738 7.55206 15.875 8.67777 15.875H9.32223C10.4479 15.875 11.2313 15.8738 11.8258 15.796C12.4024 15.7206 12.7142 15.5824 12.9421 15.3692C13.1699 15.1561 13.3285 14.8541 13.4422 14.2838C13.5593 13.6958 13.6127 12.9142 13.6875 11.791L14.1653 4.625H12.3333H5.66667H3.83472ZM7.33333 6.70834C7.67851 6.70834 7.95833 6.98816 7.95833 7.33334V13.1667C7.95833 13.5118 7.67851 13.7917 7.33333 13.7917C6.98816 13.7917 6.70833 13.5118 6.70833 13.1667V7.33334C6.70833 6.98816 6.98816 6.70834 7.33333 6.70834ZM11.2917 7.33334C11.2917 6.98816 11.0118 6.70834 10.6667 6.70834C10.3215 6.70834 10.0417 6.98816 10.0417 7.33334V10.6667C10.0417 11.0118 10.3215 11.2917 10.6667 11.2917C11.0118 11.2917 11.2917 11.0118 11.2917 10.6667V7.33334Z"
        fill="#848496"/>
</svg>

