<svg width="20" height="20" viewBox="0 0 20 20" fill="none" xmlns="http://www.w3.org/2000/svg">
<path fill-rule="evenodd" clip-rule="evenodd" d="M11.2337 4.78917C11.2112 4.70584 11.107 4.67584 11.047 4.73667L4.86702 10.9167L4.82702 10.9567C4.44035 11.3425 4.19202 11.5917 3.99119 11.8792C3.81285 12.1342 3.66619 12.4092 3.55285 12.6983C3.42452 13.025 3.35535 13.37 3.24869 13.905L3.23785 13.9608L2.72119 16.5442C2.70096 16.6451 2.70594 16.7494 2.7357 16.8479C2.76546 16.9463 2.81908 17.036 2.89179 17.1088C2.9645 17.1816 3.05406 17.2353 3.15252 17.2651C3.25098 17.295 3.35528 17.3001 3.45619 17.28L6.03952 16.7633L6.09535 16.7517C6.63035 16.645 6.97619 16.5758 7.30202 16.4475C7.59202 16.3342 7.86619 16.1875 8.12119 16.0092C8.40869 15.8092 8.65785 15.5592 9.04369 15.1742L9.08369 15.1333L15.2637 8.95417C15.3245 8.89334 15.2937 8.78917 15.2112 8.76667C14.2574 8.51112 13.3877 8.00901 12.6895 7.31081C11.9914 6.61261 11.4892 5.74293 11.2337 4.78917ZM15.7995 7.61751C16.1037 7.67001 16.2562 7.69667 16.4495 7.63501C16.6437 7.57334 16.7795 7.43834 17.0495 7.16834L17.1087 7.10834L17.1804 7.03751C17.5645 6.65417 17.862 6.35667 18.0304 6.01751C18.1871 5.70122 18.2686 5.353 18.2686 5.00001C18.2686 4.64702 18.1871 4.2988 18.0304 3.98251C17.862 3.64334 17.5645 3.34667 17.1804 2.96334L17.1087 2.89167L17.0379 2.82001C16.6545 2.43667 16.357 2.13834 16.0179 1.97001C15.7016 1.81328 15.3533 1.73174 15.0004 1.73174C14.6474 1.73174 14.2991 1.81328 13.9829 1.97001C13.6437 2.13834 13.347 2.43667 12.9637 2.82001L12.892 2.89167L12.8329 2.95001C12.562 3.22084 12.427 3.35667 12.3662 3.55001C12.3037 3.74417 12.3304 3.89667 12.3829 4.20167C12.3995 4.29501 12.4187 4.38167 12.4412 4.46584C12.64 5.20757 13.0305 5.88391 13.5735 6.4269C14.1165 6.96988 14.7928 7.36039 15.5345 7.55917C15.6179 7.58167 15.7054 7.60084 15.7995 7.61751Z" fill="white"/>
</svg>

