<svg width="17" height="17" viewBox="0 0 17 17" fill="none" xmlns="http://www.w3.org/2000/svg">
  <path fill-rule="evenodd" clip-rule="evenodd"
        d="M12.5388 2.09001C12.6826 2.01877 12.8408 1.9817 13.0013 1.9817C13.1617 1.9817 13.32 2.01877 13.4638 2.09001C13.5938 2.15501 13.7363 2.28501 14.2263 2.77501C14.7163 3.26501 14.8463 3.40751 14.9113 3.53751C15.0555 3.82917 15.0555 4.17084 14.9113 4.46251C14.8463 4.59251 14.7163 4.73501 14.2263 5.22501L13.5871 5.86417C12.9569 5.80628 12.3668 5.52956 11.9193 5.08204C11.4717 4.63451 11.195 4.04442 11.1371 3.41417L11.7771 2.77501C12.2671 2.28501 12.4088 2.15501 12.5388 2.09001ZM10.093 4.45917L3.75213 10.8C3.31213 11.24 3.14713 11.4083 3.01713 11.5942C2.89547 11.7692 2.79463 11.9567 2.71713 12.1542C2.6338 12.3658 2.5863 12.5958 2.4638 13.2058L2.1313 14.87L3.79547 14.5367C4.40463 14.415 4.63547 14.3667 4.84713 14.2842C5.04463 14.2067 5.23297 14.1058 5.40713 13.9842C5.59297 13.8542 5.7613 13.6892 6.2013 13.2492L12.5413 6.90917C11.9744 6.71248 11.4595 6.38983 11.0353 5.96547C10.6111 5.54112 10.2886 5.02611 10.0921 4.45917H10.093ZM14.0196 0.970007C13.7033 0.813279 13.3551 0.731735 13.0021 0.731735C12.6491 0.731735 12.3009 0.813279 11.9846 0.970007C11.6455 1.13834 11.3488 1.43584 10.9655 1.82001L10.8938 1.89167L2.8688 9.91667L2.8288 9.95667C2.44213 10.3425 2.1938 10.5908 1.99297 10.8792C1.81526 11.1338 1.66814 11.4085 1.55463 11.6975C1.4263 12.0242 1.35713 12.37 1.25047 12.9058L1.23963 12.9608L0.722966 15.5442C0.702895 15.645 0.708002 15.7492 0.737835 15.8476C0.767669 15.946 0.821306 16.0355 0.893996 16.1081C0.966685 16.1808 1.05618 16.2345 1.15456 16.2643C1.25293 16.2941 1.35715 16.2992 1.45797 16.2792L4.0413 15.7625L4.09713 15.7517C4.63213 15.645 4.97796 15.5758 5.3038 15.4475C5.5938 15.3342 5.86797 15.1867 6.12297 15.0092C6.41047 14.8092 6.65963 14.5592 7.04546 14.1733L7.08547 14.1333L15.1105 6.10834L15.1821 6.03667C15.5663 5.65334 15.8638 5.35667 16.0321 5.01751C16.1889 4.70122 16.2704 4.353 16.2704 4.00001C16.2704 3.64702 16.1889 3.2988 16.0321 2.98251C15.8638 2.64334 15.5663 2.34667 15.1821 1.96251L15.1105 1.89167L15.0396 1.82001C14.6563 1.43584 14.3588 1.13834 14.0196 0.970007Z"
        fill="white"/>
</svg>

