<svg width="18" height="18" viewBox="0 0 18 18" fill="none" xmlns="http://www.w3.org/2000/svg">
<path fill-rule="evenodd" clip-rule="evenodd" d="M12.3253 2.12508C11.2328 2.11008 10.2087 2.48092 9.52033 3.51425C9.46325 3.59985 9.38592 3.67003 9.29521 3.71858C9.2045 3.76712 9.10321 3.79252 9.00033 3.79252C8.89744 3.79252 8.79615 3.76712 8.70544 3.71858C8.61473 3.67003 8.5374 3.59985 8.48033 3.51425C7.79533 2.48675 6.75283 2.12508 5.66699 2.12508C3.47783 2.12508 1.29199 3.96258 1.29199 6.50008C1.29199 9.14842 3.00449 11.4917 4.93783 13.2209C5.77935 13.9734 6.69196 14.6424 7.66283 15.2184C8.05783 15.4501 8.39699 15.6234 8.65449 15.7367C8.76714 15.787 8.88261 15.8307 9.00033 15.8676L9.04199 15.8551C9.11533 15.8326 9.21699 15.7934 9.34616 15.7367C9.60366 15.6234 9.94283 15.4501 10.3378 15.2184C11.3087 14.6424 12.2213 13.9734 13.0628 13.2209C14.9962 11.4917 16.7087 9.15008 16.7087 6.50008C16.7087 3.96925 14.5287 2.15758 12.3253 2.12508ZM8.99866 2.17508C9.94033 1.20425 11.1653 0.858417 12.3428 0.875083C15.1387 0.91675 17.9587 3.19925 17.9587 6.50008C17.9587 9.68508 15.9212 12.3417 13.8962 14.1534C12.9929 14.961 12.0133 15.6788 10.9712 16.2968C10.5445 16.5468 10.1612 16.7443 9.84949 16.8818C9.69366 16.9501 9.54949 17.0068 9.42033 17.0484C9.30699 17.0834 9.15366 17.1251 9.00033 17.1251C8.84783 17.1251 8.69366 17.0834 8.58033 17.0476C8.43447 16.9999 8.29121 16.9445 8.15116 16.8818C7.7668 16.7081 7.39259 16.5128 7.03033 16.2968C5.98785 15.6789 5.00796 14.961 4.10449 14.1534C2.07949 12.3417 0.0419922 9.68508 0.0419922 6.50008C0.0419922 3.20592 2.85616 0.875083 5.66699 0.875083C6.81283 0.875083 8.05033 1.20592 8.99866 2.17508Z" fill="white"/>
</svg>
