<svg width="18" height="18" viewBox="0 0 18 18" fill="none" xmlns="http://www.w3.org/2000/svg">
<path fill-rule="evenodd" clip-rule="evenodd" d="M12.3253 2.12501C11.2328 2.11001 10.2087 2.48084 9.52033 3.51417C9.46325 3.59977 9.38592 3.66996 9.29521 3.7185C9.2045 3.76704 9.10321 3.79244 9.00033 3.79244C8.89744 3.79244 8.79615 3.76704 8.70544 3.7185C8.61473 3.66996 8.5374 3.59977 8.48033 3.51417C7.79533 2.48667 6.75283 2.12501 5.66699 2.12501C3.47783 2.12501 1.29199 3.96251 1.29199 6.50001C1.29199 9.14834 3.00449 11.4917 4.93783 13.2208C5.77935 13.9733 6.69196 14.6423 7.66283 15.2183C8.05783 15.45 8.39699 15.6233 8.65449 15.7367C8.76714 15.7869 8.88261 15.8306 9.00033 15.8675L9.04199 15.855C9.11533 15.8325 9.21699 15.7933 9.34616 15.7367C9.60366 15.6233 9.94283 15.45 10.3378 15.2183C11.3087 14.6423 12.2213 13.9733 13.0628 13.2208C14.9962 11.4917 16.7087 9.15001 16.7087 6.50001C16.7087 3.96917 14.5287 2.15751 12.3253 2.12501ZM8.99866 2.17501C9.94033 1.20417 11.1653 0.85834 12.3428 0.875007C15.1387 0.916674 17.9587 3.19917 17.9587 6.50001C17.9587 9.68501 15.9212 12.3417 13.8962 14.1533C12.9929 14.9609 12.0133 15.6787 10.9712 16.2967C10.5445 16.5467 10.1612 16.7442 9.84949 16.8817C9.69366 16.95 9.54949 17.0067 9.42033 17.0483C9.30699 17.0833 9.15366 17.125 9.00033 17.125C8.84783 17.125 8.69366 17.0833 8.58033 17.0475C8.43447 16.9998 8.29121 16.9444 8.15116 16.8817C7.7668 16.708 7.39259 16.5127 7.03033 16.2967C5.98785 15.6788 5.00796 14.961 4.10449 14.1533C2.07949 12.3417 0.0419922 9.68501 0.0419922 6.50001C0.0419922 3.20584 2.85616 0.875007 5.66699 0.875007C6.81283 0.875007 8.05033 1.20584 8.99866 2.17501Z" fill="white"/>
</svg>
