<svg width="20" height="20" viewBox="0 0 20 20" fill="none" xmlns="http://www.w3.org/2000/svg">
<path fill-rule="evenodd" clip-rule="evenodd"
      d="M13.3253 3.12499C12.2328 3.10999 11.2087 3.48082 10.5203 4.51416C10.4632 4.59976 10.3859 4.66994 10.2952 4.71848C10.2045 4.76703 10.1032 4.79242 10.0003 4.79242C9.89744 4.79242 9.79615 4.76703 9.70544 4.71848C9.61473 4.66994 9.5374 4.59976 9.48033 4.51416C8.79533 3.48666 7.75283 3.12499 6.66699 3.12499C4.47783 3.12499 2.29199 4.96249 2.29199 7.49999C2.29199 10.1483 4.00449 12.4917 5.93783 14.2208C6.77935 14.9733 7.69196 15.6423 8.66283 16.2183C9.05783 16.45 9.39699 16.6233 9.65449 16.7367C9.76714 16.7869 9.88261 16.8306 10.0003 16.8675L10.042 16.855C10.1153 16.8325 10.217 16.7933 10.3462 16.7367C10.6037 16.6233 10.9428 16.45 11.3378 16.2183C12.3087 15.6423 13.2213 14.9733 14.0628 14.2208C15.9962 12.4917 17.7087 10.15 17.7087 7.49999C17.7087 4.96916 15.5287 3.15749 13.3253 3.12499ZM9.99866 3.17499C10.9403 2.20416 12.1653 1.85833 13.3428 1.87499C16.1387 1.91666 18.9587 4.19916 18.9587 7.49999C18.9587 10.685 16.9212 13.3417 14.8962 15.1533C13.9929 15.9609 13.0133 16.6787 11.9712 17.2967C11.5445 17.5467 11.1612 17.7442 10.8495 17.8817C10.6937 17.95 10.5495 18.0067 10.4203 18.0483C10.307 18.0833 10.1537 18.125 10.0003 18.125C9.84783 18.125 9.69366 18.0833 9.58033 18.0475C9.43447 17.9998 9.29121 17.9444 9.15116 17.8817C8.7668 17.708 8.39259 17.5127 8.03033 17.2967C6.98785 16.6788 6.00796 15.961 5.10449 15.1533C3.07949 13.3417 1.04199 10.685 1.04199 7.49999C1.04199 4.20582 3.85616 1.87499 6.66699 1.87499C7.81283 1.87499 9.05033 2.20583 9.99866 3.17499Z"
      fill="gray"/>
</svg>

