<svg width="20" height="20" viewBox="0 0 20 20" fill="none" xmlns="http://www.w3.org/2000/svg">
<path fill-rule="evenodd" clip-rule="evenodd" d="M2.29199 10C2.29199 9.718 2.40514 9.24619 2.70308 8.67413C2.9952 8.11327 3.44582 7.49384 4.07008 6.91759C5.31113 5.77201 7.24392 4.79167 10.0003 4.79167C12.7567 4.79167 14.6895 5.77201 15.9306 6.91759C16.5548 7.49384 17.0054 8.11327 17.2976 8.67413C17.5955 9.24619 17.7087 9.718 17.7087 10C17.7087 10.282 17.5955 10.7538 17.2976 11.3259C17.0054 11.8867 16.5548 12.5062 15.9306 13.0824C14.6895 14.228 12.7567 15.2083 10.0003 15.2083C7.24392 15.2083 5.31113 14.228 4.07008 13.0824C3.44582 12.5062 2.9952 11.8867 2.70308 11.3259C2.40514 10.7538 2.29199 10.282 2.29199 10ZM10.0003 3.54167C6.92339 3.54167 4.68952 4.64467 3.22223 5.99909C2.49233 6.67284 1.95337 7.40758 1.59444 8.09671C1.24135 8.77465 1.04199 9.44868 1.04199 10C1.04199 10.5513 1.24135 11.2254 1.59444 11.9033C1.95337 12.5924 2.49233 13.3272 3.22223 14.0009C4.68952 15.3553 6.92339 16.4583 10.0003 16.4583C13.0773 16.4583 15.3111 15.3553 16.7784 14.0009C17.5083 13.3272 18.0473 12.5924 18.4062 11.9033C18.7593 11.2254 18.9587 10.5513 18.9587 10C18.9587 9.44868 18.7593 8.77465 18.4062 8.09671C18.0473 7.40758 17.5083 6.67284 16.7784 5.99909C15.3111 4.64467 13.0773 3.54167 10.0003 3.54167ZM8.12524 10C8.12524 8.96449 8.96471 8.12503 10.0002 8.12503C11.0358 8.12503 11.8752 8.96449 11.8752 10C11.8752 11.0356 11.0358 11.875 10.0002 11.875C8.96471 11.875 8.12524 11.0356 8.12524 10ZM10.0002 6.87503C8.27435 6.87503 6.87524 8.27414 6.87524 10C6.87524 11.7259 8.27435 13.125 10.0002 13.125C11.7261 13.125 13.1252 11.7259 13.1252 10C13.1252 8.27414 11.7261 6.87503 10.0002 6.87503Z" fill="white"/>
</svg>

