<svg width="20" height="20" viewBox="0 0 20 20" fill="none" xmlns="http://www.w3.org/2000/svg">
  <path fill-rule="evenodd" clip-rule="evenodd"
        d="M13.342 1.87501C12.1653 1.85834 10.9403 2.20417 9.99866 3.17501C9.05033 2.20584 7.81283 1.87501 6.66699 1.87501C3.85616 1.87501 1.04199 4.20667 1.04199 7.50001C1.04199 10.685 3.07949 13.3417 5.10449 15.1533C6.00769 15.9609 6.98731 16.6788 8.02949 17.2967C8.45616 17.5467 8.83949 17.7442 9.15116 17.8817C9.30699 17.95 9.45116 18.0067 9.58033 18.0475C9.69366 18.0833 9.84699 18.125 10.0003 18.125C10.1528 18.125 10.307 18.0833 10.4203 18.0475C10.5487 18.0067 10.6937 17.95 10.8495 17.8817C11.1612 17.7442 11.5445 17.5467 11.9703 17.2967C13.0128 16.6788 13.9927 15.961 14.8962 15.1533C16.9212 13.3417 18.9587 10.685 18.9587 7.50001C18.9587 4.19834 16.1387 1.91667 13.342 1.87501Z"
        fill="#5F33DD"/>
</svg>

