<svg width="20" height="20" viewBox="0 0 20 20" fill="none" xmlns="http://www.w3.org/2000/svg">
<path fill-rule="evenodd" clip-rule="evenodd" d="M1.875 5C1.875 4.83424 1.94085 4.67527 2.05806 4.55806C2.17527 4.44085 2.33424 4.375 2.5 4.375H17.5C17.6658 4.375 17.8247 4.44085 17.9419 4.55806C18.0592 4.67527 18.125 4.83424 18.125 5C18.125 5.16576 18.0592 5.32473 17.9419 5.44194C17.8247 5.55915 17.6658 5.625 17.5 5.625H2.5C2.33424 5.625 2.17527 5.55915 2.05806 5.44194C1.94085 5.32473 1.875 5.16576 1.875 5ZM4.375 10C4.375 9.83424 4.44085 9.67527 4.55806 9.55806C4.67527 9.44085 4.83424 9.375 5 9.375H15C15.1658 9.375 15.3247 9.44085 15.4419 9.55806C15.5592 9.67527 15.625 9.83424 15.625 10C15.625 10.1658 15.5592 10.3247 15.4419 10.4419C15.3247 10.5592 15.1658 10.625 15 10.625H5C4.83424 10.625 4.67527 10.5592 4.55806 10.4419C4.44085 10.3247 4.375 10.1658 4.375 10ZM8.33333 14.375C8.16757 14.375 8.0086 14.4408 7.89139 14.5581C7.77418 14.6753 7.70833 14.8342 7.70833 15C7.70833 15.1658 7.77418 15.3247 7.89139 15.4419C8.0086 15.5592 8.16757 15.625 8.33333 15.625H11.6667C11.8324 15.625 11.9914 15.5592 12.1086 15.4419C12.2258 15.3247 12.2917 15.1658 12.2917 15C12.2917 14.8342 12.2258 14.6753 12.1086 14.5581C11.9914 14.4408 11.8324 14.375 11.6667 14.375H8.33333Z" fill="#6E3EF7"/>
</svg>

