<svg width="107" height="32" viewBox="0 0 107 32" fill="none" xmlns="http://www.w3.org/2000/svg">
<path d="M48.3768 11.6069H46.4277C46.2963 11.6069 46.1868 11.7164 46.1868 11.8478V16.8409C46.1868 17.6512 45.8583 18.0892 45.1138 18.0892C44.3692 18.0892 44.0407 17.6512 44.0407 16.8409V11.8478C44.0407 11.7164 43.9531 11.6069 43.7998 11.6069H41.8288C41.6974 11.6069 41.5879 11.7164 41.5879 11.8478V17.3227C41.5879 19.009 42.8143 20.3887 45.0919 20.3887C47.3913 20.3887 48.6396 19.0309 48.6396 17.3227V11.8478C48.6396 11.7164 48.5301 11.6069 48.3768 11.6069Z" fill="#0D389E"/>
<path d="M62.5245 15.2203L61.101 14.7385C60.6849 14.5852 60.6411 14.3662 60.6411 14.2129C60.6411 13.9939 60.8601 13.7749 61.2762 13.7749C61.7361 13.7749 62.3931 13.9063 63.0282 14.3881C63.1158 14.4538 63.2472 14.4538 63.3129 14.3662L64.4079 12.9866C64.4736 12.899 64.4736 12.7676 64.386 12.68C63.4443 11.8916 62.3055 11.6069 61.2543 11.6069C59.2177 11.6069 57.9913 12.8771 57.9913 14.2567C57.9913 15.3298 58.6264 16.3372 59.9622 16.7752L61.2105 17.2132C61.8237 17.4322 61.9332 17.5855 61.9332 17.8483C61.9332 18.0892 61.6923 18.352 61.1886 18.352C60.4878 18.352 59.6776 17.9359 59.1301 17.476C59.0425 17.4103 58.9111 17.4103 58.8454 17.4979L57.7285 18.9871C57.6628 19.0747 57.6628 19.2061 57.7504 19.2937C58.5607 19.9945 59.7651 20.5201 61.2981 20.5201C63.2034 20.5201 64.605 19.4032 64.605 17.7388C64.605 16.5781 63.8823 15.6802 62.5245 15.2203Z" fill="#0D389E"/>
<path d="M53.589 15.2641H52.3188V13.775H53.589C54.3117 13.775 54.5745 14.1034 54.5745 14.5195C54.5745 14.9356 54.2898 15.2641 53.589 15.2641ZM55.5162 16.9942C56.5674 16.4686 57.093 15.6802 57.093 14.4757C57.093 12.9647 55.8666 11.6069 53.7861 11.6069H50.0413C49.9099 11.6069 49.8223 11.7383 49.8223 11.8478V19.9945C49.8223 20.1259 49.9318 20.2135 50.0413 20.2135H52.056C52.1874 20.2135 52.275 20.104 52.275 19.9945V17.3665H53.0634L54.4869 20.0164C54.5526 20.1259 54.684 20.2135 54.8154 20.2135H57.1368C57.2682 20.2135 57.312 20.1259 57.2463 20.0164L55.5162 16.9942Z" fill="#0D389E"/>
<path d="M31.0968 11.6069H25.2495C25.0743 11.6069 24.9648 11.7383 24.9648 11.8697V19.9726C24.9648 20.104 25.0743 20.2135 25.2057 20.2135H27.1767C27.3081 20.2135 27.3957 20.0821 27.3957 19.9726V17.3446H29.8923C30.0237 17.3446 30.1332 17.257 30.1551 17.1256L30.5274 15.3298C30.5493 15.2203 30.5055 15.1108 30.3522 15.1108H27.4176V13.7969H30.7245C30.8559 13.7969 30.9654 13.7093 30.9873 13.5779L31.3377 11.8916C31.3596 11.7602 31.272 11.6069 31.0968 11.6069Z" fill="#0D389E"/>
<path d="M105.951 13.7969C106.082 13.7969 106.192 13.7093 106.214 13.5779L106.564 11.8916C106.586 11.7383 106.564 11.6069 106.345 11.6069H100.454C100.279 11.6069 100.191 11.7383 100.191 11.8697V19.9726C100.191 20.104 100.301 20.2135 100.432 20.2135H105.798C105.929 20.2135 106.039 20.1259 106.061 19.9945L106.411 18.3082C106.433 18.1549 106.411 18.0235 106.192 18.0235H102.622V17.038H105.119C105.25 17.038 105.36 16.9504 105.382 16.819L105.754 15.0232C105.776 14.9137 105.732 14.8042 105.579 14.8042H102.622V13.8188H105.951V13.7969Z" fill="#0D389E"/>
<path d="M86.7666 16.4905H85.9782L86.7666 13.8626L87.5549 16.4905H86.7666ZM88.3871 11.804C88.3652 11.6945 88.2338 11.6069 88.1243 11.6069H85.4307C85.3212 11.6069 85.1898 11.6945 85.1679 11.804L82.6932 20.0164C82.6494 20.1259 82.7151 20.2354 82.8465 20.2354H85.0584C85.1679 20.2354 85.2993 20.1259 85.3212 20.0164L85.6716 18.7681H87.8834L88.2557 20.0164C88.2776 20.1259 88.409 20.2354 88.5185 20.2354H90.7085C90.818 20.2354 90.8837 20.1259 90.8618 20.0164L88.3871 11.804Z" fill="#0D389E"/>
<path d="M82.0151 11.6069H80.066C79.9346 11.6069 79.8251 11.7164 79.8251 11.8478V16.8409C79.8251 17.6512 79.4966 18.0892 78.752 18.0892C78.0074 18.0892 77.6789 17.6512 77.6789 16.8409V11.8478C77.6789 11.7164 77.5913 11.6069 77.438 11.6069H75.4889C75.3575 11.6069 75.248 11.7164 75.248 11.8478V17.3227C75.248 19.009 76.4744 20.3887 78.752 20.3887C81.0515 20.3887 82.2998 19.0309 82.2998 17.3227V11.8478C82.256 11.7164 82.1465 11.6069 82.0151 11.6069Z" fill="#0D389E"/>
<path d="M95.4836 15.2641H94.2134V13.775H95.4836C96.1844 13.775 96.4691 14.1034 96.4691 14.5195C96.4691 14.9356 96.1844 15.2641 95.4836 15.2641ZM97.4107 16.9942C98.4619 16.4686 98.9875 15.6802 98.9875 14.4757C98.9875 12.9647 97.7611 11.6069 95.6807 11.6069H91.9358C91.8044 11.6069 91.7168 11.7383 91.7168 11.8478V19.9945C91.7168 20.1259 91.8263 20.2135 91.9358 20.2135H93.9506C94.082 20.2135 94.1696 20.104 94.1696 19.9945V17.3665H94.958L96.3815 20.0164C96.4472 20.1259 96.5786 20.2135 96.71 20.2135H99.0313C99.1627 20.2135 99.2065 20.1259 99.1408 20.0164L97.4107 16.9942Z" fill="#0D389E"/>
<path d="M69.7069 17.555C68.59 17.555 67.8235 16.5695 67.8235 15.365C67.8235 14.1605 68.59 13.175 69.7069 13.175C70.8238 13.175 71.5903 14.1605 71.5903 15.365C71.5903 16.5914 70.8238 17.555 69.7069 17.555ZM74.1744 18.6062C73.8897 18.7157 73.386 18.8471 72.7947 18.7157C72.8823 18.6281 72.9699 18.5624 73.0575 18.4748C74.2182 17.2484 74.5467 15.4088 73.9773 13.832C73.386 12.2114 71.8312 11.0945 70.1011 10.9631C68.3491 10.8317 66.5752 11.6858 65.743 13.1969C64.867 14.7956 65.0203 16.898 66.2248 18.2996C67.2541 19.504 68.8966 20.0077 70.4077 19.7887C70.4296 19.8106 70.4515 19.8325 70.4734 19.8544C71.3275 20.6428 72.6852 21.1027 73.8678 21.1027L74.3496 18.7375C74.3496 18.65 74.2839 18.5624 74.1744 18.6062Z" fill="#0D389E"/>
<path d="M36.0682 18.2338C34.9513 18.2338 34.1848 17.2484 34.1848 16.0439C34.1848 14.8394 34.9513 13.8539 36.0682 13.8539C37.1851 13.8539 37.9516 14.8394 37.9516 16.0439C37.9735 17.2703 37.207 18.2338 36.0682 18.2338ZM36.4624 11.6201C34.7104 11.4887 32.9365 12.3428 32.1043 13.8539C31.2284 15.4526 31.3816 17.555 32.5861 18.9565C34.2943 20.9494 37.6231 21.0151 39.4189 19.1317C40.5796 17.9053 40.9081 16.0658 40.3387 14.489C39.7474 12.8684 38.1925 11.7734 36.4624 11.6201Z" fill="#0D389E"/>
<path d="M19.0966 4.62085L18.3301 8.32192C18.2425 8.71611 17.8702 9.06651 17.4103 9.06651H10.7528C10.0082 9.06651 9.39501 9.6797 9.39501 10.4243V11.2346C9.39501 11.9792 10.0082 12.5924 10.7528 12.5924H16.381C16.9066 12.5924 17.3446 13.0961 17.2351 13.6436C17.1256 14.213 16.5343 17.1037 16.4686 17.4103C16.4248 17.7388 16.0744 18.1549 15.5488 18.1549H10.9499C9.9863 18.1768 9.7892 18.1987 9.21981 18.8995C8.65041 19.6003 3.61346 25.9074 3.61346 25.9074C3.56966 25.9731 3.52586 25.9512 3.52586 25.8855V4.44565C3.52586 3.94196 3.94196 3.52586 4.44565 3.52586H18.2644C18.7462 3.52586 19.228 4.00766 19.0966 4.62085ZM20.104 0C20.104 0 5.40925 0 3.04407 0C0.700793 0 0 1.77388 0 2.89077V30.0027C0 31.3386 0.678893 31.7328 1.05119 31.8861C1.42349 32.0394 2.40898 32.1489 3.10977 31.4481C3.10977 31.4481 11.2127 22.0093 11.3441 21.856C11.4755 21.7027 11.5412 21.7027 11.6288 21.7027C11.7164 21.7027 15.067 21.7027 16.7533 21.7027C18.9433 21.7027 19.3594 20.1916 19.6003 19.2718C19.7974 18.5053 22.0531 7.55542 22.7539 4.09526C23.2795 1.42349 22.6006 0 20.104 0Z" fill="#FA4778"/>
</svg>
