<svg width="215" height="40" viewBox="0 0 215 40" fill="none" xmlns="http://www.w3.org/2000/svg">
<path fill-rule="evenodd" clip-rule="evenodd" d="M18.0788 2.48617C17.2851 2.40817 16.4822 2.54658 15.7593 2.88601C14.6845 3.3935 14.0535 4.41938 13.5562 5.57588C13.0594 6.7356 12.5841 8.32126 11.9906 10.2925L11.9678 10.3708L13.1265 10.7246L11.9678 10.3708L11.9172 10.5365C11.5638 11.7095 11.4556 12.019 11.2873 12.2545C11.155 12.4409 10.9907 12.6031 10.8031 12.7346C10.5673 12.9008 10.259 13.0068 9.08998 13.3455L9.02283 13.3653C7.17865 13.8997 5.70336 14.3275 4.61471 14.763C3.54013 15.1945 2.5675 15.7339 2.02218 16.6558C1.42661 17.6634 1.2469 18.8661 1.52165 20.0057C1.77425 21.0494 2.54502 21.8519 3.44623 22.5822C4.35916 23.3238 5.64242 24.1701 7.25021 25.2281L7.30937 25.2675L7.56783 25.4377C8.69387 26.1789 8.986 26.3929 9.1712 26.6436C9.35267 26.8916 9.47477 27.1762 9.53265 27.4786C9.58947 27.7844 9.5477 28.1469 9.32164 29.4813L9.31155 29.5475C8.97976 31.5149 8.71826 33.0753 8.62447 34.2713C8.53215 35.4373 8.56879 36.5613 9.11433 37.4472C9.47708 38.0339 9.96969 38.5281 10.5536 38.891C11.1375 39.2539 11.7968 39.4757 12.4799 39.539C13.5113 39.6355 14.5233 39.1637 15.5174 38.5577C16.5367 37.9358 17.8029 37.0004 19.398 35.8199L19.4523 35.7825L20.3919 35.0868C21.4307 34.3194 21.7151 34.1299 22.0118 34.0424C22.1571 34 22.3067 33.9742 22.4578 33.9656C22.7665 33.9487 23.0971 34.0322 24.3301 34.4079L25.4456 34.7494L25.5079 34.7684C27.403 35.3456 28.906 35.8053 30.0722 36.0488C31.2096 36.2873 32.3197 36.3934 33.2606 35.9569C33.8837 35.6682 34.4321 35.2382 34.8628 34.7004C35.2935 34.1626 35.5949 33.5317 35.7433 32.8569C35.9175 32.0668 35.7512 31.261 35.4745 30.4808C35.1932 29.6932 34.7427 28.7777 34.1724 27.7077C34.0995 27.5623 33.9984 27.4331 33.8752 27.3276C33.752 27.2222 33.609 27.1426 33.4548 27.0937C33.3006 27.0447 33.1383 27.0273 32.9773 27.0426C32.8163 27.0578 32.66 27.1053 32.5175 27.1823C32.3751 27.2594 32.2493 27.3643 32.1477 27.4911C32.0461 27.6178 31.9707 27.7638 31.9259 27.9203C31.8811 28.0769 31.8678 28.2409 31.8869 28.4026C31.9059 28.5644 31.9569 28.7208 32.0367 28.8624C32.6006 29.9236 32.9772 30.7031 33.1928 31.307C33.4115 31.9188 33.4052 32.2008 33.3776 32.3278C33.2404 32.9496 32.8223 33.4712 32.2476 33.7371C32.0758 33.8163 31.6546 33.8856 30.5648 33.6571C29.5191 33.4374 28.1204 33.0126 26.1489 32.4105L25.0333 32.0691L24.862 32.016C23.8848 31.7168 23.1135 31.4813 22.3194 31.5273C21.9882 31.5464 21.6568 31.6035 21.3365 31.6967C20.574 31.919 19.9243 32.3995 19.0999 33.0109L18.9574 33.1181L18.0176 33.8122C16.3568 35.0404 15.1778 35.9095 14.264 36.4669C13.3114 37.0476 12.8917 37.1249 12.7032 37.1061C12.3926 37.0775 12.0927 36.9767 11.8272 36.8118C11.5617 36.6469 11.3376 36.4222 11.1727 36.1554C11.0729 35.9925 10.9539 35.5817 11.0411 34.4628C11.1246 33.3893 11.3669 31.938 11.7129 29.8904L11.7451 29.7031C11.9234 28.6478 12.0647 27.8187 11.9136 27.0252C11.7898 26.3612 11.5186 25.734 11.1202 25.1906C10.6426 24.5409 9.94315 24.0814 9.05373 23.4978L8.89492 23.3929L8.63619 23.2211C6.95646 22.116 5.77444 21.3348 4.96657 20.6809C4.13548 20.0062 3.92852 19.6371 3.87849 19.4292C3.75331 18.9112 3.83477 18.3644 4.10535 17.9062C4.2151 17.722 4.51998 17.4315 5.5118 17.0342C6.47577 16.6466 7.83216 16.2525 9.76074 15.6937L9.92315 15.6459C10.8502 15.3786 11.58 15.1669 12.1896 14.7396C12.6019 14.4497 12.9625 14.0914 13.2559 13.68C13.6889 13.0716 13.909 12.3397 14.1888 11.409C14.2043 11.3551 14.2194 11.2996 14.2381 11.2452L13.1659 10.9178L14.2381 11.2452L14.2871 11.0798C14.9099 9.01096 15.3462 7.56257 15.7835 6.5453C16.2261 5.51059 16.5537 5.20955 16.7844 5.10038C17.1138 4.94498 17.4788 4.88208 17.8407 4.91831C18.0959 4.94372 18.5042 5.11789 19.2629 5.94553C20.0108 6.7585 20.8998 7.9768 22.1698 9.72097L22.2706 9.86059L22.3711 9.99859C22.942 10.7826 23.391 11.3992 23.9999 11.828C24.4124 12.1178 24.8706 12.3349 25.3551 12.4702C26.071 12.669 26.8292 12.6242 27.7916 12.5658L27.9605 12.5565C29.9638 12.4375 31.3731 12.3549 32.4101 12.3976C33.4765 12.4401 33.8596 12.6104 34.0239 12.7473C34.4307 13.0891 34.688 13.5782 34.7404 14.1093C34.7618 14.3221 34.6884 14.7396 34.1268 15.6527C33.5808 16.5417 32.7236 17.6743 31.5054 19.2789L31.3162 19.5264L32.2786 20.2693L31.3162 19.5264C30.7642 20.2544 30.3212 20.9967 30.0894 21.4085C30.008 21.5479 29.9549 21.7023 29.9331 21.8627C29.9114 22.023 29.9215 22.1861 29.9629 22.3424C30.0042 22.4988 30.0759 22.6453 30.1739 22.7735C30.2719 22.9017 30.3942 23.009 30.5337 23.0891C30.6732 23.1693 30.8271 23.2207 30.9865 23.2404C31.1459 23.2602 31.3075 23.2478 31.4621 23.204C31.6167 23.1602 31.7611 23.0859 31.887 22.9854C32.0128 22.8849 32.1176 22.7602 32.1953 22.6186C32.5092 22.0611 32.8585 21.5245 33.241 21.0123L33.4302 20.7649L32.4678 20.0219L33.4302 20.7649L33.473 20.7079C34.6385 19.1702 35.5716 17.9435 36.1883 16.9399C36.7971 15.9476 37.2594 14.9326 37.1537 13.8652C37.0368 12.6976 36.4699 11.6229 35.5749 10.8721C34.7565 10.1853 33.6613 10.0023 32.5055 9.95533C31.3335 9.90949 29.8042 9.9996 27.887 10.1136L27.8171 10.1174C26.6028 10.1895 26.2771 10.1928 26.0002 10.1166C25.7801 10.055 25.5721 9.95618 25.3849 9.82445C25.1485 9.65864 24.9447 9.4046 24.2241 8.41505L24.1217 8.27572L24.0744 8.20951C22.8643 6.54755 21.8935 5.21446 21.0425 4.28707C20.1915 3.35967 19.2583 2.60508 18.0772 2.48644L18.0788 2.48617Z" fill="#6E3EF7"/>
<path opacity="0.2" fill-rule="evenodd" clip-rule="evenodd" d="M20.8125 1.55789C20.0317 1.394 19.2187 1.44424 18.4636 1.70304C17.3408 2.09064 16.6036 3.04187 15.9853 4.13752C15.3672 5.23642 14.7248 6.7611 13.9236 8.65623L13.8926 8.73158L15.0066 9.20941L13.8926 8.73158L13.8245 8.89081C13.3474 10.0185 13.2068 10.3144 13.0142 10.5303C12.8627 10.7012 12.682 10.8446 12.4814 10.9549C12.2292 11.0945 11.9113 11.1663 10.7129 11.3758L10.644 11.3883C8.75333 11.7189 7.24083 11.9837 6.11189 12.2982C4.99737 12.6102 3.97265 13.0407 3.33174 13.8979C2.63173 14.8347 2.32423 16.0109 2.4753 17.1737C2.6146 18.2389 3.29491 19.1205 4.11261 19.9446C4.94077 20.7811 6.12587 21.7621 7.61093 22.9888L7.66551 23.0344L7.90423 23.2318C8.94429 24.0912 9.21178 24.3357 9.36905 24.6051C9.52289 24.8713 9.61379 25.1676 9.63894 25.4745C9.66267 25.7847 9.58231 26.1405 9.21462 27.4426L9.1975 27.5073C8.65689 29.4271 8.22976 30.9499 8.0084 32.1287C7.79171 33.2779 7.70773 34.3993 8.15518 35.3393C8.45295 35.9621 8.88974 36.507 9.43135 36.9313C9.97295 37.3556 10.6047 37.6478 11.277 37.7851C12.292 37.9932 13.3486 37.6342 14.4019 37.1399C15.4818 36.6326 16.8408 35.8404 18.5531 34.8403L18.6111 34.809L19.6197 34.2196C20.7347 33.5698 21.0376 33.4123 21.342 33.3576C21.491 33.3312 21.6425 33.3218 21.7937 33.3297C22.1024 33.3465 22.4221 33.4655 23.6076 33.9732L24.68 34.434L24.7399 34.4596C26.5621 35.2397 28.007 35.8602 29.1403 36.2292C30.2456 36.59 31.3378 36.8163 32.32 36.4847C32.9704 36.2655 33.5616 35.8976 34.0474 35.4098C34.5332 34.922 34.9004 34.3276 35.1203 33.6729C35.3781 32.9064 35.2991 32.0872 35.1076 31.2814C34.9123 30.4678 34.5625 29.5087 34.1102 28.3829C34.0533 28.2304 33.9666 28.0909 33.8554 27.9727C33.7442 27.8544 33.6106 27.7598 33.4625 27.6944C33.3145 27.6289 33.1549 27.594 32.9933 27.5916C32.8316 27.5892 32.6711 27.6195 32.5212 27.6806C32.3713 27.7416 32.2351 27.8323 32.1205 27.9473C32.0059 28.0622 31.9153 28.1991 31.854 28.3498C31.7927 28.5006 31.7619 28.6622 31.7635 28.8251C31.7651 28.988 31.799 29.149 31.8633 29.2985C32.3101 30.4148 32.601 31.2307 32.7507 31.8546C32.9025 32.4866 32.8661 32.7662 32.825 32.8895C32.6221 33.4928 32.1505 33.9658 31.5507 34.1677C31.3714 34.2277 30.9453 34.2508 29.8863 33.905C28.8702 33.5729 27.5252 32.9984 25.6298 32.1853L24.5573 31.7245L24.3926 31.6531C23.4532 31.2494 22.7116 30.9313 21.9173 30.8906C21.5859 30.8736 21.2504 30.8943 20.9219 30.9521C20.1401 31.0902 19.4427 31.4972 18.5577 32.0153L18.4045 32.1064L17.3958 32.6942C15.6132 33.7345 14.3479 34.4703 13.3797 34.9251C12.3706 35.3986 11.945 35.4298 11.7596 35.3907C11.4539 35.3284 11.1666 35.1957 10.9203 35.0028C10.6739 34.8099 10.4753 34.5622 10.3399 34.279C10.2581 34.1062 10.1839 33.6849 10.3904 32.582C10.5884 31.5238 10.9847 30.1073 11.5481 28.1094L11.6001 27.9267C11.8905 26.897 12.1198 26.0881 12.0546 25.2828C12.0026 24.6092 11.8002 23.9561 11.4623 23.3726C11.0571 22.6747 10.411 22.1418 9.58927 21.4648L9.44261 21.3433L9.2038 21.1443C7.65227 19.8629 6.56085 18.9578 5.82774 18.2198C5.07379 17.4586 4.90759 17.0691 4.88011 16.857C4.81116 16.3284 4.95072 15.7936 5.26879 15.3676C5.39764 15.1965 5.73185 14.9408 6.76044 14.6537C7.76029 14.3732 9.15098 14.129 11.1282 13.7833L11.2947 13.7534C12.245 13.5886 12.9932 13.4575 13.645 13.099C14.086 12.8557 14.4828 12.5387 14.8186 12.1616C15.3142 11.6039 15.6114 10.9002 15.9893 10.0054C16.0105 9.9535 16.0315 9.89998 16.0559 9.84789L15.025 9.40572L16.0559 9.84789L16.1223 9.68876C16.9631 7.6998 17.552 6.30734 18.0957 5.34358C18.6466 4.36307 19.0046 4.09944 19.2456 4.016C19.5897 3.89735 19.9593 3.87452 20.3152 3.94991C20.5662 4.00293 20.9535 4.22051 21.619 5.12586C22.2755 6.01544 23.0288 7.32333 24.1045 9.19548L24.1898 9.34524L24.2749 9.49337C24.7584 10.3349 25.1388 10.9968 25.6982 11.4893C26.0772 11.8222 26.5095 12.088 26.9767 12.2752C27.6671 12.5507 28.4256 12.5887 29.3887 12.6352L29.5577 12.6444C31.562 12.7441 32.9718 12.8152 33.9982 12.9705C35.0539 13.1288 35.4165 13.3398 35.5651 13.4938C35.9329 13.8778 36.1363 14.3921 36.1316 14.9258C36.13 15.1397 36.0123 15.5467 35.3562 16.3934C34.7181 17.2178 33.7446 18.2505 32.3617 19.7132L32.1471 19.9386L33.0243 20.782L32.1471 19.9386C31.5203 20.6024 31.0004 21.2921 30.7258 21.6763C30.6299 21.8061 30.5606 21.9538 30.5218 22.1108C30.483 22.2678 30.4756 22.431 30.5 22.591C30.5243 22.7509 30.5799 22.9044 30.6636 23.0425C30.7473 23.1806 30.8574 23.3006 30.9875 23.3954C31.1176 23.4903 31.2651 23.5582 31.4214 23.5951C31.5777 23.6321 31.7398 23.6373 31.8982 23.6106C32.0565 23.5839 32.2081 23.5258 32.344 23.4396C32.4799 23.3534 32.5974 23.2408 32.6897 23.1084C33.0616 22.5883 33.4663 22.0929 33.9014 21.6253L34.116 21.3999L33.2389 20.5566L34.116 21.3999L34.1647 21.3479C35.4881 19.9459 36.5471 18.828 37.2678 17.8973C37.9793 16.9771 38.5477 16.0183 38.5569 14.9456C38.5658 13.7721 38.1173 12.642 37.308 11.7983C36.5679 11.0264 35.4987 10.7254 34.3547 10.5529C33.1945 10.3798 31.6644 10.303 29.7462 10.2078L29.6764 10.204C28.4615 10.1436 28.1373 10.1114 27.8701 10.0055C27.658 9.92031 27.4617 9.79946 27.2897 9.64812C27.0725 9.45757 26.897 9.18283 26.2867 8.12068L26.1999 7.97102L26.1599 7.90006C25.1349 6.11616 24.3126 4.68525 23.5659 3.67069C22.8192 2.65613 21.9723 1.80443 20.8109 1.55799L20.8125 1.55789Z" fill="#6E3EF7"/>
<path fill-rule="evenodd" clip-rule="evenodd" d="M16.4236 24.4844C16.2243 24.2924 15.9585 24.1885 15.6846 24.1957C15.4108 24.2028 15.1514 24.3205 14.9634 24.5227C14.7754 24.7249 14.6743 24.9952 14.6824 25.274C14.6904 25.5528 14.8069 25.8174 15.0062 26.0094C15.9002 26.8722 16.9787 27.5115 18.1562 27.8767C19.3336 28.2419 20.5774 28.3228 21.7889 28.1131C23.0007 27.9051 24.1472 27.4121 25.1372 26.6733C26.1272 25.9345 26.9336 24.9703 27.4922 23.8571C27.5539 23.7344 27.5912 23.6004 27.602 23.4627C27.6128 23.3251 27.5969 23.1866 27.5551 23.055C27.5133 22.9235 27.4465 22.8015 27.3585 22.6961C27.2705 22.5907 27.163 22.5039 27.0422 22.4406C26.9214 22.3773 26.7897 22.3389 26.6544 22.3274C26.5192 22.3159 26.3832 22.3317 26.2541 22.3737C26.1251 22.4158 26.0055 22.4834 25.9023 22.5726C25.799 22.6618 25.7141 22.7709 25.6524 22.8936C25.2396 23.7164 24.6436 24.4292 23.9119 24.9753C23.1801 25.5214 22.3327 25.8857 21.4369 26.0393C20.5415 26.1944 19.6221 26.1347 18.7518 25.8648C17.8815 25.5948 17.0843 25.1222 16.4236 24.4844ZM17.256 17.8665C17.3182 18.2331 17.2349 18.6094 17.0244 18.9126C16.8139 19.2157 16.4934 19.4209 16.1334 19.4829C15.7735 19.545 15.4036 19.4588 15.105 19.2434C14.8065 19.028 14.6038 18.701 14.5416 18.3343C14.4794 17.9677 14.5627 17.5914 14.7732 17.2882C14.9837 16.9851 15.3042 16.7799 15.6641 16.7179C16.0241 16.6558 16.394 16.742 16.6925 16.9574C16.991 17.1728 17.1937 17.4998 17.256 17.8665ZM24.2765 18.0793C24.6364 18.0172 24.9569 17.812 25.1674 17.5089C25.3779 17.2058 25.4612 16.8295 25.399 16.4628C25.3368 16.0961 25.1341 15.7691 24.8356 15.5537C24.537 15.3383 24.1671 15.2522 23.8072 15.3142C23.4472 15.3763 23.1267 15.5814 22.9162 15.8846C22.7057 16.1877 22.6224 16.564 22.6847 16.9307C22.7469 17.2973 22.9496 17.6243 23.2481 17.8397C23.5466 18.0551 23.9165 18.1413 24.2765 18.0793Z" fill="#6E3EF7"/>
<path d="M48.3637 30.9375C47.7828 30.9375 47.2623 30.9132 46.8023 30.8645C46.3424 30.8158 46.0398 30.7792 45.8945 30.7549V29.6228C46.0156 29.6472 46.2577 29.6715 46.6208 29.6958C46.9839 29.7445 47.2865 29.7689 47.5286 29.7689C48.2548 29.7689 48.7027 29.5863 48.8721 29.2211C49.0416 28.8559 49.1263 28.1864 49.1263 27.2125V14.1387C49.1263 13.8709 49.1505 13.6639 49.1989 13.5178C49.2473 13.3474 49.3442 13.2379 49.4894 13.1892C49.6347 13.1161 49.8525 13.0796 50.143 13.0796H51.6681V27.3586C51.6681 28.2351 51.5834 28.9289 51.4139 29.4402C51.2445 29.9758 50.9177 30.3532 50.4335 30.5723C49.9736 30.8158 49.2836 30.9375 48.3637 30.9375ZM50.4698 10.9615C50.0583 10.9615 49.7315 10.9006 49.4894 10.7789C49.2473 10.6572 49.1263 10.4015 49.1263 10.012C49.1263 9.62246 49.2352 9.36683 49.4531 9.2451C49.6952 9.12337 50.022 9.0625 50.4335 9.0625C50.8935 9.0625 51.2324 9.12337 51.4503 9.2451C51.6681 9.36683 51.765 9.62246 51.7407 10.012C51.7407 10.4015 51.6318 10.6572 51.4139 10.7789C51.1961 10.9006 50.8814 10.9615 50.4698 10.9615Z" fill="#00000A"/>
<path d="M58.1802 13.0796V22.9763C58.1802 24.1936 58.5191 25.0579 59.1969 25.5692C59.8989 26.0561 60.9641 26.2996 62.3923 26.2996C63.9174 26.2996 65.0068 26.0439 65.6604 25.5327C66.3382 24.997 66.6771 24.1449 66.6771 22.9763V13.0796C66.7013 13.0796 66.774 13.0796 66.895 13.0796C67.0403 13.0796 67.1855 13.0796 67.3307 13.0796C67.5002 13.0796 67.6576 13.0796 67.8028 13.0796C67.9481 13.0796 68.0449 13.0796 68.0933 13.0796C68.3838 13.0796 68.6138 13.104 68.7832 13.1526C68.9527 13.177 69.0616 13.2622 69.11 13.4083C69.1827 13.5544 69.219 13.7978 69.219 14.1387V22.5016C69.219 23.7189 69.0374 24.7292 68.6743 25.5327C68.3112 26.3117 67.6333 26.896 66.6408 27.2856C65.6483 27.6508 64.22 27.8334 62.356 27.8334C60.6615 27.8334 59.3179 27.6751 58.3254 27.3586C57.3571 27.0421 56.6672 26.5065 56.2556 25.7518C55.8441 24.997 55.6383 23.9745 55.6383 22.6842V14.1387C55.6383 13.7248 55.6988 13.4448 55.8199 13.2987C55.9651 13.1526 56.2314 13.0796 56.6187 13.0796C56.885 13.0796 57.1392 13.0796 57.3813 13.0796C57.6476 13.0796 57.9139 13.0796 58.1802 13.0796Z" fill="#00000A"/>
<path d="M78.3182 27.7968C77.9067 27.7968 77.3862 27.7847 76.7568 27.7603C76.1516 27.736 75.5222 27.6873 74.8686 27.6143C74.2392 27.5169 73.6703 27.383 73.1619 27.2125C72.9198 27.1152 72.7262 27.0178 72.5809 26.9204C72.4357 26.823 72.3268 26.6526 72.2541 26.4091C72.2057 26.1657 72.1815 25.8005 72.1815 25.3135C72.7141 25.5814 73.3435 25.8005 74.0697 25.9709C74.796 26.117 75.5222 26.2143 76.2484 26.263C76.9747 26.3117 77.5799 26.3361 78.064 26.3361C78.7903 26.3361 79.4923 26.3117 80.1701 26.263C80.8722 26.19 81.5016 26.0561 82.0583 25.8613C82.6151 25.6422 83.0509 25.3257 83.3656 24.9118C83.7045 24.4979 83.8739 23.9502 83.8739 23.2685C83.8739 22.2703 83.6198 21.6373 83.1114 21.3695C82.603 21.0773 81.9131 20.9312 81.0416 20.9312H77.3741C76.4784 20.9312 75.6311 20.8825 74.8323 20.7852C74.0576 20.6634 73.4161 20.3591 72.9077 19.8722C72.4236 19.3609 72.1815 18.5088 72.1815 17.3158C72.1815 16.0255 72.4962 15.0638 73.1256 14.4308C73.755 13.7978 74.6386 13.3839 75.7764 13.1892C76.9384 12.9944 78.2819 12.897 79.807 12.897C80.3638 12.897 81.0295 12.9092 81.8042 12.9335C82.5788 12.9579 83.3172 13.0309 84.0192 13.1526C84.5033 13.2257 84.9028 13.3231 85.2175 13.4448C85.5564 13.5422 85.7985 13.6883 85.9437 13.883C86.1132 14.0778 86.1979 14.3578 86.1979 14.723V15.4534C85.98 15.2099 85.6169 15.0151 85.1085 14.8691C84.6002 14.723 84.0071 14.6134 83.3293 14.5404C82.6756 14.4673 81.9978 14.4308 81.2958 14.4308C80.5938 14.4065 79.9402 14.3943 79.335 14.3943C78.5603 14.3943 77.8099 14.443 77.0836 14.5404C76.3574 14.6378 75.7643 14.8812 75.3043 15.2708C74.8686 15.636 74.6507 16.269 74.6507 17.1698C74.6507 17.8515 74.796 18.3505 75.0865 18.667C75.377 18.9835 75.7643 19.1905 76.2484 19.2879C76.7568 19.3609 77.3257 19.3974 77.9551 19.3974H81.6952C82.6151 19.3974 83.4261 19.4826 84.1281 19.6531C84.8544 19.7991 85.4111 20.1522 85.7985 20.7121C86.21 21.2477 86.4158 22.0999 86.4158 23.2685C86.4158 24.5588 86.0648 25.5327 85.3627 26.19C84.6607 26.8473 83.6924 27.2856 82.4578 27.5047C81.2474 27.6995 79.8675 27.7968 78.3182 27.7968Z" fill="#00000A"/>
<path d="M93.2132 27.7603C92.3901 27.7603 91.7486 27.6629 91.2887 27.4682C90.8287 27.2491 90.4898 26.8839 90.2719 26.3726C90.0541 25.8613 89.9451 25.1675 89.9451 24.291V14.5039H88.5653V13.0796H89.9451V10.4502C89.9451 10.085 89.9693 9.81723 90.0177 9.64681C90.0904 9.45204 90.1993 9.33031 90.3445 9.28161C90.4898 9.23292 90.6956 9.20858 90.9619 9.20858H92.5233C92.5233 9.25727 92.5112 9.36683 92.4869 9.53725C92.4869 9.68333 92.4869 9.90244 92.4869 10.1946V13.0796H95.864V14.5039H92.4869V23.9989C92.4869 24.9484 92.5838 25.6179 92.7775 26.0074C92.9711 26.3969 93.4069 26.5917 94.0847 26.5917C94.351 26.5917 94.6294 26.5674 94.9198 26.5187C95.2103 26.47 95.4161 26.4213 95.5371 26.3726V27.5047C95.3919 27.529 95.1135 27.5777 94.702 27.6508C94.2904 27.7238 93.7942 27.7603 93.2132 27.7603Z" fill="#00000A"/>
<path d="M101.344 27.6508H99.7459C99.4312 27.6508 99.1891 27.5777 99.0197 27.4317C98.8744 27.2612 98.8018 26.9569 98.8018 26.5187V13.81C99.3344 13.6396 100.061 13.457 100.981 13.2622C101.925 13.0674 103.087 12.9701 104.466 12.9701C105.774 12.9701 106.803 13.0674 107.553 13.2622C108.328 13.4326 108.884 13.6761 109.223 13.9926C109.586 14.3091 109.816 14.6986 109.913 15.1612C110.034 15.5994 110.095 16.0985 110.095 16.6585H107.662L107.626 16.1472C107.601 15.5873 107.42 15.1856 107.081 14.9421C106.742 14.6743 106.343 14.516 105.883 14.4673C105.423 14.3943 104.963 14.3578 104.503 14.3578C103.801 14.3578 103.171 14.4186 102.615 14.5404C102.082 14.6621 101.658 14.8204 101.344 15.0151V27.6508Z" fill="#00000A"/>
<path d="M119.849 27.8699C118.445 27.8699 117.259 27.7725 116.291 27.5777C115.346 27.383 114.584 27.0178 114.003 26.4822C113.446 25.9465 113.035 25.204 112.768 24.2545C112.526 23.2806 112.405 22.0268 112.405 20.493C112.405 18.7401 112.623 17.3037 113.059 16.1837C113.495 15.0638 114.269 14.2361 115.383 13.7004C116.496 13.1648 118.058 12.897 120.067 12.897C121.616 12.897 122.851 13.104 123.771 13.5178C124.715 13.9317 125.393 14.5647 125.804 15.4168C126.24 16.269 126.458 17.3767 126.458 18.7401V20.8217H116.218C116.218 20.5295 116.291 20.2861 116.436 20.0913C116.581 19.8722 116.847 19.7626 117.235 19.7626H124.17L124.134 18.7036C124.11 17.1941 123.783 16.0985 123.153 15.4168C122.548 14.7351 121.483 14.3943 119.958 14.3943C118.675 14.3943 117.67 14.5891 116.944 14.9786C116.218 15.3681 115.71 16.0011 115.419 16.8776C115.129 17.7541 114.983 18.947 114.983 20.4565C114.983 22.0633 115.141 23.2928 115.455 24.1449C115.794 24.9727 116.351 25.5448 117.126 25.8613C117.9 26.1535 118.953 26.2996 120.285 26.2996C120.745 26.2996 121.265 26.2874 121.846 26.263C122.451 26.2143 123.057 26.1657 123.662 26.117C124.267 26.0683 124.8 26.0074 125.26 25.9344C125.744 25.837 126.083 25.7396 126.276 25.6422V26.0804C126.276 26.3239 126.204 26.5552 126.058 26.7743C125.937 26.9934 125.671 27.176 125.26 27.3221C124.727 27.5412 124.001 27.6873 123.081 27.7603C122.185 27.8334 121.108 27.8699 119.849 27.8699Z" fill="#00000A"/>
<path d="M134.477 27.6508C134.066 27.6508 133.715 27.6021 133.424 27.5047C133.134 27.383 132.879 27.1882 132.662 26.9204C132.468 26.6526 132.286 26.2874 132.117 25.8248L127.832 13.0796H130.483L133.678 23.5241C133.872 24.1328 134.09 24.5466 134.332 24.7658C134.598 24.9605 135.07 25.0579 135.748 25.0579C136.329 23.1833 136.874 21.3086 137.382 19.434C137.915 17.5593 138.459 15.6968 139.016 13.8465C139.089 13.6031 139.198 13.4205 139.343 13.2987C139.488 13.1526 139.718 13.0796 140.033 13.0796H141.013L136.329 27.6508H134.477Z" fill="#00000A"/>
<path d="M146.529 27.7968C145.391 27.7968 144.629 27.4925 144.242 26.8839C143.854 26.2752 143.661 25.3866 143.661 24.218V13.0796H146.202V24.0719C146.202 25.0701 146.311 25.7396 146.529 26.0804C146.747 26.4213 147.134 26.5917 147.691 26.5917C147.885 26.5917 148.127 26.5674 148.417 26.5187C148.708 26.47 148.89 26.4335 148.962 26.4091V27.5412C148.89 27.5656 148.744 27.6021 148.526 27.6508C148.333 27.6751 148.066 27.6995 147.728 27.7238C147.413 27.7725 147.013 27.7968 146.529 27.7968ZM144.968 10.9615C144.556 10.9615 144.23 10.9006 143.987 10.7789C143.745 10.6572 143.624 10.4015 143.624 10.012C143.624 9.62246 143.733 9.36683 143.951 9.2451C144.193 9.12337 144.52 9.0625 144.932 9.0625C145.391 9.0625 145.73 9.12337 145.948 9.2451C146.166 9.36683 146.263 9.62246 146.239 10.012C146.239 10.4015 146.13 10.6572 145.912 10.7789C145.694 10.9006 145.379 10.9615 144.968 10.9615Z" fill="#00000A"/>
<path d="M158.182 27.8699C156.778 27.8699 155.592 27.7725 154.624 27.5777C153.68 27.383 152.917 27.0178 152.336 26.4822C151.779 25.9465 151.368 25.204 151.101 24.2545C150.859 23.2806 150.738 22.0268 150.738 20.493C150.738 18.7401 150.956 17.3037 151.392 16.1837C151.828 15.0638 152.602 14.2361 153.716 13.7004C154.829 13.1648 156.391 12.897 158.4 12.897C159.949 12.897 161.184 13.104 162.104 13.5178C163.048 13.9317 163.726 14.5647 164.137 15.4168C164.573 16.269 164.791 17.3767 164.791 18.7401V20.8217H154.551C154.551 20.5295 154.624 20.2861 154.769 20.0913C154.914 19.8722 155.18 19.7626 155.568 19.7626H162.503L162.467 18.7036C162.443 17.1941 162.116 16.0985 161.487 15.4168C160.881 14.7351 159.816 14.3943 158.291 14.3943C157.008 14.3943 156.004 14.5891 155.277 14.9786C154.551 15.3681 154.043 16.0011 153.752 16.8776C153.462 17.7541 153.316 18.947 153.316 20.4565C153.316 22.0633 153.474 23.2928 153.789 24.1449C154.127 24.9727 154.684 25.5448 155.459 25.8613C156.234 26.1535 157.287 26.2996 158.618 26.2996C159.078 26.2996 159.598 26.2874 160.179 26.263C160.785 26.2143 161.39 26.1657 161.995 26.117C162.6 26.0683 163.133 26.0074 163.593 25.9344C164.077 25.837 164.416 25.7396 164.609 25.6422V26.0804C164.609 26.3239 164.537 26.5552 164.392 26.7743C164.271 26.9934 164.004 27.176 163.593 27.3221C163.06 27.5412 162.334 27.6873 161.414 27.7603C160.518 27.8334 159.441 27.8699 158.182 27.8699Z" fill="#00000A"/>
<path d="M173.355 27.7603C172.096 27.7603 171.055 27.6629 170.232 27.4682C169.433 27.2491 168.84 26.8108 168.453 26.1535C168.066 25.4718 167.872 24.4493 167.872 23.0859V14.4308C167.872 13.8952 167.932 13.5422 168.053 13.3718C168.174 13.177 168.453 13.0796 168.889 13.0796H170.414V23.1954C170.414 24.4371 170.668 25.2527 171.176 25.6422C171.709 26.0318 172.544 26.2265 173.682 26.2265C174.868 26.2265 175.715 26.0196 176.224 25.6057C176.756 25.1918 177.022 24.571 177.022 23.7432L176.986 13.0796H179.564V23.7797C179.564 24.5832 179.818 25.1918 180.327 25.6057C180.859 26.0196 181.719 26.2265 182.905 26.2265C184.043 26.2265 184.866 26.0318 185.374 25.6422C185.907 25.2527 186.173 24.4371 186.173 23.1954V13.0796H187.626C188.11 13.0796 188.4 13.1648 188.497 13.3352C188.618 13.5057 188.679 13.8709 188.679 14.4308V23.0859C188.679 24.4249 188.485 25.4353 188.098 26.117C187.71 26.7743 187.105 27.2125 186.282 27.4317C185.483 27.6508 184.43 27.7603 183.123 27.7603C181.767 27.7603 180.629 27.5534 179.71 27.1395C178.814 26.7013 178.269 25.91 178.076 24.7658H178.511C178.366 25.5205 178.076 26.1291 177.64 26.5917C177.228 27.0299 176.659 27.3343 175.933 27.5047C175.231 27.6751 174.372 27.7603 173.355 27.7603Z" fill="#00000A"/>
<path d="M193.537 26.6648C193.537 26.2022 193.682 25.91 193.973 25.7883C194.263 25.6666 194.602 25.6057 194.99 25.6057C195.401 25.6057 195.74 25.6666 196.006 25.7883C196.273 25.8857 196.406 26.1778 196.406 26.6648C196.406 26.9813 196.333 27.2125 196.188 27.3586C196.067 27.5047 195.897 27.6021 195.68 27.6508C195.486 27.6751 195.256 27.6873 194.99 27.6873C194.747 27.6873 194.518 27.6751 194.3 27.6508C194.082 27.6021 193.9 27.5047 193.755 27.3586C193.61 27.2125 193.537 26.9813 193.537 26.6648Z" fill="#6E3EF7"/>
<path d="M203.408 27.7968C202.27 27.7968 201.508 27.4925 201.121 26.8839C200.733 26.2752 200.54 25.3866 200.54 24.218V13.0796H203.081V24.0719C203.081 25.0701 203.19 25.7396 203.408 26.0804C203.626 26.4213 204.013 26.5917 204.57 26.5917C204.764 26.5917 205.006 26.5674 205.296 26.5187C205.587 26.47 205.769 26.4335 205.841 26.4091V27.5412C205.769 27.5656 205.623 27.6021 205.405 27.6508C205.212 27.6751 204.945 27.6995 204.607 27.7238C204.292 27.7725 203.892 27.7968 203.408 27.7968ZM201.847 10.9615C201.435 10.9615 201.109 10.9006 200.866 10.7789C200.624 10.6572 200.503 10.4015 200.503 10.012C200.503 9.62246 200.612 9.36683 200.83 9.2451C201.072 9.12337 201.399 9.0625 201.811 9.0625C202.27 9.0625 202.609 9.12337 202.827 9.2451C203.045 9.36683 203.142 9.62246 203.118 10.012C203.118 10.4015 203.009 10.6572 202.791 10.7789C202.573 10.9006 202.258 10.9615 201.847 10.9615Z" fill="#6E3EF7"/>
<path d="M211.936 27.7603C211.113 27.7603 210.471 27.6629 210.011 27.4682C209.551 27.2491 209.212 26.8839 208.995 26.3726C208.777 25.8613 208.668 25.1675 208.668 24.291V14.5039H207.288V13.0796H208.668V10.4502C208.668 10.085 208.692 9.81723 208.74 9.64681C208.813 9.45204 208.922 9.33031 209.067 9.28161C209.212 9.23292 209.418 9.20858 209.685 9.20858H211.246C211.246 9.25727 211.234 9.36683 211.21 9.53725C211.21 9.68333 211.21 9.90244 211.21 10.1946V13.0796H214.587V14.5039H211.21V23.9989C211.21 24.9484 211.306 25.6179 211.5 26.0074C211.694 26.3969 212.13 26.5917 212.807 26.5917C213.074 26.5917 213.352 26.5674 213.643 26.5187C213.933 26.47 214.139 26.4213 214.26 26.3726V27.5047C214.115 27.529 213.836 27.5777 213.425 27.6508C213.013 27.7238 212.517 27.7603 211.936 27.7603Z" fill="#6E3EF7"/>
</svg>

