<svg width="16" height="16" viewBox="0 0 16 16" fill="none" xmlns="http://www.w3.org/2000/svg">
<g clip-path="url(#clip0_782_22178)">
<path fill-rule="evenodd" clip-rule="evenodd" d="M9.01567 1.84534C8.81055 1.8339 8.60509 1.8299 8.39967 1.83334H7.59967C7.31167 1.83334 7.12501 1.83334 6.98367 1.84534C6.84767 1.85668 6.79701 1.87534 6.77234 1.88801C6.67843 1.93607 6.60212 2.01261 6.55434 2.10668C6.54101 2.13134 6.52301 2.18134 6.51167 2.31734C6.50034 2.45868 6.49967 2.64534 6.49967 2.93334V4.00401C6.49967 4.27201 6.50301 4.32534 6.51301 4.36934C6.52528 4.42042 6.54553 4.46924 6.57301 4.51401C6.59701 4.55268 6.63234 4.59201 6.82167 4.78201L7.99967 5.95934L9.17768 4.78201C9.36701 4.59201 9.40234 4.55268 9.42634 4.51401C9.4538 4.46923 9.47404 4.42041 9.48634 4.36934C9.49634 4.32534 9.49967 4.27201 9.49967 4.00401V2.93334C9.49967 2.64534 9.49967 2.45868 9.48767 2.31734C9.47634 2.18134 9.45767 2.13068 9.44501 2.10668C9.39723 2.01261 9.32092 1.93607 9.22701 1.88801C9.20167 1.87468 9.15168 1.85668 9.01567 1.84534ZM9.09701 0.848677C9.29501 0.864677 9.49167 0.900677 9.68034 0.996677C9.96301 1.14068 10.1923 1.37001 10.3363 1.65268C10.4323 1.84134 10.4683 2.03801 10.4843 2.23601C10.4997 2.42268 10.4997 2.65068 10.4997 2.91401V4.04534C10.4997 4.24934 10.4997 4.42868 10.4583 4.60268C10.4217 4.75601 10.361 4.90201 10.2783 5.03601C10.185 5.18934 10.0583 5.31601 9.91434 5.45934L9.88434 5.48868L8.35301 7.02001C8.25926 7.11364 8.13217 7.16624 7.99967 7.16624C7.86717 7.16624 7.74009 7.11364 7.64634 7.02001L6.11501 5.48868L6.08501 5.45934C5.94101 5.31601 5.81434 5.18868 5.72101 5.03601C5.63865 4.9019 5.5779 4.75567 5.54101 4.60268C5.49901 4.42868 5.49967 4.24934 5.49967 4.04534V2.91401C5.49967 2.65068 5.49967 2.42334 5.51501 2.23601C5.53101 2.03801 5.56701 1.84134 5.66301 1.65268C5.80686 1.37018 6.03652 1.14053 6.31901 0.996677C6.50767 0.900677 6.70434 0.864677 6.90234 0.848677C7.08901 0.833344 7.31701 0.833344 7.58034 0.833344H8.41967C8.68301 0.833344 8.91034 0.833344 9.09768 0.848677H9.09701ZM4.00367 6.50001C4.27167 6.50001 4.32501 6.50334 4.36901 6.51334C4.42008 6.52562 4.4689 6.54587 4.51367 6.57334C4.55234 6.59734 4.59167 6.63268 4.78167 6.82201L5.95901 8.00001L4.78167 9.17801C4.59167 9.36734 4.55234 9.40268 4.51367 9.42668C4.46889 9.45413 4.42008 9.47438 4.36901 9.48668C4.32501 9.49668 4.27167 9.50001 4.00367 9.50001H2.93301C2.64501 9.50001 2.45834 9.50001 2.31701 9.48801C2.18101 9.47668 2.13034 9.45801 2.10634 9.44534C2.01228 9.39757 1.93574 9.32126 1.88767 9.22734C1.87434 9.20201 1.85634 9.15201 1.84501 9.01601C1.83357 8.81089 1.82956 8.60542 1.83301 8.40001V7.60001C1.83301 7.31201 1.83301 7.12534 1.84501 6.98401C1.85634 6.84801 1.87501 6.79734 1.88767 6.77268C1.93574 6.67876 2.01228 6.60245 2.10634 6.55468C2.13101 6.54134 2.18101 6.52334 2.31701 6.51201C2.45834 6.50068 2.64501 6.50001 2.93301 6.50001H4.00367ZM4.60234 5.54134C4.42834 5.49934 4.24901 5.50001 4.04501 5.50001H2.91367C2.65034 5.50001 2.42301 5.50001 2.23567 5.51534C2.03767 5.53134 1.84101 5.56734 1.65234 5.66334C1.36985 5.8072 1.14019 6.03685 0.996341 6.31934C0.900341 6.50801 0.864341 6.70468 0.848341 6.90268C0.833008 7.08934 0.833008 7.31734 0.833008 7.58068V8.42001C0.833008 8.68334 0.833008 8.91068 0.848341 9.09801C0.864341 9.29601 0.900341 9.49268 0.996341 9.68134C1.14034 9.96401 1.36967 10.1933 1.65234 10.3373C1.84101 10.4333 2.03767 10.4693 2.23567 10.4853C2.42234 10.5007 2.65034 10.5007 2.91367 10.5007H4.04501C4.24901 10.5007 4.42834 10.5007 4.60234 10.4593C4.75567 10.4227 4.90167 10.362 5.03567 10.2793C5.18901 10.186 5.31567 10.0593 5.45901 9.91534L5.48834 9.88534L7.01967 8.35401C7.11331 8.26026 7.1659 8.13318 7.1659 8.00068C7.1659 7.86818 7.11331 7.74109 7.01967 7.64734L5.48834 6.11534L5.45901 6.08534C5.31567 5.94134 5.18834 5.81468 5.03567 5.72134C4.90157 5.63898 4.75533 5.57824 4.60234 5.54134ZM11.9957 5.50001H11.9543C11.751 5.50001 11.571 5.50001 11.397 5.54134C11.244 5.57824 11.0978 5.63898 10.9637 5.72134C10.8103 5.81468 10.6837 5.94134 10.5403 6.08534L10.511 6.11534L8.97968 7.64668C8.88604 7.74043 8.83345 7.86751 8.83345 8.00001C8.83345 8.13251 8.88604 8.25959 8.97968 8.35334L10.511 9.88468L10.5403 9.91468C10.6837 10.0587 10.8103 10.1853 10.9637 10.2787C11.0977 10.3613 11.2437 10.422 11.397 10.4587C11.571 10.5007 11.7503 10.5 11.9543 10.5H13.0857C13.349 10.5 13.5763 10.5 13.7637 10.4847C13.9617 10.4687 14.1583 10.4327 14.347 10.3367C14.6295 10.1928 14.8592 9.96317 15.003 9.68068C15.099 9.49201 15.135 9.29534 15.151 9.09734C15.1663 8.91068 15.1663 8.68268 15.1663 8.41934V7.58001C15.1663 7.31668 15.1663 7.08934 15.151 6.90201C15.135 6.70401 15.099 6.50734 15.003 6.31868C14.8593 6.03629 14.6299 5.80664 14.3477 5.66268C14.1583 5.56668 13.961 5.53068 13.7637 5.51468C13.577 5.49934 13.349 5.49934 13.0857 5.49934H11.9957V5.50001ZM11.6303 6.51334C11.6743 6.50334 11.727 6.50001 11.9957 6.50001H13.0663C13.3543 6.50001 13.541 6.50001 13.6823 6.51201C13.8183 6.52334 13.869 6.54201 13.893 6.55468C13.9871 6.60245 14.0636 6.67876 14.1117 6.77268C14.125 6.79801 14.143 6.84801 14.1543 6.98401C14.1657 7.12534 14.1663 7.31201 14.1663 7.60001V8.40001C14.1663 8.68801 14.1663 8.87468 14.1543 9.01601C14.143 9.15201 14.1243 9.20268 14.1117 9.22734C14.0636 9.32126 13.9871 9.39757 13.893 9.44534C13.8683 9.45868 13.8183 9.47668 13.6823 9.48801C13.541 9.49934 13.3543 9.50001 13.0663 9.50001H11.9957C11.7277 9.50001 11.6743 9.49668 11.6303 9.48668C11.5795 9.47432 11.5309 9.45408 11.4863 9.42668C11.447 9.40268 11.4077 9.36734 11.2177 9.17801L10.0403 8.00001L11.2177 6.82201C11.4077 6.63268 11.447 6.59734 11.4857 6.57401C11.5304 6.54654 11.5793 6.52629 11.6303 6.51401V6.51334ZM8.35301 8.98001C8.25926 8.88638 8.13217 8.83378 7.99967 8.83378C7.86717 8.83378 7.74009 8.88638 7.64634 8.98001L6.11501 10.5113L6.08501 10.5407C5.94101 10.684 5.81434 10.8107 5.72101 10.964C5.63865 11.0981 5.5779 11.2444 5.54101 11.3973C5.49901 11.5713 5.49967 11.7507 5.49967 11.9547V13.086C5.49967 13.3493 5.49967 13.5767 5.51501 13.764C5.53101 13.962 5.56701 14.1587 5.66301 14.3473C5.80701 14.63 6.03634 14.8593 6.31901 15.0033C6.50767 15.0993 6.70434 15.1353 6.90234 15.1513C7.08901 15.1667 7.31701 15.1667 7.58034 15.1667H8.41967C8.68301 15.1667 8.91034 15.1667 9.09768 15.1513C9.29568 15.1353 9.49234 15.0993 9.68101 15.0033C9.9634 14.8597 10.193 14.6303 10.337 14.348C10.433 14.1587 10.469 13.9613 10.485 13.764C10.5003 13.5773 10.5003 13.3493 10.5003 13.086V11.9547C10.5003 11.7513 10.5003 11.5713 10.459 11.3973C10.4221 11.2443 10.3614 11.0981 10.279 10.964C10.1857 10.8107 10.059 10.684 9.91501 10.5407L9.88501 10.5113L8.35367 8.98001H8.35301ZM6.82167 11.218L7.99967 10.0407L9.17768 11.218C9.36701 11.408 9.40234 11.4473 9.42634 11.486C9.45301 11.5313 9.47301 11.5793 9.48634 11.6307C9.49634 11.6747 9.49967 11.7273 9.49967 11.996V13.0667C9.49967 13.3547 9.49967 13.5413 9.48767 13.6827C9.47634 13.8187 9.45767 13.8693 9.44501 13.8933C9.39723 13.9874 9.32092 14.0639 9.22701 14.112C9.20167 14.1253 9.15168 14.1433 9.01567 14.1547C8.87434 14.166 8.68767 14.1667 8.39967 14.1667H7.59967C7.31167 14.1667 7.12501 14.1667 6.98367 14.1547C6.84767 14.1433 6.79701 14.1247 6.77234 14.112C6.67843 14.0639 6.60212 13.9874 6.55434 13.8933C6.54101 13.8687 6.52301 13.8187 6.51167 13.6827C6.50023 13.4776 6.49623 13.2721 6.49967 13.0667V11.996C6.49967 11.728 6.50301 11.6747 6.51301 11.6307C6.52535 11.5798 6.5456 11.5312 6.57301 11.4867C6.59701 11.4473 6.63234 11.408 6.82167 11.218Z" fill="#636373"/>
</g>
<defs>
<clipPath id="clip0_782_22178">
<rect width="16" height="16" fill="white"/>
</clipPath>
</defs>
</svg>

