<svg width="95" height="32" viewBox="0 0 95 32" fill="none" xmlns="http://www.w3.org/2000/svg">
<path d="M40.2615 16.4105C40.2615 20.8522 36.7867 24.1252 32.5223 24.1252C28.258 24.1252 24.7832 20.8522 24.7832 16.4105C24.7832 11.9374 28.258 8.69568 32.5223 8.69568C36.7867 8.69568 40.2615 11.9374 40.2615 16.4105ZM36.8736 16.4105C36.8736 13.6348 34.8597 11.7357 32.5223 11.7357C30.1849 11.7357 28.171 13.6348 28.171 16.4105C28.171 19.1583 30.1849 21.0852 32.5223 21.0852C34.8597 21.0852 36.8736 19.1548 36.8736 16.4105Z" fill="#EA4335"/>
<path d="M56.9568 16.4105C56.9568 20.8522 53.482 24.1252 49.2176 24.1252C44.9533 24.1252 41.4785 20.8522 41.4785 16.4105C41.4785 11.9409 44.9533 8.69568 49.2176 8.69568C53.482 8.69568 56.9568 11.9374 56.9568 16.4105ZM53.5689 16.4105C53.5689 13.6348 51.555 11.7357 49.2176 11.7357C46.8803 11.7357 44.8663 13.6348 44.8663 16.4105C44.8663 19.1583 46.8803 21.0852 49.2176 21.0852C51.555 21.0852 53.5689 19.1548 53.5689 16.4105Z" fill="#FBBC05"/>
<path d="M72.9556 9.16177V23.0122C72.9556 28.7096 69.5956 31.0365 65.6234 31.0365C61.8843 31.0365 59.6338 28.5357 58.7851 26.4905L61.7347 25.2626C62.2599 26.5183 63.5469 28 65.6199 28C68.1625 28 69.7382 26.4313 69.7382 23.4783V22.3687H69.6199C68.8617 23.3044 67.4008 24.1218 65.5573 24.1218C61.6999 24.1218 58.166 20.7618 58.166 16.4383C58.166 12.0835 61.6999 8.69568 65.5573 8.69568C67.3973 8.69568 68.8582 9.51307 69.6199 10.4209H69.7382V9.16524H72.9556V9.16177ZM69.9782 16.4383C69.9782 13.7218 68.166 11.7357 65.8599 11.7357C63.5225 11.7357 61.5643 13.7218 61.5643 16.4383C61.5643 19.127 63.5225 21.0852 65.8599 21.0852C68.166 21.0852 69.9782 19.127 69.9782 16.4383Z" fill="#4285F4"/>
<path d="M78.2614 1.04346V23.6522H74.957V1.04346H78.2614Z" fill="#34A853"/>
<path d="M91.1375 18.9496L93.7671 20.7026C92.9184 21.9583 90.8732 24.1218 87.3392 24.1218C82.9566 24.1218 79.6836 20.7339 79.6836 16.407C79.6836 11.8192 82.9845 8.6922 86.9601 8.6922C90.9636 8.6922 92.9219 11.8783 93.5619 13.6L93.9132 14.4765L83.6001 18.7479C84.3897 20.2957 85.6175 21.0852 87.3392 21.0852C89.0645 21.0852 90.261 20.2365 91.1375 18.9496ZM83.0436 16.1739L89.9375 13.3113C89.5584 12.3479 88.4175 11.6765 87.0749 11.6765C85.3532 11.6765 82.9566 13.1965 83.0436 16.1739Z" fill="#EA4335"/>
<path d="M12.2746 14.4035V11.1304H23.3041C23.412 11.7008 23.4676 12.3756 23.4676 13.1061C23.4676 15.5617 22.7963 18.5982 20.6328 20.7617C18.5285 22.953 15.8398 24.1217 12.278 24.1217C5.6763 24.1217 0.125 18.7443 0.125 12.1426C0.125 5.54084 5.6763 0.163452 12.278 0.163452C15.9302 0.163452 18.532 1.5965 20.4867 3.46432L18.1772 5.77389C16.7754 4.45911 14.8763 3.4365 12.2746 3.4365C7.4537 3.4365 3.68326 7.32171 3.68326 12.1426C3.68326 16.9635 7.4537 20.8487 12.2746 20.8487C15.4015 20.8487 17.1824 19.593 18.3233 18.4521C19.2485 17.5269 19.8572 16.2052 20.0972 14.4L12.2746 14.4035Z" fill="#4285F4"/>
</svg>
