<svg width="16" height="16" viewBox="0 0 16 16" fill="none" xmlns="http://www.w3.org/2000/svg">
<path fill-rule="evenodd" clip-rule="evenodd" d="M10.1666 1.64601C10.1666 1.50934 10.1666 1.44134 10.1566 1.38334C10.1325 1.24897 10.0679 1.1252 9.97132 1.02867C9.87479 0.932138 9.75102 0.867465 9.61665 0.843343C9.55865 0.833343 9.49131 0.833344 9.35598 0.833344H6.64331C6.50865 0.833344 6.44198 0.833343 6.38465 0.843343C6.24985 0.867303 6.12565 0.932063 6.02884 1.02887C5.93203 1.12568 5.86727 1.24988 5.84331 1.38468C5.83331 1.44201 5.83331 1.50934 5.83331 1.64468V6.16668C5.83331 6.79534 5.83331 7.10934 6.02865 7.30468C6.22398 7.50001 6.53798 7.50001 7.16665 7.50001H8.83331C9.46198 7.50001 9.77598 7.50001 9.97131 7.30468C10.1666 7.10934 10.1666 6.79534 10.1666 6.16668V1.64601ZM10.1666 9.83334C10.1666 9.20468 10.1666 8.89068 9.97131 8.69534C9.77598 8.50001 9.46198 8.50001 8.83331 8.50001H7.16665C6.53798 8.50001 6.22398 8.50001 6.02865 8.69534C5.83331 8.89068 5.83331 9.20468 5.83331 9.83334V14.3547C5.83331 14.4907 5.83331 14.5587 5.84331 14.616C5.89198 14.8907 6.10931 15.108 6.38398 15.156C6.44131 15.1667 6.50865 15.1667 6.64398 15.1667H9.35598C9.49131 15.1667 9.55865 15.1667 9.61598 15.1567C9.89065 15.108 10.108 14.8907 10.156 14.6167C10.1666 14.5587 10.1666 14.49 10.1666 14.3547V9.83334V9.83334ZM11.5633 15.12C11.5122 15.1237 11.461 15.1168 11.4127 15.0996C11.3645 15.0825 11.3203 15.0555 11.283 15.0204C11.2458 14.9853 11.2162 14.9429 11.1961 14.8958C11.1761 14.8486 11.1661 14.7979 11.1666 14.7467V9.83334C11.1666 9.20468 11.1666 8.89068 11.362 8.69534C11.5573 8.50001 11.8713 8.50001 12.5 8.50001H14.3333C14.488 8.50001 14.566 8.50001 14.63 8.51334C14.7593 8.539 14.8781 8.60241 14.9713 8.69556C15.0646 8.78871 15.1282 8.90741 15.154 9.03668C15.1666 9.10134 15.1666 9.17868 15.1666 9.33334V9.35601C15.1666 10.27 15.1666 10.9873 15.12 11.5633C15.072 12.15 14.9726 12.6347 14.7486 13.0733C14.3811 13.7947 13.7947 14.3812 13.0733 14.7487C12.6346 14.9727 12.15 15.072 11.5633 15.1193V15.12ZM12.5 7.50001C11.8713 7.50001 11.5573 7.50001 11.362 7.30468C11.1666 7.10934 11.1666 6.79534 11.1666 6.16668V1.25334C11.1666 1.03668 11.3473 0.862677 11.5633 0.88001C12.15 0.928677 12.6346 1.02734 13.0733 1.25134C13.7947 1.61887 14.3811 2.20533 14.7486 2.92668C14.9726 3.36534 15.072 3.85001 15.1193 4.43668C15.1666 5.01268 15.1666 5.73001 15.1666 6.64401V6.66668C15.1666 6.82134 15.1666 6.89868 15.1533 6.96334C15.1277 7.09264 15.0642 7.21143 14.9711 7.3047C14.878 7.39796 14.7592 7.46152 14.63 7.48734C14.566 7.50001 14.488 7.50001 14.3333 7.50001H12.5ZM4.83331 1.25334C4.83391 1.20215 4.82387 1.15138 4.80384 1.10427C4.7838 1.05715 4.75421 1.0147 4.71692 0.979612C4.67964 0.944522 4.63548 0.917551 4.58723 0.900406C4.53899 0.883262 4.48771 0.876317 4.43665 0.88001C3.84998 0.928677 3.36531 1.02734 2.92665 1.25134C2.2053 1.61887 1.61884 2.20533 1.25131 2.92668C1.02731 3.36534 0.928646 3.85001 0.880646 4.43668C0.833313 5.01268 0.833313 5.73001 0.833313 6.64401V6.66668C0.833313 6.82134 0.833313 6.89868 0.846646 6.96334C0.872302 7.09264 0.935711 7.21143 1.02886 7.3047C1.12201 7.39796 1.24072 7.46152 1.36998 7.48734C1.43465 7.50001 1.51198 7.50001 1.66665 7.50001H3.49998C4.12865 7.50001 4.44265 7.50001 4.63798 7.30468C4.83331 7.10934 4.83331 6.79534 4.83331 6.16668V1.25334ZM0.833313 9.33334C0.833313 9.17868 0.833313 9.10134 0.846646 9.03668C0.872302 8.90738 0.935711 8.78859 1.02886 8.69532C1.12201 8.60206 1.24072 8.5385 1.36998 8.51268C1.43465 8.50001 1.51198 8.50001 1.66665 8.50001H3.49998C4.12865 8.50001 4.44265 8.50001 4.63798 8.69534C4.83331 8.89068 4.83331 9.20468 4.83331 9.83334V14.7467C4.83391 14.7979 4.82387 14.8486 4.80384 14.8958C4.7838 14.9429 4.75421 14.9853 4.71692 15.0204C4.67964 15.0555 4.63548 15.0825 4.58723 15.0996C4.53899 15.1168 4.48771 15.1237 4.43665 15.12C3.84998 15.072 3.36531 14.9727 2.92665 14.7487C2.2053 14.3812 1.61884 13.7947 1.25131 13.0733C1.02731 12.6347 0.928646 12.15 0.880646 11.5633C0.833313 10.9873 0.833313 10.27 0.833313 9.35601V9.33334V9.33334Z" fill="#636373"/>
</svg>
