<svg width="18" height="18" viewBox="0 0 18 18" fill="none" xmlns="http://www.w3.org/2000/svg">
<path fill-rule="evenodd" clip-rule="evenodd" d="M3.74002 2.43C4.41752 2.06 4.76085 1.87667 5.04169 1.7775V14.4208C5.01357 14.4269 4.98551 14.4333 4.95752 14.44C4.44085 14.5625 3.96252 14.8233 3.22002 15.2292L3.14085 15.2717L2.53669 15.6017C2.16835 15.8017 1.93002 15.9317 1.74752 16.01C1.68309 16.0424 1.61433 16.0655 1.54335 16.0783C1.5047 16.0729 1.46752 16.0598 1.43402 16.0398C1.40053 16.0197 1.3714 15.9932 1.34835 15.9617C1.32592 15.8935 1.3133 15.8225 1.31085 15.7508C1.29264 15.4551 1.28625 15.1588 1.29169 14.8625V4.58167C1.29169 4.10667 1.30002 4.01167 1.32335 3.93834C1.35174 3.85337 1.39807 3.7755 1.45919 3.71C1.51169 3.65334 1.59085 3.60167 2.00835 3.37417L3.74002 2.43ZM6.35335 14.3625C6.33281 14.3602 6.31226 14.3579 6.29169 14.3558V1.6775C6.60585 1.73084 6.96169 1.87167 7.77752 2.205L9.75002 3.0125L9.83335 3.04584C10.615 3.36667 11.1192 3.57334 11.6467 3.6375L11.7084 3.645V16.3233C11.3942 16.2692 11.0384 16.1283 10.2225 15.795L8.25002 14.9875L8.16669 14.9542C7.38502 14.6333 6.88085 14.4275 6.35335 14.3625ZM12.9584 16.2225C13.2392 16.1233 13.5825 15.94 14.26 15.57L15.9917 14.6258C16.4084 14.3983 16.4884 14.3467 16.5409 14.29C16.602 14.2245 16.6483 14.1466 16.6767 14.0617C16.7009 13.9883 16.7084 13.895 16.7084 13.4192V3.1375C16.7084 2.71834 16.7084 2.4475 16.6892 2.24917C16.6868 2.17719 16.6742 2.10592 16.6517 2.0375C16.6286 2.00615 16.5994 1.97975 16.5659 1.95986C16.5324 1.93996 16.4953 1.92698 16.4567 1.92167C16.3857 1.93459 16.317 1.9576 16.2525 1.99C16.0692 2.06834 15.8317 2.19834 15.4634 2.39834L14.8592 2.72834L14.78 2.77167C14.0384 3.17667 13.5592 3.4375 13.0425 3.56C13.0145 3.5667 12.9865 3.57309 12.9584 3.57917V16.2225ZM4.95752 0.500837C5.41452 0.392396 5.88716 0.366153 6.35335 0.423337C6.88085 0.487504 7.38502 0.694171 8.16752 1.015L8.25085 1.04834L10.2225 1.855C11.1167 2.22167 11.4584 2.355 11.7992 2.39667C12.1184 2.43584 12.4409 2.41834 12.7542 2.34417C13.0875 2.265 13.4125 2.09417 14.26 1.63084L14.865 1.30084L14.89 1.2875C15.2259 1.10417 15.515 0.945837 15.7567 0.842504C16.0025 0.735837 16.29 0.642504 16.6042 0.680837C16.8162 0.706772 17.0204 0.77646 17.204 0.885483C17.3877 0.994506 17.5466 1.14049 17.6709 1.31417C17.8542 1.57084 17.91 1.86834 17.9342 2.135C17.9584 2.3975 17.9584 2.72667 17.9584 3.10917V13.4942C17.9584 13.8508 17.9592 14.165 17.8625 14.4567C17.7774 14.7118 17.6384 14.9457 17.455 15.1425C17.2467 15.3675 16.97 15.5175 16.6559 15.6875L16.59 15.7233L14.8592 16.6675L14.78 16.7108C14.0384 17.1158 13.5592 17.3775 13.0425 17.4992C12.5855 17.6076 12.1129 17.6339 11.6467 17.5767C11.1192 17.5125 10.615 17.3058 9.83252 16.985L9.74919 16.9517L7.77752 16.145C6.88335 15.7783 6.54169 15.645 6.20085 15.6033C5.88188 15.5643 5.5585 15.5823 5.24585 15.6567C4.91252 15.7358 4.58752 15.9067 3.74002 16.3692L3.13502 16.6992L3.11002 16.7125C2.77419 16.8958 2.48502 17.0542 2.24335 17.1583C1.99752 17.2642 1.71002 17.3583 1.39585 17.3192C1.18389 17.2932 0.979625 17.2235 0.796008 17.1145C0.61239 17.0055 0.453425 16.8595 0.329187 16.6858C0.145854 16.4292 0.0900206 16.1317 0.065854 15.865C0.0416873 15.6033 0.0416873 15.2733 0.0416873 14.8917V4.50667C0.0416873 4.14917 0.0408539 3.835 0.137521 3.54334C0.222692 3.28844 0.361665 3.05483 0.545021 2.85834C0.753354 2.63334 1.03002 2.48334 1.34419 2.3125L1.41002 2.27667L3.14085 1.33334L3.22002 1.29C3.96169 0.885004 4.44002 0.624171 4.95752 0.501671V0.500837Z" fill="#6E3EF7"/>
</svg>
