<svg width="24" height="24" viewBox="0 0 24 24" fill="none" xmlns="http://www.w3.org/2000/svg">
<g filter="url(#filter0_b_827_32062)">
<rect x="0.0546875" width="23.6667" height="24" rx="6" fill="#00000A" fill-opacity="0.3"/>
<path fill-rule="evenodd" clip-rule="evenodd" d="M10.9057 5.90625L10.9275 5.90625H12.8485L12.8703 5.90625C13.0659 5.90623 13.2496 5.9062 13.4035 5.92403C13.575 5.94387 13.7552 5.98976 13.9234 6.11271C14.0916 6.23566 14.1915 6.39453 14.2643 6.55318C14.3297 6.69562 14.3877 6.87234 14.4496 7.06053L14.4564 7.08149L14.6865 7.78125H16.2023H17.4349C17.6902 7.78125 17.8971 7.99112 17.8971 8.25C17.8971 8.50889 17.6902 8.71875 17.4349 8.71875H16.6347L16.2773 14.1556L16.2751 14.1885C16.2224 14.9902 16.1799 15.6378 16.08 16.146C15.9762 16.6743 15.7997 17.1156 15.4351 17.4615C15.0705 17.8074 14.6246 17.9567 14.0978 18.0266C13.5912 18.0938 12.9512 18.0938 12.1588 18.0938H12.1263H11.6497H11.6172C10.8249 18.0938 10.1849 18.0938 9.67821 18.0266C9.15148 17.9567 8.70554 17.8074 8.34093 17.4615C7.97632 17.1156 7.79979 16.6743 7.696 16.146C7.59618 15.6378 7.55361 14.9902 7.50092 14.1885L7.49876 14.1556L7.14133 8.71875H6.34115C6.08586 8.71875 5.87891 8.50889 5.87891 8.25C5.87891 7.99112 6.08586 7.78125 6.34115 7.78125H7.57378H9.08958L9.31959 7.08149L9.32647 7.06055C9.38831 6.87235 9.44638 6.69562 9.51172 6.55318C9.5845 6.39453 9.68442 6.23566 9.85264 6.11271C10.0208 5.98976 10.2011 5.94387 10.3725 5.92403C10.5264 5.9062 10.7101 5.90623 10.9057 5.90625ZM10.0641 7.78125H13.712L13.5794 7.37795C13.5082 7.16145 13.4665 7.03664 13.4261 6.94861C13.4079 6.9089 13.3954 6.88926 13.3887 6.88015C13.3856 6.87593 13.3838 6.87414 13.3834 6.87376L13.3829 6.87325L13.3822 6.87284C13.3817 6.8726 13.3795 6.87149 13.3746 6.86984C13.3639 6.86628 13.3416 6.86044 13.2987 6.85547C13.2035 6.84446 13.0736 6.84375 12.8485 6.84375H10.9275C10.7025 6.84375 10.5725 6.84446 10.4774 6.85547C10.4345 6.86044 10.4121 6.86628 10.4015 6.86984C10.3966 6.87149 10.3943 6.8726 10.3939 6.87284L10.3932 6.87325L10.3926 6.87376C10.3922 6.87414 10.3905 6.87593 10.3874 6.88015C10.3807 6.88926 10.3682 6.9089 10.3499 6.94861C10.3096 7.03664 10.2678 7.16145 10.1966 7.37795L10.0641 7.78125ZM8.06787 8.71875L8.42119 14.0933C8.47657 14.9357 8.51603 15.5218 8.60267 15.9628C8.6867 16.3906 8.80401 16.617 8.97252 16.7769C9.14103 16.9368 9.37163 17.0404 9.79812 17.097C10.2378 17.1553 10.8171 17.1563 11.6497 17.1563H12.1263C12.9589 17.1563 13.5382 17.1553 13.9779 17.097C14.4044 17.0404 14.635 16.9368 14.8035 16.7769C14.972 16.617 15.0893 16.3906 15.1734 15.9628C15.26 15.5218 15.2995 14.9357 15.3548 14.0933L15.7082 8.71875H14.3533H9.42274H8.06787ZM10.6554 10.2813C10.9107 10.2813 11.1176 10.4911 11.1176 10.75V15.125C11.1176 15.3839 10.9107 15.5938 10.6554 15.5938C10.4001 15.5938 10.1931 15.3839 10.1931 15.125V10.75C10.1931 10.4911 10.4001 10.2813 10.6554 10.2813ZM13.5829 10.75C13.5829 10.4911 13.3759 10.2813 13.1207 10.2813C12.8654 10.2813 12.6584 10.4911 12.6584 10.75V13.25C12.6584 13.5089 12.8654 13.7188 13.1207 13.7188C13.3759 13.7188 13.5829 13.5089 13.5829 13.25V10.75Z" fill="white"/>
<rect x="0.554688" y="0.5" width="22.6667" height="23" rx="5.5" stroke="white"/>
</g>
<defs>
<filter id="filter0_b_827_32062" x="-1.94531" y="-2" width="27.666" height="28" filterUnits="userSpaceOnUse" color-interpolation-filters="sRGB">
<feFlood flood-opacity="0" result="BackgroundImageFix"/>
<feGaussianBlur in="BackgroundImage" stdDeviation="1"/>
<feComposite in2="SourceAlpha" operator="in" result="effect1_backgroundBlur_827_32062"/>
<feBlend mode="normal" in="SourceGraphic" in2="effect1_backgroundBlur_827_32062" result="shape"/>
</filter>
</defs>
</svg>
