<svg width="16" height="16" viewBox="0 0 16 16" fill="none" xmlns="http://www.w3.org/2000/svg">
<path fill-rule="evenodd" clip-rule="evenodd" d="M6.64403 0.833344H9.35603C10.27 0.833344 10.9874 0.833344 11.5634 0.88001C12.15 0.928677 12.6347 1.02734 13.0734 1.25134C13.7947 1.61887 14.3812 2.20533 14.7487 2.92668C14.9727 3.36534 15.072 3.85001 15.1194 4.43668C15.1547 4.86334 15.1634 5.36734 15.166 5.97134C15.1669 5.98911 15.1669 6.00691 15.166 6.02468L15.1667 6.64268V9.97468C15.1674 9.99268 15.1672 10.0107 15.166 10.0287C15.1634 10.6327 15.1547 11.1367 15.1194 11.5633C15.072 12.15 14.9727 12.6347 14.7487 13.0733C14.3812 13.7947 13.7947 14.3812 13.0734 14.7487C12.6347 14.9727 12.15 15.072 11.5634 15.1193C10.9874 15.1667 10.27 15.1667 9.35603 15.1667H6.64403C5.73003 15.1667 5.0127 15.1667 4.4367 15.12C3.85003 15.072 3.36536 14.9727 2.9267 14.7487C2.20535 14.3812 1.61889 13.7947 1.25136 13.0733C1.02736 12.6347 0.928696 12.15 0.880696 11.5633C0.845363 11.1367 0.836697 10.6327 0.83403 10.0287C0.833064 10.0107 0.833064 9.99266 0.83403 9.97468L0.833363 9.35601V6.64268V6.02534C0.832638 6.00734 0.83286 5.98932 0.83403 5.97134C0.836697 5.36734 0.845363 4.86334 0.880696 4.43668C0.928696 3.85001 1.02736 3.36534 1.25136 2.92668C1.61889 2.20533 2.20535 1.61887 2.9267 1.25134C3.36536 1.02734 3.85003 0.928677 4.4367 0.880677C5.0127 0.833343 5.73003 0.833344 6.64403 0.833344ZM1.83803 10.5C1.84336 10.88 1.85403 11.2013 1.87736 11.482C1.92003 12.0067 2.0027 12.3453 2.14203 12.62C2.41383 13.1531 2.84743 13.5865 3.3807 13.858C3.6547 13.998 3.99336 14.08 4.51803 14.1227C5.0487 14.166 5.7247 14.1667 6.6667 14.1667H9.33336C10.2747 14.1667 10.9514 14.1667 11.482 14.1227C12.0067 14.08 12.3454 13.9973 12.62 13.858C13.153 13.5864 13.5864 13.153 13.858 12.62C13.998 12.3453 14.08 12.0067 14.1227 11.482C14.146 11.2013 14.1567 10.88 14.162 10.5H1.83803ZM14.1667 9.50001H1.83336V6.50001H14.1667V9.50001ZM14.1227 4.51801C14.146 4.79868 14.1567 5.12001 14.162 5.50001H1.83803C1.84336 5.12001 1.85403 4.79868 1.87736 4.51801C1.92003 3.99334 2.0027 3.65468 2.14203 3.38068C2.41371 2.84731 2.84733 2.41369 3.3807 2.14201C3.6547 2.00201 3.99336 1.92001 4.51803 1.87734C5.0487 1.83401 5.7247 1.83334 6.6667 1.83334H9.33336C10.2747 1.83334 10.9514 1.83334 11.482 1.87734C12.0067 1.92001 12.3454 2.00268 12.62 2.14201C13.1531 2.41381 13.5865 2.84741 13.858 3.38068C13.998 3.65468 14.08 3.99334 14.1227 4.51801Z" fill="#636373"/>
</svg>
