<svg width="14" height="16" viewBox="0 0 14 16" fill="none" xmlns="http://www.w3.org/2000/svg">
<path fill-rule="evenodd" clip-rule="evenodd" d="M6.84533 0.833332H7.15467C7.69667 0.833332 8.134 0.833332 8.488 0.861999C8.852 0.891999 9.172 0.955332 9.468 1.106C9.93872 1.34558 10.3215 1.72809 10.5613 2.19867C10.712 2.49467 10.7747 2.81467 10.8047 3.17867C10.8333 3.53267 10.8333 3.97 10.8333 4.512V4.90467C11.1787 4.95133 11.4853 5.03333 11.7713 5.178C12.3671 5.4819 12.8513 5.96661 13.1547 6.56267C13.342 6.92933 13.4233 7.332 13.462 7.808C13.5 8.27267 13.5 8.85 13.5 9.578V10.422C13.5 11.15 13.5 11.7273 13.462 12.192C13.4233 12.668 13.342 13.07 13.1553 13.438C12.8516 14.0337 12.3671 14.5179 11.7713 14.8213C11.4033 15.0087 11.0013 15.09 10.5253 15.1287C10.0607 15.1667 9.48333 15.1667 8.75533 15.1667H5.24467C4.51667 15.1667 3.93933 15.1667 3.47467 15.1287C2.99867 15.09 2.59667 15.0087 2.22933 14.822C1.63343 14.5184 1.14894 14.0339 0.845333 13.438C0.658 13.07 0.576667 12.668 0.538 12.192C0.5 11.7273 0.5 11.15 0.5 10.422V9.578C0.5 8.85 0.5 8.27267 0.538 7.808C0.576667 7.332 0.658 6.93 0.844667 6.56267C1.14845 5.96666 1.63318 5.48216 2.22933 5.17867C2.51467 5.03333 2.82133 4.952 3.16667 4.90467V4.512C3.16667 3.97 3.16667 3.53267 3.19533 3.17867C3.22533 2.81467 3.28867 2.49467 3.43933 2.19867C3.67892 1.72795 4.06143 1.3452 4.532 1.10533C4.828 0.954665 5.148 0.891999 5.512 0.861999C5.866 0.833332 6.30333 0.833332 6.84533 0.833332ZM9.83333 4.53333V4.84C9.516 4.83333 9.15867 4.83333 8.75533 4.83333H5.24467C4.84133 4.83333 4.484 4.83333 4.16667 4.84V4.53333C4.16667 3.96533 4.16667 3.56867 4.192 3.26C4.21667 2.958 4.26333 2.784 4.33 2.65267C4.47385 2.37017 4.70351 2.14052 4.986 1.99667C5.11733 1.93 5.29133 1.88333 5.594 1.85867C5.902 1.834 6.298 1.83333 6.86667 1.83333H7.13333C7.702 1.83333 8.098 1.83333 8.40667 1.85867C8.70867 1.88333 8.88267 1.93 9.01467 1.99667C9.29667 2.14067 9.526 2.37 9.67 2.65267C9.73667 2.784 9.78333 2.958 9.808 3.26067C9.83267 3.56867 9.83333 3.96533 9.83333 4.53333ZM3.556 5.868C3.14267 5.90133 2.886 5.966 2.68267 6.06933C2.27509 6.27704 1.94371 6.60842 1.736 7.016C1.63267 7.21933 1.56867 7.476 1.53467 7.88933C1.50067 8.30933 1.5 8.84533 1.5 9.6V10.4C1.5 11.1553 1.5 11.6913 1.53467 12.1107C1.568 12.524 1.63267 12.7807 1.736 12.984C1.94371 13.3916 2.27509 13.723 2.68267 13.9307C2.886 14.034 3.14267 14.098 3.556 14.132C3.976 14.166 4.512 14.1667 5.26667 14.1667H8.73333C9.48867 14.1667 10.0247 14.1667 10.444 14.132C10.8573 14.0987 11.114 14.034 11.3173 13.9307C11.7249 13.723 12.0563 13.3916 12.264 12.984C12.3673 12.7807 12.4313 12.524 12.4653 12.1107C12.4993 11.6907 12.5 11.1553 12.5 10.4V9.6C12.5 8.84467 12.5 8.30867 12.4653 7.88933C12.432 7.476 12.3673 7.21933 12.264 7.016C12.0563 6.60842 11.7249 6.27704 11.3173 6.06933C11.114 5.966 10.8573 5.902 10.444 5.868C10.024 5.834 9.488 5.83333 8.73333 5.83333H5.26667C4.512 5.83333 3.97533 5.83333 3.556 5.868ZM7.5 9.33333C7.5 9.20072 7.44732 9.07355 7.35355 8.97978C7.25979 8.88601 7.13261 8.83333 7 8.83333C6.86739 8.83333 6.74022 8.88601 6.64645 8.97978C6.55268 9.07355 6.5 9.20072 6.5 9.33333V10.6667C6.5 10.7993 6.55268 10.9265 6.64645 11.0202C6.74022 11.114 6.86739 11.1667 7 11.1667C7.13261 11.1667 7.25979 11.114 7.35355 11.0202C7.44732 10.9265 7.5 10.7993 7.5 10.6667V9.33333Z" fill="#636373"/>
</svg>
