<svg width="19" height="18" viewBox="0 0 19 18" fill="none" xmlns="http://www.w3.org/2000/svg">
<path fill-rule="evenodd" clip-rule="evenodd" d="M4.23996 2.42997C4.91746 2.05997 5.26079 1.87664 5.54163 1.77747V14.4208C5.51351 14.4269 5.48545 14.4333 5.45746 14.44C4.94079 14.5625 4.46246 14.8233 3.71996 15.2291L3.64079 15.2716L3.03663 15.6016C2.66829 15.8016 2.42996 15.9316 2.24746 16.01C2.18303 16.0424 2.11427 16.0654 2.04329 16.0783C2.00464 16.0729 1.96746 16.0598 1.93396 16.0397C1.90047 16.0197 1.87134 15.9931 1.84829 15.9616C1.82586 15.8935 1.81323 15.8225 1.81079 15.7508C1.79258 15.4551 1.78619 15.1587 1.79163 14.8625V4.58164C1.79163 4.10664 1.79996 4.01164 1.82329 3.93831C1.85168 3.85334 1.89801 3.77547 1.95913 3.70997C2.01163 3.65331 2.09079 3.60164 2.50829 3.37414L4.23996 2.42997ZM6.85329 14.3625C6.83275 14.3601 6.8122 14.3579 6.79163 14.3558V1.67747C7.10579 1.73081 7.46163 1.87164 8.27746 2.20497L10.25 3.01247L10.3333 3.04581C11.115 3.36664 11.6191 3.57331 12.1466 3.63747L12.2083 3.64497V16.3233C11.8941 16.2691 11.5383 16.1283 10.7225 15.795L8.74996 14.9875L8.66663 14.9541C7.88496 14.6333 7.38079 14.4275 6.85329 14.3625ZM13.4583 16.2225C13.7391 16.1233 14.0825 15.94 14.76 15.57L16.4916 14.6258C16.9083 14.3983 16.9883 14.3466 17.0408 14.29C17.1019 14.2245 17.1482 14.1466 17.1766 14.0616C17.2008 13.9883 17.2083 13.895 17.2083 13.4191V3.13747C17.2083 2.71831 17.2083 2.44747 17.1891 2.24914C17.1867 2.17716 17.1741 2.10589 17.1516 2.03747C17.1285 2.00612 17.0993 1.97972 17.0658 1.95983C17.0324 1.93993 16.9952 1.92695 16.9566 1.92164C16.8857 1.93456 16.8169 1.95757 16.7525 1.98997C16.5691 2.06831 16.3316 2.19831 15.9633 2.39831L15.3591 2.72831L15.28 2.77164C14.5383 3.17664 14.0591 3.43747 13.5425 3.55997C13.5145 3.56667 13.4864 3.57306 13.4583 3.57914V16.2225ZM5.45746 0.500807C5.91445 0.392365 6.3871 0.366123 6.85329 0.423307C7.38079 0.487473 7.88496 0.69414 8.66746 1.01497L8.75079 1.04831L10.7225 1.85497C11.6166 2.22164 11.9583 2.35497 12.2991 2.39664C12.6183 2.43581 12.9408 2.41831 13.2541 2.34414C13.5875 2.26497 13.9125 2.09414 14.76 1.63081L15.365 1.30081L15.39 1.28747C15.7258 1.10414 16.015 0.945807 16.2566 0.842473C16.5025 0.735807 16.79 0.642473 17.1041 0.680807C17.3161 0.706742 17.5204 0.776429 17.704 0.885452C17.8876 0.994475 18.0466 1.14046 18.1708 1.31414C18.3541 1.57081 18.41 1.86831 18.4341 2.13497C18.4583 2.39747 18.4583 2.72664 18.4583 3.10914V13.4941C18.4583 13.8508 18.4591 14.165 18.3625 14.4566C18.2773 14.7118 18.1384 14.9457 17.955 15.1425C17.7466 15.3675 17.47 15.5175 17.1558 15.6875L17.09 15.7233L15.3591 16.6675L15.28 16.7108C14.5383 17.1158 14.0591 17.3775 13.5425 17.4991C13.0855 17.6076 12.6128 17.6338 12.1466 17.5766C11.6191 17.5125 11.115 17.3058 10.3325 16.985L10.2491 16.9516L8.27746 16.145C7.38329 15.7783 7.04163 15.645 6.70079 15.6033C6.38182 15.5643 6.05844 15.5823 5.74579 15.6566C5.41246 15.7358 5.08746 15.9066 4.23996 16.3691L3.63496 16.6991L3.60996 16.7125C3.27413 16.8958 2.98496 17.0541 2.74329 17.1583C2.49746 17.2641 2.20996 17.3583 1.89579 17.3191C1.68383 17.2932 1.47956 17.2235 1.29595 17.1145C1.11233 17.0055 0.953364 16.8595 0.829126 16.6858C0.645793 16.4291 0.58996 16.1316 0.565793 15.865C0.541626 15.6033 0.541626 15.2733 0.541626 14.8916V4.50664C0.541626 4.14914 0.540793 3.83497 0.63746 3.54331C0.722631 3.28841 0.861604 3.0548 1.04496 2.85831C1.25329 2.63331 1.52996 2.48331 1.84413 2.31247L1.90996 2.27664L3.64079 1.33331L3.71996 1.28997C4.46163 0.884973 4.93996 0.62414 5.45746 0.50164V0.500807Z" fill="#6E3EF7"/>
</svg>
