<svg width="16" height="16" viewBox="0 0 16 16" fill="none" xmlns="http://www.w3.org/2000/svg">
<path fill-rule="evenodd" clip-rule="evenodd" d="M2.99967 6.33334C2.55803 6.33457 2.13482 6.51057 1.82252 6.82286C1.51023 7.13515 1.33424 7.55836 1.33301 8.00001C1.33301 8.91668 2.08301 9.66668 2.99967 9.66668C3.91634 9.66668 4.66634 8.91668 4.66634 8.00001C4.66634 7.08334 3.91634 6.33334 2.99967 6.33334ZM12.9997 6.33334C12.558 6.33457 12.1348 6.51057 11.8225 6.82286C11.5102 7.13515 11.3342 7.55836 11.333 8.00001C11.333 8.91668 12.083 9.66668 12.9997 9.66668C13.9163 9.66668 14.6663 8.91668 14.6663 8.00001C14.6663 7.08334 13.9163 6.33334 12.9997 6.33334ZM6.33301 8.00001C6.33301 7.08334 7.08301 6.33334 7.99967 6.33334C8.91634 6.33334 9.66634 7.08334 9.66634 8.00001C9.66634 8.91668 8.91634 9.66668 7.99967 9.66668C7.55803 9.66545 7.13482 9.48945 6.82252 9.17716C6.51023 8.86487 6.33424 8.44166 6.33301 8.00001Z" fill="#636373"/>
</svg>

