<svg width="8" height="22" viewBox="0 0 8 22" fill="none" xmlns="http://www.w3.org/2000/svg">
<path fill-rule="evenodd" clip-rule="evenodd" d="M0.469178 4.53C0.328727 4.38937 0.249837 4.19875 0.249837 4C0.249837 3.80125 0.328727 3.61062 0.469178 3.47L3.46918 0.469996C3.6098 0.329546 3.80043 0.250656 3.99918 0.250656C4.19793 0.250656 4.38855 0.329546 4.52918 0.469996L7.52918 3.47C7.66166 3.61217 7.73378 3.80022 7.73035 3.99452C7.72692 4.18882 7.64821 4.37421 7.5108 4.51162C7.37339 4.64903 7.188 4.72774 6.9937 4.73117C6.7994 4.7346 6.61135 4.66248 6.46918 4.53L4.74918 2.81V7C4.74918 7.19891 4.67016 7.38967 4.52951 7.53033C4.38885 7.67098 4.19809 7.75 3.99918 7.75C3.80027 7.75 3.6095 7.67098 3.46885 7.53033C3.3282 7.38967 3.24918 7.19891 3.24918 7V2.81L1.52918 4.53C1.38855 4.67045 1.19793 4.74934 0.999177 4.74934C0.800427 4.74934 0.609803 4.67045 0.469178 4.53ZM0.469178 18.53C0.395491 18.4613 0.336388 18.3785 0.295396 18.2865C0.254404 18.1945 0.232362 18.0952 0.230585 17.9945C0.228809 17.8938 0.247334 17.7938 0.285055 17.7004C0.322776 17.607 0.378921 17.5222 0.450139 17.451C0.521358 17.3797 0.606191 17.3236 0.69958 17.2859C0.792968 17.2482 0.892997 17.2296 0.993699 17.2314C1.0944 17.2332 1.19372 17.2552 1.28572 17.2962C1.37771 17.3372 1.46052 17.3963 1.52918 17.47L3.24918 19.19V15C3.24918 14.8011 3.3282 14.6103 3.46885 14.4697C3.6095 14.329 3.80027 14.25 3.99918 14.25C4.19809 14.25 4.38885 14.329 4.52951 14.4697C4.67016 14.6103 4.74918 14.8011 4.74918 15V19.19L6.46918 17.47C6.53784 17.3963 6.62064 17.3372 6.71264 17.2962C6.80464 17.2552 6.90395 17.2332 7.00466 17.2314C7.10536 17.2296 7.20539 17.2482 7.29878 17.2859C7.39216 17.3236 7.477 17.3797 7.54822 17.451C7.61943 17.5222 7.67558 17.607 7.7133 17.7004C7.75102 17.7938 7.76955 17.8938 7.76777 17.9945C7.76599 18.0952 7.74395 18.1945 7.70296 18.2865C7.66197 18.3785 7.60286 18.4613 7.52918 18.53L4.52918 21.53C4.38855 21.6704 4.19793 21.7493 3.99918 21.7493C3.80043 21.7493 3.6098 21.6704 3.46918 21.53L0.469178 18.53Z" fill="#CCCCE1"/>
</svg>
