<svg width="16" height="16" viewBox="0 0 16 16" fill="none" xmlns="http://www.w3.org/2000/svg">
<path d="M15.3168 8.31968C15.3168 7.81493 15.2679 7.29389 15.1865 6.80542H8.13623V9.6874H12.1743C12.0114 10.6155 11.4741 11.4296 10.6763 11.9506L13.0861 13.8231C14.5026 12.5043 15.3168 10.5829 15.3168 8.31968Z" fill="#4280EF"/>
<path d="M8.13622 15.6141C10.1552 15.6141 11.8486 14.9465 13.0861 13.8067L10.6763 11.9505C10.0087 12.4065 9.14573 12.667 8.13622 12.667C6.18234 12.667 4.53782 11.3481 3.93537 9.5896L1.46045 11.4946C2.73047 14.0184 5.30309 15.6141 8.13622 15.6141Z" fill="#34A353"/>
<path d="M3.93543 9.57339C3.62607 8.6453 3.62607 7.63579 3.93543 6.7077L1.46051 4.78638C0.40216 6.90309 0.40216 9.39429 1.46051 11.4947L3.93543 9.57339Z" fill="#F6B704"/>
<path d="M8.13622 3.6303C9.19458 3.61402 10.2366 4.02108 11.0019 4.75379L13.1349 2.60451C11.7835 1.33449 9.99241 0.650628 8.13622 0.66691C5.30309 0.66691 2.73047 2.26258 1.46045 4.78635L3.93537 6.70767C4.53782 4.93289 6.18234 3.6303 8.13622 3.6303Z" fill="#E54335"/>
</svg>
