<svg width="14" height="16" viewBox="0 0 14 16" fill="none" xmlns="http://www.w3.org/2000/svg">
<path d="M4.70417 10.0953L5.4732 9.92482C5.48926 9.92127 5.51644 9.91535 5.54856 9.90529C5.76097 9.85073 5.94299 9.7193 6.05625 9.5387C6.16951 9.35809 6.20519 9.14242 6.15575 8.93712L6.15266 8.9241C6.12724 8.82574 6.08283 8.7328 6.02171 8.6501C5.9356 8.54538 5.82902 8.45774 5.70792 8.39207C5.56535 8.31424 5.41616 8.24812 5.26195 8.19441L4.4188 7.89911C3.94564 7.73045 3.47249 7.56652 2.9944 7.40614C2.68493 7.3008 2.42242 7.20789 2.19449 7.13984C2.1511 7.12833 2.10806 7.1157 2.06539 7.10196C1.7899 7.02148 1.59594 6.98774 1.43225 6.98656C1.32285 6.98266 1.21388 7.00164 1.11291 7.04219C1.00742 7.08594 0.912714 7.15046 0.834945 7.23156C0.796364 7.27353 0.760075 7.31738 0.72623 7.36294C0.660423 7.45981 0.606141 7.56342 0.564396 7.67186C0.407748 8.11513 0.329663 8.5804 0.333379 9.04837C0.336467 9.47091 0.348203 10.0136 0.590956 10.3817C0.649637 10.4764 0.728085 10.558 0.821356 10.6214C0.99431 10.7356 1.1685 10.751 1.35072 10.7634C1.6225 10.7817 1.88502 10.7184 2.14754 10.6598L4.70232 10.0947L4.70417 10.0953ZM13.2839 6.18409C13.074 5.76193 12.7917 5.37646 12.4488 5.0437C12.4045 5.00138 12.357 4.96221 12.3067 4.92652C12.2603 4.89315 12.212 4.86213 12.1622 4.83361C12.1109 4.80667 12.0581 4.78237 12.0041 4.76082C11.8974 4.72065 11.7831 4.7025 11.6687 4.70756C11.5593 4.71348 11.4525 4.74307 11.3555 4.79218C11.2091 4.86202 11.0503 4.97446 10.8391 5.16206C10.8101 5.18987 10.7736 5.22124 10.7403 5.25083C10.5667 5.40765 10.3727 5.60117 10.1423 5.82605C9.78593 6.17107 9.4357 6.51786 9.0867 6.86761L8.46284 7.48781C8.34891 7.60093 8.24518 7.72308 8.15275 7.85295C8.07361 7.96285 8.01759 8.08647 7.98783 8.2169C7.97112 8.3171 7.97364 8.41938 7.99524 8.51872L7.99833 8.53174C8.04763 8.73683 8.17807 8.91559 8.36218 9.03039C8.54629 9.14518 8.76971 9.18706 8.9854 9.1472C9.01137 9.1437 9.03714 9.13896 9.06261 9.133L12.387 8.39681C12.6496 8.33881 12.9152 8.28555 13.1505 8.15417C13.3086 8.06718 13.4587 7.98018 13.5619 7.80501C13.6168 7.70853 13.6501 7.60209 13.6595 7.49254C13.7107 7.05817 13.4742 6.5652 13.2839 6.18409ZM7.33246 7.52332C7.57336 7.23334 7.57335 6.80133 7.59436 6.44743C7.66724 5.2668 7.74322 4.08617 7.80437 2.90495C7.82723 2.45755 7.87726 2.01607 7.84946 1.56513C7.82661 1.19348 7.82414 0.766203 7.57892 0.460837C7.14653 -0.0776965 6.2237 -0.0333117 5.59427 0.0507232C5.4001 0.0764195 5.20736 0.111179 5.01673 0.154879C4.82524 0.198672 4.63499 0.246607 4.44968 0.304011C3.84558 0.493386 2.99625 0.841361 2.85295 1.50831C2.77141 1.88529 2.96413 2.27055 3.11238 2.61497C3.29336 3.03159 3.53982 3.40738 3.76466 3.79974C4.3595 4.83598 4.96484 5.86629 5.56832 6.8972C5.74931 7.20493 5.94512 7.59433 6.29411 7.75412C6.31759 7.76359 6.34106 7.77187 6.36515 7.77957C6.52142 7.83638 6.69252 7.84703 6.85498 7.81093L6.88401 7.80501C7.03473 7.76536 7.17062 7.68665 7.27748 7.57836C7.29725 7.5606 7.31516 7.54285 7.33307 7.52332H7.33246ZM7.04399 10.6841C6.94997 10.5574 6.81653 10.4624 6.66276 10.4128C6.50898 10.3631 6.34275 10.3614 6.18787 10.4077C6.15143 10.4192 6.11592 10.4333 6.08163 10.4497C6.02855 10.4757 5.97791 10.506 5.93029 10.5403C5.79431 10.6429 5.67284 10.7621 5.56894 10.8948C5.54238 10.9273 5.51767 10.9705 5.48555 10.9989L4.95063 11.7032C4.64796 12.0985 4.34838 12.4944 4.05251 12.8962C3.85855 13.156 3.69177 13.3756 3.55897 13.5691C3.53426 13.6058 3.50832 13.646 3.48485 13.6792C3.3261 13.9135 3.23653 14.0851 3.19021 14.2378C3.1556 14.3393 3.14463 14.4467 3.15809 14.5527C3.17291 14.6627 3.21183 14.7687 3.27174 14.8639C3.30386 14.9113 3.33845 14.9574 3.37551 15.0018C3.45557 15.0901 3.5457 15.1695 3.64421 15.2385C4.01359 15.4847 4.41756 15.6617 4.84254 15.7984C5.19647 15.9108 5.564 15.9783 5.93585 15.9984C5.99947 16.0014 6.0631 16.0002 6.1261 15.9949C6.18452 15.9896 6.24265 15.9817 6.30029 15.9712C6.35796 15.9583 6.41487 15.9425 6.47077 15.9238C6.57947 15.8848 6.67838 15.8243 6.76109 15.7463C6.83954 15.6712 6.90007 15.5806 6.93775 15.4806C6.99952 15.3326 7.04029 15.1456 7.06747 14.8675C7.06932 14.8278 7.07549 14.7805 7.07982 14.7373C7.10082 14.5065 7.1107 14.2343 7.12553 13.9159C7.15209 13.4253 7.17247 12.9371 7.18853 12.4476L7.22312 11.5765C7.23115 11.3765 7.22436 11.154 7.16629 10.9545C7.14077 10.8587 7.09948 10.7675 7.04399 10.6841ZM13.0807 12.047C12.9695 11.9292 12.8114 11.8126 12.5618 11.6682C12.526 11.6487 12.4834 11.6233 12.4445 11.6008C12.2369 11.4807 11.9868 11.3552 11.6946 11.2031C11.2455 10.9664 10.7965 10.7368 10.3425 10.5083L9.54132 10.1012C9.49994 10.0893 9.45794 10.0609 9.4184 10.0426C9.26436 9.9672 9.10074 9.9113 8.93166 9.87629C8.87342 9.86552 8.81431 9.85958 8.755 9.85854C8.7166 9.85835 8.67822 9.86052 8.64011 9.86505C8.47973 9.88878 8.33126 9.96043 8.2159 10.0698C8.10054 10.1791 8.02418 10.3206 7.99771 10.474C7.98597 10.5717 7.98968 10.6705 8.00945 10.7664C8.04836 10.9711 8.14349 11.1729 8.24232 11.3499L8.66976 12.1186C8.90819 12.5518 9.14909 12.9826 9.39616 13.4123C9.55553 13.6922 9.68834 13.9319 9.81249 14.1307C9.83596 14.168 9.86252 14.2082 9.88291 14.2431C10.0342 14.4816 10.1553 14.632 10.2782 14.7403C10.3601 14.8157 10.4584 14.8729 10.566 14.9077C10.6737 14.9425 10.788 14.954 10.9009 14.9415C10.9596 14.9346 11.018 14.9247 11.0757 14.9119C11.1938 14.8816 11.308 14.8385 11.416 14.7835C11.7412 14.6089 12.0408 14.394 12.3074 14.1443C12.6273 13.8425 12.9102 13.5135 13.1301 13.1371C13.161 13.0838 13.1869 13.0288 13.2092 12.9714C13.2299 12.9188 13.2478 12.8653 13.2629 12.811C13.2759 12.7554 13.2858 12.6997 13.2926 12.6435C13.3037 12.533 13.2904 12.4215 13.2537 12.3163C13.2174 12.2152 13.1583 12.1231 13.0807 12.0464V12.047Z" fill="#FF1A1A"/>
</svg>
