<svg width="12" height="16" viewBox="0 0 12 16" fill="none" xmlns="http://www.w3.org/2000/svg">
<path d="M9.5483 2.31043L9.16506 4.16096C9.12126 4.35806 8.93511 4.53325 8.70516 4.53325H5.3764C5.0041 4.53325 4.6975 4.83985 4.6975 5.21215V5.61729C4.6975 5.98959 5.0041 6.29619 5.3764 6.29619H8.19052C8.45331 6.29619 8.67231 6.54803 8.61756 6.82178C8.56281 7.10648 8.26717 8.55186 8.23432 8.70516C8.21242 8.86941 8.03722 9.07746 7.77442 9.07746H5.47494C4.99315 9.08841 4.8946 9.09936 4.6099 9.44975C4.32521 9.80015 1.80673 12.9537 1.80673 12.9537C1.78483 12.9866 1.76293 12.9756 1.76293 12.9428V2.22283C1.76293 1.97098 1.97098 1.76293 2.22283 1.76293H9.13221C9.37311 1.76293 9.614 2.00383 9.5483 2.31043ZM10.052 0C10.052 0 2.70462 0 1.52203 0C0.350396 0 0 0.886941 0 1.44539V15.0013C0 15.6693 0.339447 15.8664 0.525595 15.943C0.711743 16.0197 1.20449 16.0744 1.55488 15.724C1.55488 15.724 5.60634 11.0046 5.67204 10.928C5.73774 10.8513 5.77059 10.8513 5.81439 10.8513C5.85819 10.8513 7.53352 10.8513 8.37667 10.8513C9.47165 10.8513 9.6797 10.0958 9.80015 9.6359C9.8987 9.25266 11.0265 3.77771 11.3769 2.04763C11.6397 0.711743 11.3003 0 10.052 0Z" fill="#FA4778"/>
</svg>
