<svg width="20" height="20" viewBox="0 0 20 20" fill="none" xmlns="http://www.w3.org/2000/svg">
<path fill-rule="evenodd" clip-rule="evenodd" d="M10.442 1.225C10.3248 1.10796 10.166 1.04222 10.0003 1.04222C9.8347 1.04222 9.67585 1.10796 9.55866 1.225L6.22533 4.55834C6.11493 4.67682 6.05482 4.83352 6.05768 4.99544C6.06054 5.15736 6.12613 5.31185 6.24064 5.42636C6.35515 5.54087 6.50964 5.60646 6.67156 5.60932C6.83348 5.61217 6.99018 5.55207 7.10866 5.44167L9.37533 3.175V12.5C9.37533 12.6658 9.44117 12.8247 9.55838 12.9419C9.67559 13.0592 9.83457 13.125 10.0003 13.125C10.1661 13.125 10.3251 13.0592 10.4423 12.9419C10.5595 12.8247 10.6253 12.6658 10.6253 12.5V3.175L12.892 5.44167C12.9492 5.50308 13.0182 5.55233 13.0949 5.58649C13.1715 5.62065 13.2543 5.63902 13.3382 5.6405C13.4221 5.64198 13.5055 5.62654 13.5833 5.59511C13.6611 5.56367 13.7318 5.51689 13.7912 5.45754C13.8505 5.39819 13.8973 5.32749 13.9288 5.24967C13.9602 5.17185 13.9756 5.08849 13.9742 5.00457C13.9727 4.92065 13.9543 4.83789 13.9201 4.76122C13.886 4.68456 13.8367 4.61556 13.7753 4.55834L10.442 1.225ZM6.25033 7.70834H6.13116C5.08283 7.70834 4.41449 7.70834 3.85116 7.87917C3.22839 8.06816 2.66183 8.40778 2.20163 8.86798C1.74144 9.32817 1.40181 9.89474 1.21283 10.5175C1.04199 11.0808 1.04199 11.7492 1.04199 12.7975V13.3558C1.04199 14.1142 1.04199 14.7142 1.07533 15.2C1.10866 15.6967 1.17949 16.12 1.34366 16.515C1.7454 17.4846 2.51575 18.2549 3.48533 18.6567C3.88033 18.8208 4.30366 18.8908 4.80033 18.925C5.28699 18.9583 5.88699 18.9583 6.64449 18.9583H13.3562C14.1145 18.9583 14.7145 18.9583 15.2003 18.925C15.697 18.8917 16.1203 18.8208 16.5153 18.6567C17.4849 18.2549 18.2553 17.4846 18.657 16.515C18.8212 16.12 18.8912 15.6967 18.9253 15.2C18.9587 14.7133 18.9587 14.1133 18.9587 13.3558V12.7975C18.9587 11.7492 18.9587 11.0808 18.7887 10.5175C18.5996 9.89464 18.2598 9.32801 17.7995 8.86781C17.3391 8.40761 16.7724 8.06804 16.1495 7.87917C15.5862 7.70834 14.9178 7.70834 13.8695 7.70834H13.3337C13.1679 7.70834 13.0089 7.77419 12.8917 7.8914C12.7745 8.00861 12.7087 8.16758 12.7087 8.33334C12.7087 8.4991 12.7745 8.65807 12.8917 8.77528C13.0089 8.89249 13.1679 8.95834 13.3337 8.95834H13.7503C14.9587 8.95834 15.4245 8.965 15.7862 9.075C16.2125 9.20428 16.6003 9.43671 16.9153 9.75171C17.2303 10.0667 17.4627 10.4545 17.592 10.8808C17.702 11.2425 17.7087 11.7083 17.7087 12.9167V13.3333C17.7087 14.1183 17.7087 14.6758 17.6787 15.115C17.6487 15.5483 17.5928 15.8192 17.5028 16.0367C17.3666 16.3654 17.167 16.664 16.9153 16.9155C16.6637 17.167 16.3649 17.3665 16.0362 17.5025C15.8195 17.5925 15.5478 17.6483 15.1153 17.6775C14.6762 17.7083 14.1187 17.7083 13.3337 17.7083H6.66699C5.88199 17.7083 5.32449 17.7083 4.88533 17.6783C4.45199 17.6483 4.18116 17.5925 3.96366 17.5025C3.63497 17.3663 3.33633 17.1667 3.08482 16.915C2.8333 16.6634 2.63384 16.3646 2.49783 16.0358C2.40783 15.8192 2.35199 15.5475 2.32283 15.115C2.29199 14.675 2.29199 14.1183 2.29199 13.3333V12.9167C2.29199 11.7083 2.29866 11.2425 2.40866 10.8808C2.53793 10.4545 2.77037 10.0667 3.08536 9.75171C3.40036 9.43671 3.78819 9.20428 4.21449 9.075C4.57616 8.965 5.04199 8.95834 6.25033 8.95834H6.66699C6.83275 8.95834 6.99172 8.89249 7.10893 8.77528C7.22614 8.65807 7.29199 8.4991 7.29199 8.33334C7.29199 8.16758 7.22614 8.00861 7.10893 7.8914C6.99172 7.77419 6.83275 7.70834 6.66699 7.70834H6.25033Z" fill="#6E3EF7"/>
</svg>

