<svg width="14" height="14" viewBox="0 0 14 14" fill="none" xmlns="http://www.w3.org/2000/svg">
<path fill-rule="evenodd" clip-rule="evenodd" d="M7.44893 1.1132C7.36493 0.941927 7.1908 0.833374 7 0.833374C6.80927 0.833374 6.63513 0.941927 6.55113 1.1132L4.66694 4.95483L0.927194 5.50537C0.740041 5.53292 0.584461 5.66373 0.525188 5.84338C0.465921 6.02303 0.513108 6.22074 0.647121 6.35425L3.45119 9.14791L2.51242 13.2828C2.46939 13.4724 2.54011 13.6696 2.69376 13.7887C2.84741 13.9078 3.05614 13.927 3.22895 13.838L7 11.8958L10.7711 13.838C10.9439 13.927 11.1526 13.9078 11.3063 13.7887C11.4599 13.6696 11.5307 13.4724 11.4876 13.2828L10.5489 9.14791L13.3529 6.35425C13.4869 6.22074 13.5341 6.02303 13.4749 5.84338C13.4156 5.66373 13.26 5.53292 13.0729 5.50537L9.33307 4.95483L7.44893 1.1132Z" fill="#FFA726"/>
</svg>
