<svg width="14" height="18" viewBox="0 0 14 18" fill="none" xmlns="http://www.w3.org/2000/svg">
  <path fill-rule="evenodd" clip-rule="evenodd"
        d="M8.04297 2.12775C7.86846 2.1255 7.66659 2.12497 7.43023 2.12497H6.16797C4.97179 2.12497 4.13753 2.12629 3.50807 2.21092C2.89659 2.29313 2.57278 2.44351 2.34214 2.67414C2.11151 2.90478 1.96114 3.22859 1.87893 3.84007C1.7943 4.46953 1.79297 5.30379 1.79297 6.49997V11.5C1.79297 12.6961 1.7943 13.5304 1.87893 14.1599C1.96114 14.7713 2.11151 15.0952 2.34214 15.3258C2.57278 15.5564 2.89659 15.7068 3.50807 15.789C4.13753 15.8736 4.97179 15.875 6.16797 15.875H7.83464C9.03082 15.875 9.86508 15.8736 10.4945 15.789C11.106 15.7068 11.4298 15.5564 11.6605 15.3258C11.8911 15.0952 12.0415 14.7713 12.1237 14.1599C12.2083 13.5304 12.2096 12.6961 12.2096 11.5V6.90437C12.2096 6.66804 12.2091 6.46619 12.2069 6.2917H12.0013L11.958 6.2917C11.2092 6.29173 10.5849 6.29175 10.0892 6.22511C9.56607 6.15477 9.09374 6.00005 8.71418 5.62049C8.33462 5.24093 8.1799 4.7686 8.10956 4.24544C8.04292 3.74979 8.04294 3.12544 8.04297 2.3767L8.04297 2.33337V2.12775ZM9.29297 2.31903V2.33337C9.29297 3.13671 9.2943 3.67635 9.34841 4.07888C9.40012 4.46343 9.48947 4.62801 9.59806 4.73661C9.70666 4.8452 9.87124 4.93456 10.2558 4.98626C10.6583 5.04038 11.198 5.0417 12.0013 5.0417H12.0156C11.8706 4.76532 11.5986 4.48117 10.9282 3.81078L10.5238 3.40637C9.85349 2.73604 9.56933 2.46409 9.29297 2.31903ZM7.54907 0.874929C8.45555 0.874497 9.08551 0.874196 9.66165 1.11284C10.2378 1.35149 10.683 1.79715 11.3237 2.43844L11.4077 2.52249L11.8121 2.92689L11.8962 3.01089C12.5374 3.65156 12.9831 4.0968 13.2218 4.67295C13.4604 5.24909 13.4601 5.87905 13.4597 6.78552V6.78553L13.4596 6.90437V11.5V11.5457V11.5457V11.5457C13.4597 12.6854 13.4597 13.604 13.3625 14.3264C13.2617 15.0765 13.0459 15.7081 12.5443 16.2097C12.0427 16.7113 11.4112 16.927 10.6611 17.0279C9.93862 17.125 9.02002 17.125 7.88036 17.125H7.83464H6.16797H6.12224C4.98258 17.125 4.06398 17.125 3.34151 17.0279C2.59142 16.927 1.95986 16.7113 1.45826 16.2097C0.956664 15.7081 0.740919 15.0765 0.640072 14.3264C0.542938 13.604 0.542952 12.6854 0.542969 11.5457V11.5V6.49997V6.45424C0.542952 5.31458 0.542938 4.39598 0.640072 3.67351C0.740919 2.92342 0.956664 2.29186 1.45826 1.79026C1.95986 1.28866 2.59142 1.07292 3.34151 0.972069C4.06398 0.874935 4.98258 0.874949 6.12224 0.874966L6.16797 0.874967H7.43023L7.54907 0.874929ZM6.55935 7.72481C6.80343 7.48073 7.19916 7.48073 7.44324 7.72481L9.52657 9.80814C9.77065 10.0522 9.77065 10.4479 9.52657 10.692C9.28249 10.9361 8.88677 10.9361 8.64269 10.692L7.6263 9.67563V13.1667C7.6263 13.5119 7.34647 13.7917 7.0013 13.7917C6.65612 13.7917 6.3763 13.5119 6.3763 13.1667V9.67563L5.35991 10.692C5.11583 10.9361 4.7201 10.9361 4.47602 10.692C4.23194 10.4479 4.23194 10.0522 4.47602 9.80814L6.55935 7.72481Z"
        fill="#848496"/>
</svg>

