<svg width="16" height="16" viewBox="0 0 16 16" fill="none" xmlns="http://www.w3.org/2000/svg">
<g clip-path="url(#clip0_782_31344)">
<path fill-rule="evenodd" clip-rule="evenodd" d="M3.16699 4.00001C3.16699 3.42537 3.39527 2.87427 3.80159 2.46795C4.20792 2.06162 4.75902 1.83334 5.33366 1.83334C5.90829 1.83334 6.45939 2.06162 6.86572 2.46795C7.27205 2.87427 7.50033 3.42537 7.50033 4.00001C7.50033 4.57465 7.27205 5.12575 6.86572 5.53207C6.45939 5.9384 5.90829 6.16668 5.33366 6.16668C4.75902 6.16668 4.20792 5.9384 3.80159 5.53207C3.39527 5.12575 3.16699 4.57465 3.16699 4.00001ZM5.33366 0.833344C4.49381 0.833344 3.68835 1.16697 3.09449 1.76084C2.50062 2.3547 2.16699 3.16016 2.16699 4.00001C2.16699 4.83986 2.50062 5.64532 3.09449 6.23918C3.68835 6.83305 4.49381 7.16668 5.33366 7.16668C6.17351 7.16668 6.97896 6.83305 7.57283 6.23918C8.1667 5.64532 8.50033 4.83986 8.50033 4.00001C8.50033 3.16016 8.1667 2.3547 7.57283 1.76084C6.97896 1.16697 6.17351 0.833344 5.33366 0.833344ZM10.0003 0.833344C9.86772 0.833344 9.74054 0.886022 9.64677 0.97979C9.553 1.07356 9.50033 1.20074 9.50033 1.33334C9.50033 1.46595 9.553 1.59313 9.64677 1.6869C9.74054 1.78067 9.86772 1.83334 10.0003 1.83334C10.575 1.83334 11.1261 2.06162 11.5324 2.46795C11.9387 2.87427 12.167 3.42537 12.167 4.00001C12.167 4.57465 11.9387 5.12575 11.5324 5.53207C11.1261 5.9384 10.575 6.16668 10.0003 6.16668C9.86772 6.16668 9.74054 6.21936 9.64677 6.31312C9.553 6.40689 9.50033 6.53407 9.50033 6.66668C9.50033 6.79929 9.553 6.92646 9.64677 7.02023C9.74054 7.114 9.86772 7.16668 10.0003 7.16668C10.8402 7.16668 11.6456 6.83305 12.2395 6.23918C12.8334 5.64532 13.167 4.83986 13.167 4.00001C13.167 3.16016 12.8334 2.3547 12.2395 1.76084C11.6456 1.16697 10.8402 0.833344 10.0003 0.833344ZM0.166992 12.5333C0.166992 12.0475 0.262696 11.5663 0.448638 11.1174C0.63458 10.6685 0.90712 10.2606 1.2507 9.91705C1.94458 9.22316 2.88569 8.83334 3.86699 8.83334H6.80032C7.28622 8.83334 7.76735 8.92905 8.21625 9.11499C8.66516 9.30093 9.07304 9.57347 9.41662 9.91705C9.7602 10.2606 10.0327 10.6685 10.2187 11.1174C10.4046 11.5663 10.5003 12.0475 10.5003 12.5333C10.5003 13.2317 10.2229 13.9015 9.72904 14.3954C9.23519 14.8892 8.5654 15.1667 7.86699 15.1667H2.80033C2.10192 15.1667 1.43212 14.8892 0.938278 14.3954C0.444432 13.9015 0.166992 13.2317 0.166992 12.5333ZM3.86699 9.83334C3.15091 9.83334 2.46415 10.1178 1.9578 10.6242C1.45146 11.1305 1.16699 11.8173 1.16699 12.5333C1.16699 12.9665 1.33907 13.382 1.64538 13.6883C1.95169 13.9946 2.36714 14.1667 2.80033 14.1667H7.86699C8.30018 14.1667 8.71562 13.9946 9.02193 13.6883C9.32824 13.382 9.50033 12.9665 9.50033 12.5333C9.50033 11.8173 9.21586 11.1305 8.70951 10.6242C8.20317 10.1178 7.51641 9.83334 6.80032 9.83334H3.86699ZM11.3337 8.83334C11.201 8.83334 11.0739 8.88602 10.9801 8.97979C10.8863 9.07356 10.8337 9.20074 10.8337 9.33334C10.8337 9.46595 10.8863 9.59313 10.9801 9.6869C11.0739 9.78067 11.201 9.83334 11.3337 9.83334H12.1337C12.8497 9.83334 13.5365 10.1178 14.0428 10.6242C14.5492 11.1305 14.8337 11.8173 14.8337 12.5333C14.8337 12.9665 14.6616 13.382 14.3553 13.6883C14.049 13.9946 13.6335 14.1667 13.2003 14.1667H11.3337C11.201 14.1667 11.0739 14.2194 10.9801 14.3131C10.8863 14.4069 10.8337 14.5341 10.8337 14.6667C10.8337 14.7993 10.8863 14.9265 10.9801 15.0202C11.0739 15.114 11.201 15.1667 11.3337 15.1667H13.2003C13.8987 15.1667 14.5685 14.8892 15.0624 14.3954C15.5562 13.9015 15.8337 13.2317 15.8337 12.5333C15.8337 12.0475 15.738 11.5663 15.552 11.1174C15.3661 10.6685 15.0935 10.2606 14.75 9.91705C14.4064 9.57347 13.9985 9.30093 13.5496 9.11499C13.1007 8.92905 12.6195 8.83334 12.1337 8.83334H11.3337Z" fill="#21212D"/>
</g>
<defs>
<clipPath id="clip0_782_31344">
<rect width="16" height="16" fill="white"/>
</clipPath>
</defs>
</svg>

