<svg width="16" height="16" viewBox="0 0 16 16" fill="none" xmlns="http://www.w3.org/2000/svg">
<g clip-path="url(#clip0_782_22194)">
<path fill-rule="evenodd" clip-rule="evenodd" d="M5.33301 1.83334C4.66834 1.83334 4.10501 2.26534 3.90767 2.86401C4.35501 2.83334 4.90101 2.83334 5.57767 2.83334H10.4217C11.0983 2.83334 11.6443 2.83334 12.0917 2.86401C11.9928 2.56409 11.8018 2.30301 11.5458 2.11796C11.2899 1.93291 10.9822 1.83331 10.6663 1.83334H5.33301ZM5.33301 0.833344C4.71797 0.83332 4.12451 1.06001 3.66611 1.47007C3.20772 1.88013 2.91657 2.44477 2.84834 3.05601C2.75034 3.09068 2.65501 3.13134 2.56167 3.17868C1.96601 3.4824 1.48178 3.96687 1.17834 4.56268C0.991008 4.92934 0.909675 5.33201 0.871008 5.80801C0.833008 6.27268 0.833008 6.85001 0.833008 7.57801V8.42201C0.833008 9.15001 0.833008 9.72734 0.871008 10.192C0.909675 10.668 0.991008 11.07 1.17767 11.438C1.48157 12.0338 1.96629 12.518 2.56234 12.8213C2.65501 12.8687 2.75034 12.9093 2.84834 12.944C2.91657 13.5553 3.20772 14.1199 3.66611 14.53C4.12451 14.94 4.71797 15.1667 5.33301 15.1667H10.6663C11.2814 15.1667 11.8748 14.94 12.3332 14.53C12.7916 14.1199 13.0828 13.5553 13.151 12.944C13.249 12.9093 13.3443 12.8687 13.4377 12.8213C14.0332 12.5178 14.5175 12.0336 14.821 11.438C15.0083 11.07 15.0897 10.668 15.1283 10.192C15.1663 9.72734 15.1663 9.15001 15.1663 8.42201V7.57801C15.1663 6.85001 15.1663 6.27268 15.1283 5.80801C15.0897 5.33201 15.0083 4.93001 14.8217 4.56268C14.5181 3.96677 14.0336 3.48229 13.4377 3.17868C13.3449 3.1316 13.2491 3.09062 13.151 3.05601C13.0828 2.44477 12.7916 1.88013 12.3332 1.47007C11.8748 1.06001 11.2814 0.83332 10.6663 0.833344H5.33301ZM12.0917 13.136C11.6443 13.1667 11.0983 13.1667 10.4217 13.1667H5.57767C4.90101 13.1667 4.35501 13.1667 3.90767 13.136C4.0065 13.436 4.19748 13.6971 4.45342 13.8822C4.70935 14.0673 5.01717 14.1668 5.33301 14.1667H10.6663C11.331 14.1667 11.8943 13.7347 12.0917 13.136ZM3.01634 4.06934C3.21901 3.96601 3.47501 3.90201 3.88901 3.86801C4.30901 3.83401 4.84501 3.83334 5.59967 3.83334H10.3997C11.155 3.83334 11.691 3.83334 12.1103 3.86801C12.5237 3.90134 12.7803 3.96601 12.9837 4.06934C13.3913 4.27705 13.7226 4.60843 13.9303 5.01601C14.0337 5.21934 14.0977 5.47601 14.1317 5.88934C14.1657 6.30934 14.1663 6.84534 14.1663 7.60001V8.40001C14.1663 9.15534 14.1663 9.69134 14.1317 10.1107C14.0983 10.524 14.0337 10.7807 13.9303 10.984C13.7226 11.3916 13.3913 11.723 12.9837 11.9307C12.7803 12.034 12.5237 12.098 12.1103 12.132C11.6903 12.166 11.155 12.1667 10.3997 12.1667H5.59967C4.84501 12.1667 4.30834 12.1667 3.88901 12.132C3.47567 12.0987 3.21901 12.034 3.01567 11.9307C2.6081 11.723 2.27672 11.3916 2.06901 10.984C1.96567 10.7807 1.90167 10.524 1.86767 10.1107C1.83367 9.69068 1.83301 9.15468 1.83301 8.40001V7.60001C1.83301 6.84468 1.83301 6.30868 1.86767 5.88934C1.90101 5.47601 1.96567 5.21934 2.06901 5.01601C2.27672 4.60843 2.6081 4.27705 3.01567 4.06934H3.01634ZM8.60167 6.02268L8.58301 6.01001C8.32967 5.84134 8.11167 5.69668 7.92901 5.59668C7.74567 5.49801 7.51967 5.39934 7.26367 5.41468C7.0954 5.42457 6.93126 5.47082 6.78257 5.55023C6.63387 5.62964 6.50416 5.74033 6.40234 5.87468C6.24767 6.08001 6.20434 6.32268 6.18501 6.53001C6.16634 6.73668 6.16634 6.99934 6.16634 7.30334V8.69668C6.16634 9.00068 6.16634 9.26334 6.18501 9.47001C6.20434 9.67668 6.24767 9.92001 6.40234 10.1247C6.60901 10.3967 6.92234 10.5647 7.26367 10.5853C7.51967 10.6007 7.74567 10.502 7.92901 10.4033C8.11167 10.3033 8.32967 10.1587 8.58234 9.99001L8.60234 9.97668L9.61234 9.30334L9.63034 9.29134C9.83701 9.15334 10.0203 9.03134 10.1597 8.91934C10.303 8.80401 10.4557 8.65601 10.5423 8.44668C10.601 8.30507 10.6312 8.15329 10.6312 8.00001C10.6312 7.84673 10.601 7.69495 10.5423 7.55334C10.4557 7.34401 10.303 7.19601 10.1597 7.08001C10.0203 6.96868 9.83768 6.84668 9.63034 6.70868L9.61234 6.69668L8.60167 6.02334V6.02268ZM7.20634 6.47068C7.23345 6.43887 7.27152 6.4184 7.31301 6.41334C7.32501 6.41668 7.36634 6.42934 7.45301 6.47601C7.59034 6.55068 7.76967 6.66934 8.04767 6.85468L9.05767 7.52801C9.28834 7.68201 9.43234 7.77934 9.53101 7.85868C9.56391 7.88314 9.59409 7.91108 9.62101 7.94201C9.63434 7.97934 9.63434 8.02068 9.62101 8.05801C9.5943 8.0889 9.56435 8.11684 9.53168 8.14134C9.43234 8.22134 9.28834 8.31801 9.05834 8.47134L8.04767 9.14468C7.76967 9.33001 7.59034 9.44934 7.45234 9.52401C7.36567 9.57068 7.32501 9.58334 7.31301 9.58668C7.27152 9.58162 7.23345 9.56115 7.20634 9.52934C7.19239 9.4802 7.1839 9.42968 7.18101 9.37868C7.16679 9.14385 7.16189 8.90856 7.16634 8.67334V7.32668C7.16634 6.99334 7.16634 6.77734 7.18101 6.62134C7.19034 6.52334 7.20234 6.48201 7.20634 6.47068Z" fill="#636373"/>
</g>
<defs>
<clipPath id="clip0_782_22194">
<rect width="16" height="16" fill="white"/>
</clipPath>
</defs>
</svg>

