<svg width="80" height="32" viewBox="0 0 80 32" fill="none" xmlns="http://www.w3.org/2000/svg">
<g clip-path="url(#clip0_103_36603)">
<path d="M78.5845 11.1988C78.1571 10.3184 77.5825 9.51446 76.8846 8.82032C76.7444 8.68689 76.5942 8.56413 76.435 8.45313C76.3152 8.36193 76.1903 8.27739 76.0609 8.19989H76.0341L76.0004 8.18042C75.8605 8.10585 75.7168 8.03855 75.5697 7.9788H75.532C75.1626 7.83558 74.7691 7.7619 74.3719 7.76161H74.2072C73.7706 7.78888 73.3448 7.90381 72.9568 8.10055C72.4979 8.33965 72.0768 8.64279 71.7065 9.0005H71.6837L71.6608 9.0229C71.6464 9.03928 71.6301 9.05399 71.6122 9.06673L71.5408 9.13296C71.2867 9.36769 71.0317 9.6219 70.736 9.91896L70.5266 10.1332C70.2611 10.3941 69.9978 10.657 69.7367 10.9222C69.818 9.53327 69.9054 8.11126 69.9758 6.69997C69.9758 6.51979 69.9947 6.33278 70.0096 6.15552C70.0622 5.53899 70.0751 4.91857 70.0473 4.3001V4.14913C70.0096 3.44398 69.95 2.38137 69.2336 1.4707C68.7076 0.792816 67.6577 0 65.6591 0C65.2068 0.0029952 64.7552 0.036187 64.3075 0.0993454C63.572 0.201863 62.8466 0.365428 62.1392 0.588281C59.9154 1.30513 58.6313 2.4252 58.3088 3.94752C58.0726 5.07538 58.4963 6.05715 58.7732 6.70679L58.8327 6.84704C59.0838 7.41682 59.3726 7.96906 59.6981 8.50085L59.968 8.97518C60.6568 10.2049 61.3545 11.4299 62.0608 12.65L60.9891 12.2828L60.7162 12.1873C60.3193 12.0442 59.968 11.9224 59.6415 11.8192L59.5522 11.7939L59.4887 11.7754H59.4281C58.9348 11.6132 58.4199 11.523 57.8999 11.5075H57.8186C57.4082 11.5058 57.0018 11.5856 56.6238 11.7422C56.205 11.9156 55.8299 12.1747 55.5223 12.5029C55.4198 12.6216 55.3225 12.7444 55.2305 12.8711L55.2087 12.9003L55.1858 12.9334C54.9966 13.2159 54.8421 13.5192 54.7254 13.8373V13.8597C54.4076 14.7788 54.2492 15.7438 54.257 16.7144C53.3024 13.0396 50.1725 10.3232 46.48 10.3232C45.1397 10.3274 43.8245 10.6803 42.6684 11.3458C42.0168 10.805 41.1977 10.497 40.3447 10.4723C39.4918 10.4475 38.6555 10.7074 37.9726 11.2095V9.27614C37.9495 8.30224 37.5425 7.37508 36.8372 6.6897C36.1318 6.00433 35.1832 5.61418 34.1907 5.60133C33.1848 5.60494 32.2214 6.00021 31.5122 6.70034C30.8029 7.40048 30.4058 8.34825 30.4079 9.33555V13.3522C30.3135 13.2304 30.2125 13.1136 30.1052 13.0026C29.0163 11.8831 27.6457 11.0653 26.1318 10.6319C24.6072 10.2109 22.9937 10.2123 21.4698 10.6358H21.4291C20.2004 10.9517 19.0642 11.5458 18.1117 12.3705C17.8108 11.7499 17.3362 11.2261 16.7433 10.8605C16.1504 10.4948 15.4637 10.3024 14.7635 10.3056C14.4082 10.3056 14.0559 10.3563 13.7156 10.4556C11.843 11.0108 11.0938 12.7971 10.6373 13.8626C10.5956 13.9619 10.5579 14.0545 10.5182 14.1421C10.4051 14.407 10.2969 14.6418 10.2106 14.8297C10.1236 15.0118 10.0435 15.197 9.97044 15.3849C9.91784 15.5281 9.87319 15.6265 9.82158 15.7521C9.50906 15.1294 9.19316 14.5083 8.87389 13.8889L8.68534 13.4993C8.21398 12.5058 7.50643 11.0147 5.747 10.4926C4.86987 10.2296 3.92446 10.2957 3.09418 10.6781C2.26391 11.0605 1.60797 11.732 1.25364 12.5623C0.403195 14.5356 1.45906 16.2771 2.02469 17.2111C2.42957 17.8734 2.94956 18.75 3.43681 19.6626C3.6452 20.0298 3.72459 20.1847 4.18504 21.0622L4.25252 21.184L4.83701 22.2865C4.97594 22.5397 5.12876 22.83 5.30838 23.1689C5.4999 23.5361 5.71723 23.9325 5.95638 24.3737C5.9157 24.4292 5.87402 24.4877 5.82539 24.5432L5.79165 24.5831L5.73906 24.5578C5.36563 24.3716 4.96944 24.2331 4.56015 24.1458C4.27152 24.0801 3.97622 24.0468 3.67993 24.0465C3.0317 24.0462 2.39483 24.2135 1.83338 24.5315C1.27194 24.8496 0.805708 25.3071 0.481591 25.8581C0.157796 26.4131 -0.00840016 27.0431 0.000326814 27.6826C0.00905379 28.3221 0.192384 28.9476 0.531208 29.4939C1.65356 31.3308 3.94191 31.9999 5.7212 31.9999C6.19256 32.0019 6.66393 31.9542 7.12438 31.8568C11.1206 31.0045 12.8502 27.2255 14.1125 24.4662L14.3665 23.9111C14.6268 23.3255 14.8978 22.7446 15.1793 22.1686L15.4303 21.6281C15.6856 22.4324 16.0601 23.1954 16.5418 23.8926C16.8395 24.327 17.1719 24.737 17.5381 25.1169C17.9102 25.4899 18.3151 25.8298 18.7478 26.1347C19.1844 26.4327 19.6508 26.6898 20.1371 26.9022C20.6332 27.1301 21.1522 27.3015 21.6871 27.4174C22.0146 27.4963 22.348 27.5567 22.6834 27.5966C22.9911 27.6287 23.2987 27.6424 23.6083 27.6375H23.8812C24.9904 27.6387 26.0915 27.4522 27.1361 27.0862C27.6164 26.9304 28.0818 26.7307 28.5254 26.4911C29.314 26.0417 29.9614 25.388 30.397 24.6016C30.5122 25.4982 30.9555 26.3231 31.6443 26.9228C32.333 27.5225 33.2204 27.8561 34.1411 27.8615C34.9518 27.8615 35.7398 27.6034 36.3888 27.1262V28.2881C36.3888 29.2726 36.7872 30.2167 37.4964 30.9128C38.2057 31.6089 39.1676 31.9999 40.1706 31.9999C41.1736 31.9999 42.1355 31.6089 42.8448 30.9128C43.554 30.2167 43.9524 29.2726 43.9524 28.2881V27.2742C44.7503 27.5469 45.5898 27.6862 46.4353 27.6852C50.8761 27.6852 54.4892 23.8039 54.4972 19.0334C54.5885 19.3227 54.7145 19.6003 54.8713 19.8613C55.1094 20.2295 55.421 20.546 55.7892 20.7905C56.318 21.1368 56.9359 21.3293 57.5715 21.3456H57.8632C58.3577 21.334 58.849 21.2651 59.3269 21.1401H59.4063L61.4764 20.6804C61.1509 21.1216 60.8323 21.5511 60.5257 21.9777L60.353 22.2164C60.1029 22.5543 59.8886 22.8524 59.6981 23.1387L59.6455 23.2196L59.6078 23.2751L59.5899 23.3004V23.3267C59.2931 23.7508 59.0607 24.2151 58.9002 24.7049C58.7692 25.1195 58.7286 25.5566 58.7811 25.9876C58.8387 26.4278 58.9925 26.8515 59.2297 27.2294V27.2479C59.316 27.3804 59.4133 27.5089 59.5105 27.6151L59.5333 27.6375L59.5522 27.6628C59.6564 27.7846 59.7725 27.8985 59.8896 28.0086C60.0265 28.142 60.1744 28.2647 60.3312 28.3768C61.0715 28.8735 61.8812 29.2631 62.7347 29.5338C63.462 29.7715 64.2172 29.9137 64.9813 29.9565H65.1997C65.3246 29.9578 65.4496 29.9516 65.5738 29.938C65.7296 29.9254 65.8844 29.9049 66.0372 29.8757H66.1047C66.2615 29.8397 66.4173 29.7949 66.5691 29.7432H66.5919C67.012 29.5901 67.3947 29.3522 67.7153 29.0449C68.0231 28.7371 68.2639 28.3709 68.4228 27.9687C68.6039 27.4867 68.7126 26.9814 68.7453 26.4687V26.4025C68.7475 26.3805 68.7475 26.3583 68.7453 26.3363V26.2515C68.7781 25.8844 68.7939 25.5464 68.8118 25.149V24.5841L68.9398 24.811L69.0857 25.0799C69.2881 25.447 69.4598 25.7558 69.6394 26.0499L69.6851 26.123L69.7258 26.1892V26.2116L69.7456 26.2408C70.0324 26.6772 70.3827 27.0687 70.7856 27.4057C71.1081 27.7028 71.4902 27.9297 71.9089 28.0709H71.9317C72.2562 28.1781 72.5966 28.2326 72.939 28.2326C73.0452 28.2326 73.1513 28.2258 73.2565 28.2141H73.2913C73.452 28.1966 73.6118 28.1703 73.7706 28.1333H73.8371C73.9909 28.0943 74.1427 28.0446 74.2906 27.9872C74.4672 27.9219 74.6379 27.844 74.8036 27.7554C75.4737 27.388 76.0908 26.9343 76.6385 26.4064C77.2849 25.7957 77.8396 25.0978 78.2858 24.3338C78.4579 24.0293 78.589 23.7042 78.6758 23.3666V23.3043C78.7126 23.1518 78.7401 22.9974 78.7581 22.8417V22.793C78.8003 22.3563 78.7493 21.9158 78.6083 21.4995C78.4606 21.0882 78.2255 20.7124 77.9186 20.397C77.5559 20.0273 77.1412 19.7105 76.6871 19.4561H76.6603L76.6305 19.4386L76.571 19.4055L76.4956 19.3568C76.1969 19.1844 75.8634 18.9896 75.5112 18.8211L75.2194 18.6662C74.7541 18.4113 74.2832 18.1661 73.8073 17.9309L75.8595 17.4643H75.9389C76.5217 17.3563 77.0836 17.1591 77.604 16.88C78.1672 16.592 78.6361 16.1538 78.9566 15.6157C79.167 15.2408 79.295 14.8268 79.3307 14.3992C79.4954 13.0727 78.9268 11.9 78.5864 11.1988H78.5845Z" fill="white" fill-opacity="0.96"/>
<path d="M63.1158 18.4003L64.3513 18.1198C64.3771 18.114 64.4208 18.1042 64.4724 18.0877C64.8136 17.9979 65.106 17.7816 65.288 17.4843C65.47 17.1871 65.5273 16.8322 65.4478 16.4943L65.4429 16.4728C65.402 16.311 65.3307 16.158 65.2325 16.0219C65.0942 15.8495 64.9229 15.7053 64.7284 15.5972C64.4993 15.4691 64.2597 15.3603 64.0119 15.2719L62.6574 14.7859C61.8972 14.5083 61.1371 14.2385 60.369 13.9746C59.8718 13.8012 59.4501 13.6483 59.0839 13.5363C59.0142 13.5174 58.945 13.4966 58.8765 13.474C58.4339 13.3415 58.1223 13.286 57.8593 13.284C57.6836 13.2776 57.5085 13.3089 57.3463 13.3756C57.1768 13.4476 57.0247 13.5538 56.8997 13.6873C56.8378 13.7563 56.7795 13.8285 56.7251 13.9035C56.6194 14.0629 56.5322 14.2334 56.4651 14.4119C56.2134 15.1414 56.088 15.9072 56.094 16.6774C56.0989 17.3728 56.1178 18.2659 56.5078 18.8717C56.602 19.0276 56.7281 19.162 56.8779 19.2662C57.1558 19.4542 57.4356 19.4795 57.7284 19.5C58.165 19.5301 58.5867 19.4259 59.0085 19.3295L63.1128 18.3994L63.1158 18.4003ZM76.8995 11.9633C76.5623 11.2685 76.1088 10.6341 75.5579 10.0865C75.4867 10.0168 75.4104 9.95238 75.3297 9.89364C75.255 9.83871 75.1775 9.78767 75.0974 9.74073C75.015 9.69639 74.9302 9.6564 74.8434 9.62093C74.6721 9.55482 74.4885 9.52494 74.3046 9.53327C74.1289 9.54301 73.9572 9.59171 73.8014 9.67255C73.5663 9.78748 73.3112 9.97253 72.9718 10.2813C72.9252 10.3271 72.8666 10.3787 72.8131 10.4274C72.5342 10.6855 72.2226 11.004 71.8525 11.3741C71.2799 11.9419 70.7172 12.5127 70.1565 13.0883L69.1543 14.109C68.9712 14.2952 68.8046 14.4962 68.6561 14.7099C68.529 14.8908 68.439 15.0943 68.3911 15.3089C68.3643 15.4739 68.3683 15.6422 68.4031 15.8057L68.408 15.8271C68.4872 16.1646 68.6968 16.4588 68.9926 16.6478C69.2883 16.8367 69.6473 16.9056 69.9938 16.84C70.0355 16.8343 70.0769 16.8265 70.1178 16.8167L75.4587 15.605C75.8804 15.5096 76.3071 15.4219 76.6852 15.2057C76.9392 15.0625 77.1804 14.9194 77.3461 14.6311C77.4344 14.4723 77.4878 14.2971 77.5029 14.1168C77.5853 13.4019 77.2052 12.5906 76.8995 11.9633ZM67.3383 14.1674C67.7253 13.6902 67.7253 12.9792 67.759 12.3968C67.8761 10.4537 67.9982 8.5106 68.0964 6.56654C68.1331 5.83022 68.2135 5.10363 68.1689 4.36146C68.1321 3.74981 68.1282 3.0466 67.7342 2.54403C67.0396 1.65771 65.557 1.73076 64.5458 1.86906C64.2339 1.91135 63.9242 1.96856 63.6179 2.04048C63.3103 2.11256 63.0047 2.19145 62.707 2.28592C61.7365 2.5976 60.372 3.17029 60.1417 4.26796C60.0108 4.88839 60.3204 5.52244 60.5585 6.0893C60.8493 6.77497 61.2452 7.39345 61.6065 8.03919C62.5621 9.74462 63.5346 11.4403 64.5041 13.137C64.7949 13.6434 65.1095 14.2843 65.6701 14.5473C65.7078 14.5629 65.7455 14.5765 65.7842 14.5892C66.0353 14.6827 66.3102 14.7002 66.5712 14.6408L66.6178 14.6311C66.86 14.5658 67.0783 14.4363 67.2499 14.258C67.2817 14.2288 67.3105 14.1996 67.3393 14.1674H67.3383ZM66.8748 19.3694C66.7238 19.1609 66.5094 19.0046 66.2624 18.9229C66.0153 18.8412 65.7483 18.8383 65.4994 18.9146C65.4409 18.9335 65.3839 18.9566 65.3288 18.9837C65.2435 19.0264 65.1621 19.0763 65.0856 19.1328C64.8672 19.3017 64.672 19.4978 64.5051 19.7162C64.4624 19.7697 64.4227 19.8408 64.3711 19.8876L63.5118 21.0466C63.0255 21.6972 62.5442 22.3488 62.0689 23.0102C61.7573 23.4377 61.4894 23.7991 61.276 24.1176C61.2363 24.178 61.1946 24.2442 61.1569 24.2987C60.9019 24.6844 60.758 24.9669 60.6836 25.2182C60.628 25.3851 60.6104 25.562 60.632 25.7363C60.6558 25.9175 60.7183 26.0918 60.8146 26.2486C60.8662 26.3265 60.9217 26.4025 60.9813 26.4756C61.1099 26.6208 61.2547 26.7515 61.4129 26.8652C62.0064 27.2703 62.6554 27.5615 63.3381 27.7865C63.9067 27.9716 64.4972 28.0826 65.0946 28.1157C65.1968 28.1206 65.299 28.1187 65.4002 28.1099C65.4941 28.1013 65.5874 28.0883 65.68 28.0709C65.7727 28.0498 65.8641 28.0238 65.9539 27.993C66.1286 27.9288 66.2875 27.8292 66.4203 27.7008C66.5464 27.5771 66.6436 27.4281 66.7042 27.2635C66.8034 27.02 66.8689 26.7122 66.9125 26.2545C66.9155 26.1892 66.9254 26.1113 66.9324 26.0402C66.9661 25.6603 66.982 25.2123 67.0058 24.6883C67.0485 23.8809 67.0812 23.0774 67.107 22.2719L67.1626 20.8382C67.1755 20.509 67.1646 20.1428 67.0713 19.8145C67.0303 19.6569 66.964 19.5066 66.8748 19.3694ZM76.5731 21.6125C76.3944 21.4187 76.1404 21.2268 75.7395 20.9892C75.6819 20.957 75.6135 20.9151 75.551 20.8781C75.2175 20.6804 74.8156 20.4739 74.3462 20.2236C73.6248 19.834 72.9034 19.4561 72.174 19.0802L70.8869 18.4101C70.8204 18.3906 70.7529 18.3438 70.6894 18.3137C70.4419 18.1896 70.1791 18.0976 69.9075 18.04C69.8139 18.0222 69.7189 18.0125 69.6237 18.0107C69.562 18.0104 69.5003 18.014 69.4391 18.0215C69.1814 18.0605 68.9429 18.1784 68.7576 18.3584C68.5722 18.5384 68.4495 18.7712 68.407 19.0237C68.3882 19.1844 68.3941 19.347 68.4259 19.5048C68.4884 19.8418 68.6412 20.1739 68.8 20.4652L69.4867 21.7304C69.8698 22.4433 70.2568 23.1524 70.6537 23.8595C70.9097 24.3202 71.1231 24.7146 71.3226 25.0419C71.3603 25.1032 71.4029 25.1695 71.4357 25.2269C71.6788 25.6194 71.8733 25.8668 72.0708 26.0451C72.2023 26.1692 72.3602 26.2633 72.5331 26.3206C72.7061 26.3778 72.8898 26.3968 73.0711 26.3762C73.1655 26.3649 73.2592 26.3487 73.3519 26.3275C73.5417 26.2776 73.7252 26.2067 73.8987 26.1162C74.421 25.8288 74.9025 25.4751 75.3307 25.0643C75.8447 24.5675 76.2992 24.026 76.6525 23.4066C76.7021 23.3189 76.7438 23.2283 76.7795 23.1339C76.8127 23.0473 76.8415 22.9593 76.8658 22.8699C76.8867 22.7784 76.9025 22.6868 76.9135 22.5943C76.9312 22.4124 76.9099 22.2289 76.8509 22.0557C76.7927 21.8894 76.6978 21.7377 76.5731 21.6115V21.6125Z" fill="#FF1A1A"/>
<path fill-rule="evenodd" clip-rule="evenodd" d="M32.2492 9.31022C32.2492 8.26806 33.1135 7.41681 34.1575 7.41681C35.1865 7.41681 36.0221 8.26806 36.0667 9.3258V24.1049C36.0667 25.147 35.2014 25.9983 34.1575 25.9983C33.9051 25.9982 33.6553 25.949 33.4225 25.8535C33.1897 25.7581 32.9784 25.6183 32.801 25.4422C32.6235 25.2662 32.4834 25.0573 32.3887 24.8278C32.294 24.5982 32.2466 24.3525 32.2492 24.1049V9.31022ZM30.4739 18.4393C30.459 18.7324 30.3846 19.2759 29.9975 19.6723C29.5798 20.098 29.0131 20.2002 28.6847 20.2002C27.3202 20.208 25.9557 20.2119 24.5912 20.2148C23.2267 20.2187 21.8623 20.2226 20.4978 20.2294C20.6169 20.5966 20.855 21.1547 21.3919 21.668C21.7194 21.9768 22.0329 22.1521 22.1679 22.2261C22.3316 22.3284 22.8983 22.6225 23.5989 22.6225C24.3451 22.6225 25.0011 22.3868 25.6431 22.0644L25.6957 22.0371C26.1423 21.8102 26.6017 21.5765 27.089 21.4917C27.5653 21.4187 28.0734 21.5063 28.4455 21.8297C28.8931 22.2115 29.0727 22.7686 28.9079 23.3413C28.7144 23.987 28.1627 24.5451 27.5812 24.8821C27.2484 25.0733 26.899 25.2353 26.5372 25.3662C25.6143 25.6876 24.6383 25.8373 23.6594 25.8074C23.4212 25.8074 23.1672 25.8074 22.9132 25.7782C22.6452 25.749 22.3773 25.6896 22.1232 25.6311C21.7114 25.5434 21.3109 25.4105 20.9295 25.2347C20.5478 25.0686 20.1833 24.8671 19.8408 24.6328C19.4993 24.3918 19.1801 24.1216 18.8872 23.8254C18.5959 23.5254 18.3313 23.2015 18.0963 22.8572C17.2915 21.6534 16.9184 20.171 16.9928 18.7324C17.0523 17.3241 17.5297 15.9147 18.395 14.7703C18.4883 14.6262 18.5964 14.5044 18.6987 14.3895C18.7433 14.3388 18.787 14.2901 18.8277 14.2415C19.8954 12.9597 21.3224 12.5545 21.9109 12.387L21.9436 12.3773C23.138 12.0444 24.4031 12.0444 25.5975 12.3773C25.8813 12.4513 27.477 12.9354 28.7144 14.2415C28.774 14.2999 28.9387 14.4908 29.1471 14.7703C29.6764 15.4778 30.0652 16.2767 30.2933 17.1254L30.2952 17.1332C30.3846 17.4556 30.4739 17.8958 30.4739 18.4383V18.4393ZM21.7204 16.018C21.1315 16.488 20.7217 17.1394 20.5573 17.8666H27.0592C26.8837 17.14 26.4699 16.4901 25.8813 16.017C25.2884 15.5504 24.5533 15.2922 23.7934 15.2836C23.0375 15.291 22.3064 15.5495 21.7194 16.017L21.7204 16.018ZM46.4457 12.1279C44.7458 12.1279 43.1948 12.8769 42.0913 14.0954V14.0506C42.0692 13.5612 41.852 13.1001 41.4867 12.7664C41.1214 12.4328 40.6371 12.2534 40.1382 12.2669C39.6394 12.2805 39.166 12.4859 38.82 12.8388C38.474 13.1918 38.2831 13.664 38.2886 14.1538V28.2579C38.2874 28.5046 38.336 28.749 38.4315 28.9771C38.5269 29.2053 38.6674 29.4127 38.8449 29.5873C39.0224 29.7619 39.2333 29.9004 39.4655 29.9947C39.6977 30.089 39.9466 30.1372 40.1979 30.1367C40.4491 30.1371 40.6979 30.0887 40.93 29.9944C41.1621 29.9 41.3729 29.7616 41.5503 29.5869C41.7276 29.4123 41.868 29.205 41.9634 28.9769C42.0589 28.7488 42.1074 28.5045 42.1062 28.2579V23.8546C43.2097 25.0584 44.7458 25.822 46.4606 25.822C49.8763 25.822 52.6499 22.7832 52.6499 18.9964C52.635 15.2106 49.8614 12.1279 46.4457 12.1279ZM45.6112 22.754C43.6721 22.754 42.0913 21.0953 42.0913 19.0266C42.0913 16.9423 43.6572 15.2836 45.6112 15.2836C47.5492 15.2836 49.13 16.9423 49.13 19.0266C49.1152 21.0953 47.5492 22.754 45.6112 22.754ZM14.1299 19.9801L13.5037 21.331C13.2199 21.9173 12.9361 22.5193 12.6681 23.1212L12.4091 23.6861C11.2163 26.2885 9.80224 29.378 6.71801 30.0335C5.22651 30.3568 2.97487 29.9166 2.13931 28.5365C1.30475 27.1427 2.54221 25.5425 4.1379 25.9097C4.38996 25.9642 4.63706 26.085 4.88713 26.2077C5.30292 26.4122 5.72467 26.6178 6.18115 26.5262C6.61382 26.4531 6.88175 26.1444 7.2251 25.748C7.70143 25.2055 7.91082 24.6328 8.00013 24.2948L7.9783 24.2442C7.97138 24.2267 7.96377 24.2095 7.95547 24.1926C7.56746 23.4816 7.22808 22.8465 6.94526 22.3157C6.78626 22.016 6.62583 21.7169 6.46397 21.4187L5.81398 20.207C5.33766 19.3207 5.25827 19.1746 5.04789 18.7919C4.5841 17.9327 4.09667 17.086 3.58616 16.2527C3.03441 15.342 2.46778 14.3301 2.93022 13.2577C3.10403 12.8426 3.43041 12.5066 3.84469 12.3165C4.25897 12.1263 4.7309 12.0959 5.16697 12.2312C6.12657 12.5165 6.55229 13.4136 6.94923 14.2512C7.02167 14.4031 7.09213 14.5531 7.16556 14.6963C7.80662 15.944 8.43279 17.1916 9.05897 18.4393C9.11454 18.563 9.19789 18.7315 9.3011 18.938C9.3924 19.1211 9.49858 19.3344 9.61071 19.5691L9.77643 19.908C9.84094 20.0405 9.8975 20.1535 9.93918 20.2441C10.2299 19.5331 10.5247 18.825 10.8184 18.1159C11.1131 17.4078 11.4079 16.6998 11.6986 15.9878C11.7066 15.9488 11.776 15.7969 11.8812 15.568C11.9695 15.3742 12.0827 15.1258 12.2057 14.8434L12.3317 14.5444C12.7188 13.6191 13.1852 12.5058 14.2192 12.2019C14.5862 12.0974 14.9773 12.1076 15.3381 12.2312C15.6989 12.3548 16.0116 12.5856 16.2327 12.8915C16.4559 13.1993 16.5453 13.5519 16.5601 13.9045C16.572 14.6836 16.189 15.5193 15.8595 16.2362C15.7801 16.4115 15.7027 16.579 15.6363 16.7368L15.5966 16.8225C15.5053 17.0241 15.2572 17.5695 14.8305 18.4685C14.6767 18.7899 14.5288 19.1133 14.379 19.4396L14.1299 19.9801Z" fill="black"/>
</g>
<defs>
<clipPath id="clip0_103_36603">
<rect width="79.36" height="32" fill="white"/>
</clipPath>
</defs>
</svg>
