<svg xmlns="http://www.w3.org/2000/svg" width="70" height="70" viewBox="0 0 70 70">
  <g id="Group_11978" data-name="Group 11978" transform="translate(-160 -394)">
    <g id="Rectangle_4642" data-name="Rectangle 4642" transform="translate(160 394)" fill="rgba(149,160,184,0.07)" stroke="#95a0b8" stroke-width="0.2">
      <path d="M0,0H70a0,0,0,0,1,0,0V70a0,0,0,0,1,0,0H6a6,6,0,0,1-6-6V0A0,0,0,0,1,0,0Z" stroke="none"/>
      <path d="M.2.1H69.8a.1.1,0,0,1,.1.1V69.8a.1.1,0,0,1-.1.1H6A5.9,5.9,0,0,1,.1,64V.2A.1.1,0,0,1,.2.1Z" fill="none"/>
    </g>
    <g id="noun_Image_1406389" transform="translate(175.992 402.217)">
      <path id="Path_20511" data-name="Path 20511" d="M28.452,17.5H9.564A1.975,1.975,0,0,0,7.6,19.464V34.1a1.975,1.975,0,0,0,1.964,1.964H28.452A1.975,1.975,0,0,0,30.417,34.1V19.464A1.975,1.975,0,0,0,28.452,17.5ZM16.129,20.379A1.722,1.722,0,1,1,14.407,22.1,1.717,1.717,0,0,1,16.129,20.379Zm11.355,13.1-17.7-.027a.8.8,0,0,1-.7-1.184l3.067-5.3a.785.785,0,0,1,1.372,0l2.422,4.2,5.085-8.825a1.364,1.364,0,0,1,2.368,0l5.247,9.067A1.359,1.359,0,0,1,27.484,33.482Z" transform="translate(0)" fill="#95a0b8"/>
    </g>
  </g>
</svg>
